<ttFont>
          <CharString index="0">
            0 -4 0 -3 1 -5 4 -20 7 -25 9 -58 5 -32 4 -117 0 -106 rrcurveto
            -24 15 -6 15 23 7 16 14 vhcurveto
            0 108 -6 127 -5 32 -9 60 -6 23 -4 20 -4 20 -12 10 -14 0 rrcurveto
            -20 -10 -10 -20 hvcurveto
            return
          </CharString>
          <CharString index="1">
            -20 26 -20 20 20 10 10 20 30 -20 10 -20 vhcurveto
            -20 -16 -10 -20 hvcurveto
            return
          </CharString>
          <CharString index="2">
            0 30 9 52 8 44 8 44 6 39 0 11 0 20 -10 10 -20 0 -14 0 -10 -10 -20 -20 rrcurveto
            -78 -77 rlineto
            -6 24 -2 100 0 21 rrcurveto
            20 -10 10 -20 -20 -10 -10 -20 vhcurveto
            0 -121 13 -67 4 -10 8 -20 14 -10 11 0 20 0 12 10 20 20 rrcurveto
            44 46 rlineto
            -8 -44 -9 -52 0 -40 rrcurveto
            -20 10 -10 20 20 10 11 19 vhcurveto
            return
          </CharString>
          <CharString index="3">
            14 0 7 10 12 20 rrcurveto
            180 300 rlineto
            45 75 45 69 32 48 12 18 3 8 0 8 0 20 -10 10 -20 0 -8 0 -9 -6 -16 -24 -48 -72 -45 -70 -30 -50 rrcurveto
            -180 -300 rlineto
            -12 -20 -2 -6 0 -8 0 -20 10 -10 20 0 rrcurveto
            return
          </CharString>
          <CharString index="4">
            20 -10 10 -20 -20 -10 -10 -20 vhcurveto
            0 -20 -5 -79 -51 -96 -2 -4 -2 -6 0 -5 0 -22 15 -8 15 0 19 0 13 26 2 4 52 103 4 87 0 20 rrcurveto
            return
          </CharString>
          <CharString index="5">
            -12 24 -8 6 -11 0 -20 0 -10 -10 0 -20 0 -8 2 -8 7 -14 7 -14 3 -6 14 -20 rrcurveto
            -83 hlineto
            -20 -10 -10 -20 -20 10 -10 20 hvcurveto
            77 0 -17 -17 rlineto
            -24 -24 -6 -8 0 -11 0 -20 10 -10 20 0 11 0 7 6 24 24 rrcurveto
            39 39 rlineto
            9 -9 10 -8 15 -10 18 -12 9 -4 8 0 20 0 10 10 0 20 0 14 -9 6 -21 14 rrcurveto
            30 hlineto
            20 10 10 20 20 -10 10 -20 hvcurveto
            -18 0 33 33 rlineto
            10 10 5 7 0 8 0 20 -10 10 -20 0 -11 0 -7 -3 -25 -25 rrcurveto
            -48 -48 rlineto
            -18 22 -8 12 -12 24 rrcurveto
            return
          </CharString>
          <CharString index="6">
            -2 27 -1 31 0 35 rrcurveto
            20 -9 10 -21 -20 -10 -10 -20 vhcurveto
            0 -39 1 -34 2 -29 -34 -5 -34 -3 -25 0 rrcurveto
            return
          </CharString>
          <CharString index="7">
            -20 -10 -10 -20 hvcurveto
            return
          </CharString>
          <CharString index="8">
            -20 10 -10 20 vhcurveto
            29 0 35 3 34 5 4 -41 5 -25 3 -10 5 -20 11 -10 14 0 20 0 10 10 0 20 0 4 -1 6 -1 4 -1 4 -5 24 -5 43 rrcurveto
            return
          </CharString>
          <CharString index="9">
            27 5 22 4 14 4 rrcurveto
            return
          </CharString>
          <CharString index="10">
            20 5 10 9 0 16 rrcurveto
            return
          </CharString>
          <CharString index="11">
            20 -10 10 -20 vhcurveto
            -4 0 -6 -2 -4 -1 rrcurveto
            -8 -2 -20 -4 -25 -4 rrcurveto
            return
          </CharString>
          <CharString index="12">
            0 16 -12 12 -18 2 rrcurveto
            return
          </CharString>
          <CharString index="13">
            -45 5 -55 5 -20 0 -90 0 -34 -8 -36 -12 -21 -7 -9 -8 0 -16 0 -20 10 -9 20 0 3 0 12 1 6 2 20 7 39 10 80 0 rrcurveto
            22 0 51 -5 27 -3 rrcurveto
            return
          </CharString>
          <CharString index="14">
            9 -1 6 -1 5 0 rrcurveto
            19 11 10 20 hvcurveto
            return
          </CharString>
          <CharString index="15">
            -13 -17 -6 -24 -21 14 -25 24 18 24 10 20 23 -29 23 -21 hvcurveto
            return
          </CharString>
          <CharString index="16">
            16 0 11 9 3 21 5 35 16 53 18 54 50 150 93 272 36 180 1 5 1 5 0 4 0 20 -9 10 -20 0 -16 0 -12 -10 -4 -20 rrcurveto
            -36 -180 -91 -268 -50 -150 -20 -60 -16 -57 -5 -35 -1 -7 0 -1 0 0 0 -20 10 -10 20 0 rrcurveto
            return
          </CharString>
          <CharString index="17">
            12 5 19 1 21 0 rrcurveto
            38 24 -56 -38 -115 -97 -75 -115 -48 -36 34 48 hvcurveto
            0 65 49 61 48 32 rrcurveto
            return
          </CharString>
          <CharString index="18">
            21 14 22 6 20 0 rrcurveto
            6 16 4 14 hvcurveto
            return
          </CharString>
          <CharString index="19">
            -80 64 -61 80 147 125 103 147 vhcurveto
            return
          </CharString>
          <CharString index="20">
            72 -50 82 -72 vhcurveto
            -30 0 -22 -1 -24 -9 rrcurveto
            return
          </CharString>
          <CharString index="21">
            -6 -2 -5 -7 0 -6 -25 0 -31 -12 -24 -16 -66 -44 -61 -81 0 -85 rrcurveto
            return
          </CharString>
          <CharString index="22">
            18 18 2 4 0 11 0 20 -10 10 -20 0 -11 0 -12 -11 -12 -12 rrcurveto
            -257 -262 rlineto
            -18 -18 -10 -26 0 -27 0 -39 26 -27 28 -9 100 -33 71 -22 68 -68 10 -10 15 -2 2 0 22 0 8 11 0 19 0 5 -4 11 -12 11 rrcurveto
            -72 72 -87 30 -95 31 -10 3 -10 7 0 10 0 10 2 10 10 10 rrcurveto
            return
          </CharString>
          <CharString index="23">
            20 10 10 20 20 -10 10 -20 hvcurveto
            -80 hlineto
            -84 0 -108 -34 -20 -4 -20 -4 -8 -9 0 -17 0 -20 10 -10 20 0 10 0 5 2 7 1 20 4 97 31 77 0 rrcurveto
            return
          </CharString>
          <CharString index="24">
            -20 -3 -10 -7 0 -20 0 -20 15 -10 15 0 7 0 11 2 8 1 20 3 204 21 20 3 19 3 11 7 0 20 0 20 -10 10 -20 0 rrcurveto
            -3 0 -10 -1 -13 -2 -20 -3 -207 -21 -17 -3 rrcurveto
            return
          </CharString>
          <CharString index="25">
            -22 16 -46 26 -40 19 -65 31 -71 27 -54 20 -11 4 -6 3 -11 0 -20 0 -8 -10 0 -20 0 -14 8 -10 22 -8 54 -20 73 -28 63 -30 rrcurveto
            39 -18 36 -20 25 -18 11 -8 9 -14 0 -8 0 -11 -13 -15 -7 -6 -70 -60 -81 -80 -90 -120 -15 -20 -4 -7 0 -11 0 -20 10 -10 20 0 rrcurveto
            10 0 8 6 18 24 75 100 82 89 84 72 14 12 19 27 0 30 0 36 -24 28 -22 16 rrcurveto
            return
          </CharString>
          <CharString index="26">
            9 -8 14 0 vhcurveto
            -19 31 -9 13 0 11 rrcurveto
            27 24 25 30 39 35 -16 -54 vhcurveto
            0 -59 -39 -92 -27 -52 -41 -78 -6 -27 0 -34 rrcurveto
            -24 15 -6 15 24 6 15 15 vhcurveto
            0 39 23 36 27 55 47 95 16 65 0 52 rrcurveto
            91 -61 39 -73 -62 -52 -50 -62 vhcurveto
            0 -37 20 -21 15 -25 8 -13 12 -12 11 0 rrcurveto
            20 10 10 20 hvcurveto
            return
          </CharString>
          <CharString index="27">
            -70 -210 -4 -47 -50 -200 rrcurveto
            0 -2 -7 -5 -20 10 -10 20 hvcurveto
            18 0 7 10 5 20 50 200 3 41 70 210 7 21 8 24 20 0 6 0 3 -7 5 -15 15 -45 14 -107 14 -95 -66 -13 -45 -23 0 -53 rrcurveto
            -20 42 -148 78 30 40 17 76 vhcurveto
            0 22 -4 42 -6 50 rrcurveto
            return
          </CharString>
          <CharString index="28">
            26 3 rlineto
            16 2 14 12 0 16 0 20 -10 10 -20 0 -7 0 -5 -1 -23 -3 -14 99 -18 116 -15 45 -10 30 -20 30 -40 0 rrcurveto
            -54 0 -23 -42 -15 -45 rrcurveto
            return
          </CharString>
          <CharString index="29">
            7 -49 3 -40 0 -15 rrcurveto
            -19 -3 -14 -7 -18 -42 86 22 vhcurveto
            0 12 24 9 36 8 rrcurveto
            return
          </CharString>
          <CharString index="30">
            -49 0 -22 40 -21 0 rrcurveto
            -20 -10 -10 -20 -20 54 -50 68 139 81 123 69 hvcurveto
            0 130 -220 -56 0 62 rrcurveto
            return
          </CharString>
          <CharString index="31">
            0 20 32 79 0 69 rrcurveto
            49 -22 41 -58 -100 -32 -202 -56 vhcurveto
            return
          </CharString>
          <CharString index="32">
            0 -61 21 -87 5 -20 5 -20 8 -10 19 0 20 0 10 10 0 20 0 5 -1 4 -1 3 rrcurveto
            return
          </CharString>
          <CharString index="33">
            -5 20 -21 85 0 51 rrcurveto
            65 42 133 30 20 0 -15 -15 vhcurveto
            return
          </CharString>
          <CharString index="34">
            0 -52 -32 -82 0 -34 0 -130 220 56 0 -62 rrcurveto
            -36 -56 -96 -104 vhcurveto
            return
          </CharString>
          <CharString index="35">
            23 7 15 15 hvcurveto
            0 4 -1 5 -1 6 -5 20 -7 79 0 56 0 79 4 29 12 46 3 12 9 28 41 14 11 4 30 4 20 0 66 0 84 -66 0 -60 rrcurveto
            0 -150 -170 -74 -126 -114 -20 -18 -10 -10 0 -10 0 -22 10 -9 20 0 20 0 9 13 20 18 120 108 187 81 0 189 0 89 -106 95 -104 0 rrcurveto
            -20 0 -41 -4 -21 -7 -52 -17 -28 -42 -8 -28 -16 -58 -4 -51 0 -69 0 -75 8 -75 5 -20 5 -20 5 -10 21 0 rrcurveto
            return
          </CharString>
          <CharString index="36">
            15 -3 18 -2 14 0 43 0 29 5 38 5 16 2 14 12 0 16 0 20 -11 10 -19 0 -5 0 -7 -1 -8 -1 -26 -4 -39 -4 -25 0 rrcurveto
            return
          </CharString>
          <CharString index="37">
            -20 0 -23 5 -6 2 -1 26 0 22 0 15 rrcurveto
            20 -10 10 -20 -20 -10 -10 -20 vhcurveto
            return
          </CharString>
          <CharString index="38">
            0 -54 6 -136 2 -100 -45 83 -13 142 0 85 0 100 160 6 100 0 20 0 34 -3 10 -5 10 -5 12 -3 4 0 20 0 10 9 0 21 rrcurveto
            0 14 -10 8 -20 10 -20 10 -46 4 -24 0 -135 0 -185 -31 0 -135 0 -132 31 -186 72 -72 13 -13 20 -17 14 0 20 0 11 10 0 20 rrcurveto
            0 46 -5 108 -3 91 rrcurveto
            return
          </CharString>
          <CharString index="39">
            14 2 18 2 22 0 22 0 11 0 27 -3 9 -1 6 -1 5 0 19 0 11 10 0 20 0 16 -12 12 -18 2 -45 5 -15 0 -20 0 rrcurveto
            -45 0 -34 -6 -21 -6 -21 -7 -9 -7 0 -24 0 -82 100 21 0 -49 rrcurveto
            -40 -20 -20 -40 -77 -63 62 98 217 156 89 77 22 25 -11 -29 vhcurveto
            0 -20 -2 -8 -10 -20 -2 -5 -6 -9 0 -6 0 -20 15 -10 15 0 8 0 17 10 10 20 10 20 5 19 0 29 rrcurveto
            72 -62 28 -45 -120 -173 -127 -239 -147 106 -73 94 72 48 48 72 vhcurveto
            0 66 -56 17 -28 13 rrcurveto
            return
          </CharString>
          <CharString index="40">
            -20 -9 -10 -20 hvcurveto
            0 -5 0 -5 1 -4 6 -40 16 -132 3 -20 0 -28 -54 -26 -88 0 -4 35 -22 154 0 101 rrcurveto
            20 -9 10 -21 -22 -8 -10 -20 vhcurveto
            0 -101 21 -154 4 -35 -28 0 -67 -23 0 -67 0 -40 13 -57 7 -19 17 -48 28 -12 25 0 rrcurveto
            return
          </CharString>
          <CharString index="41">
            46 34 23 67 hvcurveto
            0 20 -5 61 -4 35 88 0 41 20 22 17 8 -42 20 -76 0 -65 rrcurveto
            return
          </CharString>
          <CharString index="42">
            -20 10 -10 20 vhcurveto
            return
          </CharString>
          <CharString index="43">
            20 10 10 20 hvcurveto
            0 82 -27 91 -13 87 -3 18 -19 148 -6 40 rrcurveto
            -3 20 -8 10 -20 0 rrcurveto
            return
          </CharString>
          <CharString index="44">
            -20 -10 95 21 20 20 10 20 hvcurveto
            return
          </CharString>
          <CharString index="45">
            0 10 -96 -20 -20 0 -10 -20 hvcurveto
            return
          </CharString>
          <CharString index="46">
            -20 -7 -10 -12 0 -11 0 -20 10 -10 20 0 9 0 10 3 4 1 rrcurveto
            return
          </CharString>
          <CharString index="47">
            75 25 54 17 80 0 57 0 49 -28 20 -12 rrcurveto
            return
          </CharString>
          <CharString index="48">
            7 -4 8 -2 7 0 24 0 6 10 0 20 0 7 -10 13 -20 12 rrcurveto
            return
          </CharString>
          <CharString index="49">
            -20 12 -58 32 -70 0 rrcurveto
            -101 0 -52 -20 -79 -26 rrcurveto
            return
          </CharString>
          <CharString index="50">
            -120 vlineto
            -119 9 -108 0 vhcurveto
            -11 6 -21 14 -7 14 -3 5 -7 20 -20 0 -20 0 -10 -12 0 -18 0 -8 3 -8 2 -4 30 -54 49 -28 108 0 81 0 74 46 39 29 rrcurveto
            8 6 16 12 0 11 0 20 -10 10 -20 0 -4 0 -10 -1 -7 -5 -72 -52 -60 -16 -35 0 -16 0 -9 1 -7 0 0 0 -10 119 0 120 rrcurveto
            120 vlineto
            20 -10 10 -20 -20 -10 -10 -20 vhcurveto
            return
          </CharString>
          <CharString index="51">
            0 -17 17 -8 28 -13 61 -28 96 -48 78 0 63 0 57 47 0 63 rrcurveto
            return
          </CharString>
          <CharString index="52">
            0 56 -30 174 0 100 0 54 11 30 5 15 1 3 3 10 0 4 0 20 -10 10 -20 0 -16 0 -12 -22 -2 -8 -5 -14 -15 -38 0 -64 rrcurveto
            return
          </CharString>
          <CharString index="53">
            0 -107 30 -169 0 -54 0 -30 -30 -20 -30 0 -64 0 -74 37 -70 32 -20 10 -14 5 -8 0 rrcurveto
            -22 -8 -13 -17 hvcurveto
            return
          </CharString>
          <CharString index="54">
            34 0 64 24 12 4 25 8 5 10 0 14 0 20 -10 10 -20 0 -4 0 -14 -5 -6 -2 -18 -6 -48 -17 -20 0 -89 0 50 129 -78 184 rrcurveto
            36 29 53 38 66 0 rrcurveto
            20 10 10 20 20 -10 10 -20 hvcurveto
            -69 0 -95 -30 -137 -151 0 20 11 57 0 160 rrcurveto
            20 -10 10 -20 -20 -10 -10 -20 vhcurveto
            return
          </CharString>
          <CharString index="55">
            0 -160 -20 -116 0 -160 rrcurveto
            -20 10 -10 20 20 10 10 20 vhcurveto
            0 94 12 26 95 94 rrcurveto
            59 -144 -48 -190 154 0 rrcurveto
            return
          </CharString>
          <CharString index="56">
            192 0 54 24 12 4 25 8 5 10 0 14 0 20 -10 10 -20 0 -4 0 -14 -5 -6 -2 -18 -6 -50 -17 -166 0 -28 0 -16 7 0 43 rrcurveto
            return
          </CharString>
          <CharString index="57">
            0 86 24 216 0 88 0 20 -3 30 -1 6 -2 20 -10 10 -18 0 -20 0 -10 -12 0 -19 0 -6 4 -29 0 -20 rrcurveto
            return
          </CharString>
          <CharString index="58">
            0 -83 -24 -222 0 -85 rrcurveto
            -79 43 -31 61 vhcurveto
            return
          </CharString>
          <CharString index="59">
            25 8 5 10 0 14 0 20 -10 10 -20 0 -4 0 -14 -5 -6 -2 rrcurveto
            return
          </CharString>
          <CharString index="60">
            -4 -20 -24 -230 0 -110 0 -20 4 -26 6 -24 5 -20 9 -10 16 0 20 0 10 10 0 20 0 4 -2 8 -1 4 -5 20 -2 14 0 20 rrcurveto
            0 110 23 220 4 20 4 20 5 20 14 0 20 0 8 -22 4 -20 6 -30 18 -212 40 -96 15 -36 25 -24 34 0 31 0 30 22 14 38 rrcurveto
            28 78 15 116 2 54 2 54 4 108 6 12 rrcurveto
            return
          </CharString>
          <CharString index="61">
            6 12 2 6 0 6 0 17 -10 13 -20 0 -14 0 -8 -10 -10 -20 rrcurveto
            return
          </CharString>
          <CharString index="62">
            -14 -30 -2 -112 -2 -54 -3 -72 -27 -178 -30 0 -40 0 -34 320 -6 30 -11 55 -31 35 -48 0 rrcurveto
            -48 0 -24 -37 -10 -53 rrcurveto
            return
          </CharString>
          <CharString index="63">
            -4 0 -6 -1 -5 -1 -60 -12 -65 -71 0 -145 rrcurveto
            -120 100 -100 120 134 126 126 134 142 -48 184 -142 vhcurveto
            -40 0 -50 -14 -20 -12 -20 -12 -10 -8 0 -14 0 -20 10 -10 20 0 6 0 5 1 20 12 21 12 38 5 20 0 rrcurveto
            100 30 -166 -100 -100 -98 -100 -102 -88 -72 72 88 hvcurveto
            0 72 20 86 60 12 20 4 10 10 0 16 0 20 -9 10 -21 0 rrcurveto
            return
          </CharString>
          <CharString index="64">
            0 -110 63 -248 17 -62 5 -19 5 -11 20 0 20 0 10 13 0 17 0 5 -1 6 -2 6 -17 60 -60 240 0 102 rrcurveto
            30 35 47 151 79 15 -21 -55 vhcurveto
            0 -67 -123 -27 -77 -18 -20 -5 -10 -9 0 -16 0 -20 10 -10 20 0 3 0 8 2 5 1 76 17 168 34 0 118 rrcurveto
            95 -55 41 -99 -179 -67 -67 -69 vhcurveto
            return
          </CharString>
          <CharString index="65">
            20 10 10 20 hvcurveto
            87 73 -57 -109 hvcurveto
            0 -119 -100 -105 -78 -42 -12 142 -88 46 -20 14 -15 11 -17 27 0 26 0 54 67 61 23 21 rrcurveto
            return
          </CharString>
          <CharString index="66">
            20 -14 75 -41 0 -120 -23 -10 -23 -2 -24 0 -110 0 -43 111 0 129 0 158 109 23 20 8 -17 -21 -42 -48 0 -60 0 -38 17 -46 41 -29 rrcurveto
            return
          </CharString>
          <CharString index="67">
            20 10 10 20 hvcurveto
            0 6 -1 6 -1 3 -15 62 -7 74 0 79 rrcurveto
            118 73 148 147 85 35 -31 -65 -86 -54 -24 -106 vhcurveto
            -100 hlineto
            -20 -10 -10 -20 hvcurveto
            0 -20 16 -9 14 -9 156 -96 40 -34 54 -62 18 -20 8 -10 14 0 20 0 10 10 0 20 0 8 -10 14 -20 24 -49 56 -55 44 -86 54 rrcurveto
            106 114 28 142 106 -74 50 -106 -181 -99 -175 -151 hvcurveto
            0 -79 7 -83 17 -68 2 -6 11 -24 17 0 rrcurveto
            return
          </CharString>
          <CharString index="68">
            264 106 40 80 hvcurveto
            0 86 -130 16 -99 41 -61 26 -50 35 0 68 rrcurveto
            81 84 53 95 vhcurveto
            return
          </CharString>
          <CharString index="69">
            38 28 -22 -32 hvcurveto
            0 -10 -3 -7 -20 -20 -19 -19 -11 -14 0 -10 0 -20 10 -10 20 0 9 0 13 9 20 20 19 19 22 29 0 33 rrcurveto
            68 -56 46 -71 -129 -109 -82 -110 vhcurveto
            0 -99 69 -54 77 -32 rrcurveto
            return
          </CharString>
          <CharString index="70">
            94 -39 100 -20 0 -30 rrcurveto
            -20 -50 -40 -260 -20 -10 -10 -20 vhcurveto
            -20 10 -10 20 vhcurveto
            return
          </CharString>
          <CharString index="71">
            13 17 20 20 hvcurveto
            0 20 -14 17 -16 3 -127 26 -128 20 -125 0 rrcurveto
            -20 -10 -10 -20 -20 10 -10 20 hvcurveto
            120 0 137 -22 23 -4 -92 -38 -68 -102 0 -120 rrcurveto
            -210 vlineto
            -20 10 -10 20 20 10 10 20 vhcurveto
            210 vlineto
            120 80 100 120 vhcurveto
            return
          </CharString>
          <CharString index="72">
            -11 -16 -10 -20 hvcurveto
            0 -3 1 -6 0 -2 12 -47 5 -26 0 -48 rrcurveto
            -162 -73 -204 -115 -87 -5 135 107 vhcurveto
            0 30 0 73 17 84 rrcurveto
            return
          </CharString>
          <CharString index="73">
            0 4 3 9 0 6 0 20 -10 10 -20 0 -10 0 -16 -9 -4 -21 rrcurveto
            return
          </CharString>
          <CharString index="74">
            -18 -93 -2 -71 0 -42 rrcurveto
            -135 13 -165 139 167 81 249 175 vhcurveto
            0 53 -7 34 -11 45 rrcurveto
            -5 20 -9 10 -19 0 rrcurveto
            return
          </CharString>
          <CharString index="75">
            -28 80 -47 191 -12 120 -2 20 -12 10 -16 0 rrcurveto
            -20 -10 -10 -20 -6 1 -6 0 hvcurveto
            11 -114 50 -203 28 -80 10 -31 21 -56 59 0 40 0 20 30 10 30 30 90 34 245 80 140 4 7 2 9 0 5 0 20 -10 10 -20 0 rrcurveto
            -13 0 -9 -10 -8 -14 -80 -140 -36 -250 -30 -90 -5 -15 -3 -7 -6 0 -20 0 -6 25 -7 20 rrcurveto
            return
          </CharString>
          <CharString index="76">
            20 -10 10 -20 vhcurveto
            -18 0 -7 -10 -5 -20 -50 -185 -30 -311 -20 0 -30 0 -56 295 -22 45 -9 19 -8 41 -50 0 -46 0 -14 -40 -6 -20 -19 -64 -17 -276 -23 0 rrcurveto
            -30 0 -72 279 -18 160 -2 20 -11 7 -17 0 -20 0 -10 -9 0 -21 0 -7 1 -1 1 -8 17 -147 55 -213 31 -60 12 -24 15 -36 48 0 rrcurveto
            44 0 15 40 8 20 25 62 13 278 20 0 20 0 40 -242 41 -98 8 -20 23 -40 43 0 40 0 11 24 10 22 27 56 22 266 48 171 rrcurveto
            2 8 0 5 0 4 rrcurveto
            return
          </CharString>
          <CharString index="77">
            14 0 9 11 7 19 21 57 58 92 44 72 13 -20 109 -151 13 -20 13 -20 9 -10 10 0 20 0 10 10 0 20 0 7 -2 9 -11 18 rrcurveto
            -13 20 -123 172 -13 20 rrcurveto
            116 187 rlineto
            4 6 12 17 0 11 0 21 -10 8 -20 0 -20 0 -16 -29 -4 -7 rrcurveto
            -100 -160 rlineto
            -13 20 -109 153 -13 20 -10 15 -11 18 -14 0 -20 0 -10 -10 0 -20 0 -8 3 -9 11 -17 13 -20 125 -177 13 -20 -57 -91 -60 -106 -23 -51 rrcurveto
            -5 -11 0 -10 0 -6 0 -20 10 -10 20 0 rrcurveto
            return
          </CharString>
          <CharString index="78">
            15 0 8 7 8 20 rrcurveto
            141 351 rlineto
            25 60 8 41 0 31 0 20 -10 10 -20 0 -14 0 -8 -10 -9 -20 -19 -42 -55 -30 -35 0 -92 0 -44 85 -34 39 -5 6 -12 18 -14 0 rrcurveto
            -20 -9 -10 -20 hvcurveto
            0 -8 10 -19 3 -3 34 -46 62 -102 121 0 37 0 26 12 17 10 rrcurveto
            -138 -346 rlineto
            -3 -8 -4 -9 0 -7 0 -20 10 -10 20 0 rrcurveto
            return
          </CharString>
          <CharString index="79">
            88 88 30 30 30 0 20 0 16 -82 4 -20 4 -20 7 -10 20 0 20 0 9 10 0 20 0 1 0 4 -2 7 -6 30 -14 120 -78 0 rrcurveto
            -61 0 -41 -48 -88 -87 -18 -17 -12 -15 0 -11 0 -24 13 -6 17 0 12 0 10 11 20 19 rrcurveto
            return
          </CharString>
          <CharString index="80">
            54 0 86 -8 100 0 rrcurveto
            return
          </CharString>
          <CharString index="81">
            -100 0 -40 -8 -100 0 rrcurveto
            return
          </CharString>
          <CharString index="82">
            -100 0 -86 8 -54 0 rrcurveto
            -20 -10 -10 -20 hvcurveto
            -20 10 -10 20 vhcurveto
            return
          </CharString>
          <CharString index="83">
            0 -11 10 -10 20 -16 20 -16 58 -52 30 -60 10 -20 11 -10 11 0 20 0 10 10 0 20 0 6 -2 9 -5 9 -30 60 -65 66 -20 16 rrcurveto
            -19 16 -19 14 -10 0 -20 0 -10 -14 0 -17 rrcurveto
            return
          </CharString>
          <CharString index="84">
            -20 0 -4 46 -12 40 -14 47 -4 14 -34 0 -14 0 -2 -21 -27 -39 -16 -23 -73 -66 -90 0 rrcurveto
            -20 -20 20 20 110 122 70 60 hvcurveto
            48 0 12 -20 20 0 rrcurveto
            20 10 10 20 20 -46 30 -64 -101 -141 -103 -137 -54 46 -46 54 hvcurveto
            112 0 95 81 15 26 6 -20 7 -85 75 0 16 0 4 2 12 4 25 8 5 10 0 14 rrcurveto
            return
          </CharString>
          <CharString index="85">
            20 -10 10 -20 vhcurveto
            -4 0 -21 -8 -7 0 rrcurveto
            return
          </CharString>
          <CharString index="86">
            84 0 66 24 12 4 25 8 5 10 0 14 0 20 -10 10 -20 0 -4 0 -14 -5 -6 -2 -18 -6 -50 -17 -70 0 rrcurveto
            -60 hlineto
            -72 -28 26 54 75 55 85 75 hvcurveto
            20 0 21 -7 14 -7 10 -5 8 -1 7 0 20 0 10 10 0 20 0 11 -11 10 -18 9 -22 11 -29 9 -30 0 rrcurveto
            -97 -93 -100 -120 -72 40 -68 120 hvcurveto
            return
          </CharString>
          <CharString index="87">
            0 -14 2 -15 13 -17 48 -68 96 -99 38 -61 -16 8 -53 8 -16 0 rrcurveto
            -88 -124 -84 -154 -52 39 -38 61 84 188 125 149 hvcurveto
            0 35 -15 21 -8 13 -48 77 -141 146 0 20 0 20 190 19 20 3 20 3 10 18 0 9 0 23 -15 7 -15 0 -3 0 -6 0 -4 -1 rrcurveto
            -13 -2 -104 -7 -80 -22 -31 -8 -29 -25 0 -37 rrcurveto
            return
          </CharString>
          <CharString index="88">
            -35 -115 -132 -69 -42 0 rrcurveto
            -20 -20 10 20 123 100 55 52 hvcurveto
            24 0 53 -14 20 -10 rrcurveto
            return
          </CharString>
          <CharString index="89">
            47 -43 67 -15 60 0 84 0 66 24 12 4 25 8 5 10 0 14 0 20 -10 10 -20 0 -4 0 -14 -5 -6 -2 -18 -6 -50 -17 -70 0 rrcurveto
            -60 0 -35 16 -18 13 101 50 102 53 0 78 rrcurveto
            54 -43 36 -67 -60 -120 -86 -132 vhcurveto
            0 -8 0 -10 4 -9 rrcurveto
            return
          </CharString>
          <CharString index="90">
            -10 -5 -27 -15 -9 -4 rrcurveto
            return
          </CharString>
          <CharString index="91">
            -20 -8 -10 -7 0 -16 rrcurveto
            return
          </CharString>
          <CharString index="92">
            -20 10 -10 20 vhcurveto
            8 0 5 1 16 7 rrcurveto
            16 7 13 8 10 5 rrcurveto
            return
          </CharString>
          <CharString index="93">
            95 90 63 30 30 20 -10 -20 vhcurveto
            0 -34 -70 -44 -100 -50 rrcurveto
            return
          </CharString>
          <CharString index="94">
            -63 -57 -46 -66 0 -50 rrcurveto
            -64 46 -48 64 63 63 87 63 vhcurveto
            0 41 -20 41 -27 42 37 27 43 25 43 14 25 8 5 10 0 14 0 20 -10 10 -20 0 -4 0 -14 -5 -6 -2 -44 -15 -46 -25 -43 -32 rrcurveto
            return
          </CharString>
          <CharString index="95">
            -58 76 -67 73 0 60 0 36 14 44 36 0 26 0 24 -18 10 -42 5 -20 11 -10 14 0 20 0 10 10 0 20 0 4 -1 8 -1 4 rrcurveto
            -16 70 -54 34 -48 0 -72 0 -38 -68 0 -72 rrcurveto
            0 -82 79 -86 60 -79 rrcurveto
            return
          </CharString>
          <CharString index="96">
            20 -31 13 -29 0 -26 rrcurveto
            -30 -36 -60 -30 vhcurveto
            return
          </CharString>
          <CharString index="97">
            -32 -18 20 32 hvcurveto
            0 28 33 49 50 47 rrcurveto
            return
          </CharString>
          <CharString index="98">
            25 8 5 10 0 14 rrcurveto
            return
          </CharString>
          <CharString index="99">
            20 -10 10 -20 vhcurveto
            -4 0 -14 -5 -6 -2 rrcurveto
            return
          </CharString>
          <CharString index="100">
            -6 -2 -16 -1 -16 0 rrcurveto
            -20 -10 10 20 138 -45 32 -45 hvcurveto
            return
          </CharString>
          <CharString index="101">
            30 30 48 56 20 0 48 0 -42 -180 114 0 30 0 40 14 12 4 25 8 5 10 0 14 0 20 -10 10 -20 0 -4 0 -14 -5 -6 -2 rrcurveto
            -12 -4 -26 -9 -20 0 -48 0 42 180 -114 0 -54 0 -54 -72 -30 -30 -20 -20 -44 -29 -20 -8 -20 -8 -10 -7 0 -16 rrcurveto
            return
          </CharString>
          <CharString index="102">
            -20 10 -10 20 vhcurveto
            8 0 5 1 16 7 rrcurveto
            16 7 49 29 30 30 rrcurveto
            return
          </CharString>
          <CharString index="103">
            -14 73 -16 87 -30 138 -4 21 -8 13 -20 0 -20 0 -10 -10 0 -20 0 -3 1 -6 2 -8 29 -138 20 -101 14 -74 -71 -39 -63 -49 0 -72 rrcurveto
            -79 74 -73 60 56 34 50 56 vhcurveto
            0 22 -2 35 -21 115 74 35 79 24 8 3 25 8 5 10 0 14 0 20 -10 10 -20 0 -4 0 -14 -5 -6 -2 -13 -4 -66 -20 -69 -31 rrcurveto
            return
          </CharString>
          <CharString index="104">
            17 -100 3 -32 0 -11 rrcurveto
            -20 -10 -26 -20 -26 -48 46 46 vhcurveto
            0 35 40 35 44 27 rrcurveto
            return
          </CharString>
          <CharString index="105">
            30 0 40 14 12 4 25 8 5 10 0 14 0 20 -10 10 -20 0 -4 0 -14 -5 -6 -2 -12 -4 -26 -9 -20 0 rrcurveto
            -30 -20 47 51 20 -10 12 -20 -20 -10 -12 -20 -75 35 -83 75 hvcurveto
            return
          </CharString>
          <CharString index="106">
            0 4 1 11 0 2 0 20 -10 10 -20 0 -18 0 -10 -10 -2 -19 -14 -149 -6 -29 0 -212 0 -61 30 -123 30 0 37 0 3 43 12 45 rrcurveto
            8 30 52 97 118 0 rrcurveto
            20 10 10 20 20 -10 10 -20 hvcurveto
            -127 0 -73 -88 -25 -55 -3 15 -2 18 0 19 0 193 4 34 15 145 rrcurveto
            return
          </CharString>
          <CharString index="107">
            54 0 66 24 12 4 25 8 5 10 0 14 0 20 -10 10 -20 0 -4 0 -14 -5 -6 -2 -18 -6 -50 -17 -40 0 -54 0 -39 79 -18 40 rrcurveto
            42 34 109 110 0 217 rrcurveto
            48 -16 100 -74 -80 -80 -147 -181 vhcurveto
            0 -46 6 -62 16 -52 -54 -44 -90 -57 -20 -8 -20 -8 -10 -7 0 -16 rrcurveto
            return
          </CharString>
          <CharString index="108">
            -20 10 -10 20 vhcurveto
            8 0 5 1 16 7 16 7 92 55 54 44 rrcurveto
            18 -40 53 -104 90 0 rrcurveto
            return
          </CharString>
          <CharString index="109">
            20 10 -56 -32 hvcurveto
            0 -184 -84 -91 -31 -28 -9 32 -6 53 0 38 rrcurveto
            183 80 85 20 vhcurveto
            return
          </CharString>
          <CharString index="110">
            -92 0 -34 -140 -54 0 -8 0 -6 35 -9 47 -14 72 -9 66 -64 0 -51 0 -31 -49 -27 -67 rrcurveto
            return
          </CharString>
          <CharString index="111">
            34 0 30 12 18 6 rrcurveto
            return
          </CharString>
          <CharString index="112">
            -12 -4 -25 -9 -21 0 -8 0 -5 18 -5 18 -10 40 -9 74 -63 0 rrcurveto
            return
          </CharString>
          <CharString index="113">
            -100 0 -1 -160 -49 0 -50 0 50 210 -120 0 -60 0 -4 -29 -69 -113 rrcurveto
            return
          </CharString>
          <CharString index="114">
            -12 -20 -17 -10 -20 -7 rrcurveto
            return
          </CharString>
          <CharString index="115">
            -20 10 -10 20 vhcurveto
            8 0 5 1 16 7 16 7 29 11 26 40 64 105 -2 9 20 0 rrcurveto
            return
          </CharString>
          <CharString index="116">
            50 0 -50 -210 120 0 100 0 3 160 47 0 8 0 7 -31 10 -39 rrcurveto
            10 -39 17 -41 48 0 rrcurveto
            return
          </CharString>
          <CharString index="117">
            -14 0 -8 -10 -8 -20 rrcurveto
            return
          </CharString>
          <CharString index="118">
            -8 -20 -2 -10 0 -30 rrcurveto
            -42 63 -128 187 66 84 49 91 119 -68 81 -102 vhcurveto
            -28 0 -30 -10 -22 -13 -18 -11 -12 -12 0 -14 0 -20 10 -10 20 0 20 0 18 30 42 0 rrcurveto
            70 40 -58 -82 -56 -55 -24 -35 -142 -48 90 20 hvcurveto
            0 20 3 11 4 10 rrcurveto
            return
          </CharString>
          <CharString index="119">
            2 5 1 8 0 6 rrcurveto
            20 -10 10 -20 vhcurveto
            return
          </CharString>
          <CharString index="120">
            -8 -16 -41 -19 -20 -8 -20 -8 -10 -7 0 -16 0 -20 10 -10 20 0 8 0 5 1 16 7 16 7 57 21 20 40 15 30 9 164 56 0 rrcurveto
            69 51 -33 -47 -93 26 -127 96 hvcurveto
            return
          </CharString>
          <CharString index="121">
            -12 -4 -40 -19 -24 0 rrcurveto
            -40 -22 82 78 83 -81 57 -100 hvcurveto
            -112 0 -10 -206 -10 -20 rrcurveto
            return
          </CharString>
          <CharString index="122">
            -20 -16 -42 -20 -20 -8 -20 -8 -10 -7 0 -16 0 -20 10 -10 20 0 8 0 5 1 16 7 16 7 40 15 35 28 60 48 49 60 32 28 rrcurveto
            16 14 25 12 20 0 rrcurveto
            30 90 -28 -82 -30 -60 -50 -120 -20 -10 -10 -20 -20 10 -10 20 150 90 68 72 121 -122 49 -58 hvcurveto
            -32 0 -38 -14 -32 -28 -40 -35 -38 -50 -60 -48 rrcurveto
            return
          </CharString>
          <CharString index="123">
            0 -100 -103 -71 -19 -8 -20 -8 -10 -7 0 -16 0 -20 10 -10 20 0 8 0 5 1 16 7 9 4 63 39 42 66 34 -92 68 -55 57 0 rrcurveto
            69 0 21 100 20 50 2 4 4 14 4 12 2 -10 0 -7 4 -13 rrcurveto
            return
          </CharString>
          <CharString index="124">
            21 -68 21 -62 62 0 rrcurveto
            return
          </CharString>
          <CharString index="125">
            20 0 20 4 12 4 rrcurveto
            return
          </CharString>
          <CharString index="126">
            -6 -2 -14 -1 -8 0 -42 0 -22 198 -4 20 -4 24 -8 6 -20 0 -20 0 -12 -10 -6 -20 rrcurveto
            return
          </CharString>
          <CharString index="127">
            -6 -20 -60 -218 -26 0 rrcurveto
            -64 -56 110 100 17 -10 13 -20 hvcurveto
            -20 -10 -14 -16 hvcurveto
            return
          </CharString>
          <CharString index="128">
            32 0 33 23 20 37 44 82 32 114 3 14 5 19 13 11 12 0 20 0 36 -17 20 -8 8 -3 7 -2 9 0 24 0 6 15 0 15 rrcurveto
            0 11 -10 11 -20 8 -20 8 -45 22 -36 0 -41 0 -33 -26 -13 -50 -4 -20 -60 -204 -42 0 -74 0 -6 126 -16 125 rrcurveto
            return
          </CharString>
          <CharString index="129">
            -3 21 -7 8 -20 0 -20 0 -10 -10 0 -20 0 -8 0 -5 1 -7 rrcurveto
            15 -114 10 -176 130 0 rrcurveto
            return
          </CharString>
          <CharString index="130">
            20 -10 10 -20 -20 -10 -10 -20 -156 -28 -84 -52 -54 -86 96 54 vhcurveto
            0 20 4 17 5 11 2 5 4 12 0 5 0 20 -11 10 -20 0 -11 0 -9 -10 -10 -20 -10 -20 -4 -20 0 -30 0 -38 19 -34 5 -9 rrcurveto
            return
          </CharString>
          <CharString index="131">
            -46 -37 -68 -61 -90 -1 -42 0 -28 48 0 112 0 27 9 44 8 20 2 5 1 9 0 5 0 20 -10 10 -20 0 -16 0 -6 -10 -8 -20 rrcurveto
            -10 -25 -10 -51 0 -34 0 -107 26 -113 104 0 107 0 87 74 46 36 rrcurveto
            return
          </CharString>
          <CharString index="132">
            18 -20 54 -60 68 0 rrcurveto
            78 62 70 230 hvcurveto
            return
          </CharString>
          <CharString index="133">
            20 -10 10 -20 vhcurveto
            -18 0 -8 -20 -4 -10 -52 -102 -36 -48 -92 0 -30 0 -24 150 -6 60 -2 20 -7 10 -21 0 rrcurveto
            -24 -6 -10 -20 -5 1 -5 0 hvcurveto
            5 -50 13 -86 25 -64 14 -37 28 -23 34 0 120 0 42 70 15 20 0 -13 -12 -241 -22 -102 -4 -20 -9 -26 -20 0 -60 0 -10 49 0 65 rrcurveto
            0 32 9 22 21 24 9 10 21 9 0 11 rrcurveto
            20 -10 10 -20 -53 -37 -80 -58 -98 34 -76 96 vhcurveto
            55 0 25 43 10 47 23 104 17 224 0 164 rrcurveto
            return
          </CharString>
          <CharString index="134">
            -20 10 -10 20 168 52 -20 -20 vhcurveto
            0 -31 -60 -88 0 -81 0 -108 110 -90 0 -55 rrcurveto
            -43 -34 -16 -46 -66 -34 30 30 vhcurveto
            0 21 21 11 19 12 15 9 15 10 0 9 rrcurveto
            20 -13 10 -17 -21 -79 -30 -72 -64 64 -56 96 82 58 44 76 vhcurveto
            0 87 -110 70 0 95 rrcurveto
            return
          </CharString>
          <CharString index="135">
            0 67 60 81 0 52 rrcurveto
            66 -60 34 -220 vhcurveto
            -20 -10 -10 -20 hvcurveto
            return
          </CharString>
          <CharString index="136">
            -20 10 -10 20 vhcurveto
            30 0 11 48 49 0 rrcurveto
            return
          </CharString>
          <CharString index="137">
            36 0 42 -38 42 0 rrcurveto
            return
          </CharString>
          <CharString index="138">
            78 22 63 35 24 -15 6 -15 hvcurveto
            -24 0 -3 -14 -3 -16 rrcurveto
            return
          </CharString>
          <CharString index="139">
            -4 -20 -3 -18 -33 0 rrcurveto
            return
          </CharString>
          <CharString index="140">
            -20 0 -49 38 -51 0 rrcurveto
            -63 -57 -58 -20 hvcurveto
            return
          </CharString>
          <CharString index="141">
            -20 10 -10 20 20 10 10 20 vhcurveto
            return
          </CharString>
          <CharString index="142">
            -11 -9 10 20 20 20 10 30 hvcurveto
            5 0 4 0 8 -3 rrcurveto
            -15 -28 -16 -29 -16 0 rrcurveto
            return
          </CharString>
          <CharString index="143">
            20 -10 10 -20 vhcurveto
            -7 0 -14 -4 -9 -5 -9 -5 -54 -16 -17 0 -77 0 -44 29 -31 12 rrcurveto
            45 99 181 0 rlineto
            20 10 10 20 20 -10 10 -20 hvcurveto
            -159 0 109 274 rlineto
            4 10 0 7 0 5 0 20 -11 10 -20 0 -16 0 -5 -10 -8 -20 rrcurveto
            -118 -296 -44 0 rlineto
            -20 -10 -10 -20 -20 15 -10 15 hvcurveto
            21 0 -33 -73 rlineto
            -14 6 -12 3 -18 0 rrcurveto
            -59 -51 -33 -57 hvcurveto
            return
          </CharString>
          <CharString index="144">
            -52 33 -38 48 vhcurveto
            46 0 41 64 14 27 rrcurveto
            return
          </CharString>
          <CharString index="145">
            32 -13 60 -34 86 0 30 0 62 20 18 10 rrcurveto
            18 10 12 12 0 8 rrcurveto
            return
          </CharString>
          <CharString index="146">
            33 20 17 41 0 50 rrcurveto
            138 -115 204 -165 -176 -134 -204 -132 -152 82 -98 190 vhcurveto
            129 0 107 57 32 76 rrcurveto
            return
          </CharString>
          <CharString index="147">
            -20 -4 -10 -10 0 -16 rrcurveto
            -20 10 -10 20 2 8 1 0 vhcurveto
            20 4 100 15 210 0 rrcurveto
            20 10 10 20 20 -10 10 -20 hvcurveto
            -210 0 -110 -16 -20 -4 rrcurveto
            return
          </CharString>
          <CharString index="148">
            -38 -29 -2 -31 -26 -24 17 23 40 20 28 30 33 27 -39 -29 vhcurveto
            return
          </CharString>
          <CharString index="149">
            -68 -42 -56 -72 -45 42 -55 68 88 32 48 52 66 -59 62 -61 hvcurveto
            return
          </CharString>
          <CharString index="150">
            20 10 10 20 20 -10 10 -20 hvcurveto
            -80 hlineto
            -20 -20 10 20 hvcurveto
            0 41 90 57 0 72 rrcurveto
            53 -37 35 -53 -36 -34 -20 -30 -20 10 -10 20 vhcurveto
            20 0 0 20 20 0 20 0 10 -10 0 -20 0 -41 -90 -57 0 -72 0 -53 47 -35 53 0 rrcurveto
            return
          </CharString>
          <CharString index="151">
            -30 34 -20 36 42 68 38 72 vhcurveto
            0 54 -64 42 0 20 rrcurveto
            return
          </CharString>
          <CharString index="152">
            0 20 54 22 0 50 rrcurveto
            53 -37 37 -53 -36 -34 -20 -30 -24 13 -6 17 vhcurveto
            20 0 0 20 20 0 20 0 10 -10 0 -20 rrcurveto
            return
          </CharString>
          <CharString index="153">
            0 -20 -54 -16 0 -56 0 -51 64 -39 0 -26 0 -30 -31 -20 -20 0 -20 0 1 20 -20 0 rrcurveto
            -20 -10 -10 -20 hvcurveto
            return
          </CharString>
          <CharString index="154">
            12 0 11 10 17 20 29 35 71 67 50 20 12 5 18 13 0 12 0 20 -10 10 -20 0 -14 0 -1 -2 -10 -4 -60 -24 -64 -60 -45 -51 rrcurveto
            -17 -20 -9 -7 0 -14 0 -20 10 -10 20 0 rrcurveto
            return
          </CharString>
          <CharString index="155">
            17 -10 13 -20 -20 -10 -10 -19 -150 -54 -121 -46 -37 -60 210 20 20 -8 10 -20 vhcurveto
            -20 0 -10 -12 -2 -18 rrcurveto
            -62 -562 rlineto
            0 -1 -5 -5 -24 10 -6 20 hvcurveto
            20 0 8 10 2 20 rrcurveto
            46 415 rlineto
            27 -69 27 -64 60 0 rrcurveto
            105 55 180 150 hvcurveto
            return
          </CharString>
          <CharString index="156">
            -20 15 -30 25 20 20 16 22 30 -22 20 -22 -20 -16 -8 -30 vhcurveto
            return
          </CharString>
          <CharString index="157">
            4 0 3 0 5 1 55 11 63 20 0 68 0 55 -44 45 -6 6 -6 6 -24 24 0 24 rrcurveto
            20 -10 10 -20 -20 -10 -10 -20 vhcurveto
            0 -36 24 -36 18 -18 24 -24 14 -16 0 -30 0 -30 -50 -6 -20 -4 -20 -4 -10 -6 0 -20 0 -20 10 -10 20 0 rrcurveto
            return
          </CharString>
          <CharString index="158">
            5 20 15 60 0 30 rrcurveto
            158 vlineto
            20 -10 10 -20 -20 -10 -10 -20 vhcurveto
            -158 vlineto
            0 -25 -14 -53 -5 -20 -1 -4 0 -4 0 -4 0 -20 10 -10 20 0 16 0 10 14 4 16 rrcurveto
            return
          </CharString>
          <CharString index="159">
            0 4 -1 5 -1 5 rrcurveto
            return
          </CharString>
          <CharString index="160">
            -6 20 -2 20 0 16 rrcurveto
            return
          </CharString>
          <CharString index="161">
            0 20 10 30 0 30 0 14 -6 16 -24 0 -13 0 -13 -11 -4 -19 -2 -8 -8 -22 -20 0 -20 0 -10 10 0 20 0 48 18 31 30 45 rrcurveto
            10 15 8 9 0 10 0 20 -10 10 -20 0 -20 0 -8 -15 -10 -15 -31 -47 -27 -39 0 -72 0 -54 36 -36 54 0 rrcurveto
            return
          </CharString>
          <CharString index="162">
            8 0 6 3 6 7 rrcurveto
            return
          </CharString>
          <CharString index="163">
            0 -20 1 -20 9 -30 6 -20 6 -10 18 0 rrcurveto
            20 10 10 20 hvcurveto
            return
          </CharString>
          <CharString index="164">
            -86 -337 rlineto
            -8 -32 -6 -27 0 -40 rrcurveto
            -20 10 -10 20 20 10 10 20 vhcurveto
            0 20 5 32 5 20 rrcurveto
            85 335 rlineto
            3 12 2 11 0 6 0 20 -10 10 -20 0 -14 0 -11 -10 -5 -20 rrcurveto
            return
          </CharString>
          <CharString index="165">
            -30 0 -45 -15 -12 -60 -12 -60 -31 -157 -56 -112 -5 -9 -2 -9 0 -8 0 -20 10 -10 20 0 18 0 4 11 9 19 60 120 35 180 8 40 rrcurveto
            4 20 5 10 20 0 21 0 51 -121 20 -82 -113 -7 -12 -44 0 -26 rrcurveto
            -54 70 -66 50 38 42 36 54 vhcurveto
            0 13 -1 17 -3 20 rrcurveto
            14 hlineto
            20 10 16 14 15 -10 15 -20 hvcurveto
            -25 hlineto
            -22 100 -63 160 -67 0 rrcurveto
            return
          </CharString>
          <CharString index="166">
            3 -17 1 -16 0 -15 rrcurveto
            -14 -6 -16 -14 -20 -40 40 20 vhcurveto
            0 9 32 6 44 3 rrcurveto
            return
          </CharString>
          <CharString index="167">
            8 0 5 0 12 8 48 32 33 52 12 18 8 12 4 8 0 8 0 20 -10 10 -20 0 -11 0 -9 -8 -12 -18 -12 -18 -32 -46 -32 -20 rrcurveto
            -18 -12 -4 -8 0 -8 0 -20 10 -10 20 0 rrcurveto
            return
          </CharString>
          <CharString index="168">
            50 50 28 28 30 0 20 0 16 -58 4 -20 4 -20 7 -10 20 0 20 0 9 10 0 20 0 1 0 4 -2 7 -6 30 -24 96 -68 0 rrcurveto
            -61 0 -39 -45 -50 -50 -18 -18 -12 -14 0 -11 0 -24 13 -6 17 0 12 0 10 10 20 20 rrcurveto
            return
          </CharString>
          <CharString index="169">
            20 10 16 20 20 20 -10 -20 -20 -10 -20 -20 vhcurveto
            -20 -20 14 20 hvcurveto
            return
          </CharString>
          <CharString index="170">
            22 -76 26 -74 30 -53 11 -19 6 -5 13 0 20 0 10 10 0 20 0 5 -2 9 -4 7 -29 53 -23 64 -19 64 rrcurveto
            return
          </CharString>
          <CharString index="171">
            31 -9 36 -6 77 0 7 0 11 0 14 1 rrcurveto
            return
          </CharString>
          <CharString index="172">
            28 119 34 110 19 0 14 0 19 -118 33 -126 rrcurveto
            -16 hlineto
            -71 0 -38 8 -22 7 rrcurveto
            return
          </CharString>
          <CharString index="173">
            -14 7 -16 23 15 15 6 24 vhcurveto
            0 37 1 59 2 61 29 -6 54 -6 148 0 rrcurveto
            20 10 10 20 20 -10 10 -20 hvcurveto
            -174 0 -36 8 -19 6 rrcurveto
            return
          </CharString>
          <CharString index="174">
            4 132 rlineto
            159 3 85 13 17 3 20 4 10 10 0 16 rrcurveto
            20 -10 10 -20 -2 -8 -1 0 vhcurveto
            -17 -3 -77 -12 -157 -3 -3 13 -10 6 -16 0 -16 0 -10 -7 -3 -13 rrcurveto
            -21 hlineto
            -20 -10 -10 -20 hvcurveto
            0 -14 1 -3 2 -12 1 -6 12 -27 9 -58 rrcurveto
            5 -32 10 -122 0 -106 rrcurveto
            return
          </CharString>
          <CharString index="175">
            43 0 26 4 41 5 16 2 14 12 0 16 0 20 -11 10 -19 0 -5 0 -7 -1 -8 -1 -27 -4 -38 -3 -25 0 -67 2 -14 7 -18 6 rrcurveto
            -6 2 -11 2 -4 0 -20 0 -10 -9 0 -20 0 -16 9 -8 21 -7 33 -11 40 -8 47 0 rrcurveto
            return
          </CharString>
          <CharString index="176">
            20 10 10 20 hvcurveto
            0 8 -4 8 -18 12 -32 20 -32 46 -12 18 -12 18 -9 8 -11 0 -20 0 -10 -10 0 -20 0 -8 4 -8 8 -12 12 -18 33 -52 48 -32 rrcurveto
            12 -8 5 0 8 0 rrcurveto
            return
          </CharString>
          <CharString index="177">
            0 11 -10 10 -20 16 -20 16 -58 52 -30 60 -10 20 -11 10 -11 0 -20 0 -10 -10 0 -20 0 -6 2 -9 5 -9 30 -60 65 -66 20 -16 rrcurveto
            19 -16 19 -14 10 0 20 0 10 14 0 17 rrcurveto
            return
          </CharString>
          <CharString index="178">
            0 4 -1 5 -1 5 -10 40 -7 25 -2 30 rrcurveto
            return
          </CharString>
          <CharString index="179">
            -2 32 -7 113 0 106 rrcurveto
            return
          </CharString>
          <CharString index="180">
            20 -10 10 -20 vhcurveto
            return
          </CharString>
          <CharString index="181">
            -20 -10 -10 -20 hvcurveto
            0 -108 7 -119 2 -32 rrcurveto
            return
          </CharString>
          <CharString index="182">
            2 -30 8 -27 11 -44 rrcurveto
            return
          </CharString>
          <CharString index="183">
            5 -19 9 -11 16 0 rrcurveto
            20 10 10 20 hvcurveto
            return
          </CharString>
          <CharString index="184">
            20 -10 10 -20 vhcurveto
            -16 0 -10 -11 -6 -19 -14 -40 -27 -70 -46 -46 -6 -6 -5 -8 0 -8 0 -22 15 -8 15 0 8 0 10 4 6 6 52 52 32 76 17 50 rrcurveto
            3 9 2 8 0 3 rrcurveto
            return
          </CharString>
          <CharString index="185">
            2 -67 7 -62 4 -18 5 -20 5 -10 21 0 23 0 7 15 0 15 0 4 -1 5 -1 6 -5 18 -6 67 -1 54 32 3 34 3 24 0 rrcurveto
            19 11 13 17 20 -11 10 -19 hvcurveto
            -23 0 -34 -3 -32 -3 1 48 5 26 9 36 3 12 9 28 41 14 11 4 30 4 20 0 66 0 84 -66 0 -60 0 -150 -170 -74 -126 -114 rrcurveto
            -20 -18 -10 -10 0 -10 0 -22 10 -9 20 0 20 0 9 13 20 18 120 108 187 81 0 189 0 89 -106 95 -104 0 -20 0 -41 -4 -21 -7 rrcurveto
            -52 -17 -28 -42 -8 -28 -13 -47 -5 -43 -2 -51 rrcurveto
            -50 -7 rlineto
            -20 -3 -10 -10 0 -18 0 -20 10 -9 20 0 3 0 4 1 3 0 0 0 25 3 15 3 rrcurveto
            return
          </CharString>
          <CharString index="186">
            -4 -20 -24 -140 0 -110 0 -24 4 -22 6 -24 5 -20 9 -10 16 0 20 0 10 10 0 20 0 4 -1 8 -1 4 -4 16 -4 18 0 20 rrcurveto
            0 110 23 130 4 20 4 20 5 20 14 0 20 0 10 -22 2 -20 2 -20 7 -148 35 -100 14 -39 30 -21 30 0 31 0 30 22 13 38 rrcurveto
            26 76 20 124 0 100 0 14 6 20 6 12 6 12 2 10 0 2 0 17 -10 13 -20 0 -14 0 -8 -10 -10 -20 -10 -20 -8 -22 0 -28 rrcurveto
            -100 -30 -200 -30 vhcurveto
            -40 0 -17 250 -3 30 -6 56 -43 34 -41 0 -48 0 -24 -37 -10 -53 rrcurveto
            return
          </CharString>
          <CharString index="187">
            16 16 17 3 16 0 rrcurveto
            return
          </CharString>
          <CharString index="188">
            30 0 24 -40 54 0 54 0 40 30 14 42 1 3 1 7 0 6 0 20 -10 10 -20 0 -16 0 -8 -9 -7 -21 -7 -21 -22 -7 -20 0 rrcurveto
            return
          </CharString>
          <CharString index="189">
            -30 0 -24 40 -54 0 -34 0 -32 -11 -24 -24 -8 -8 -4 -9 0 -8 0 -20 10 -10 20 0 rrcurveto
            8 0 7 3 8 8 rrcurveto
            return
          </CharString>
          <CharString index="190">
            20 0 13 18 30 0 rrcurveto
            42 31 -66 -54 -100 -60 -120 -100 -72 -48 50 100 hvcurveto
            return
          </CharString>
          <CharString index="191">
            63 47 112 63 vhcurveto
            10 0 14 -1 10 -2 rrcurveto
            return
          </CharString>
          <CharString index="192">
            -8 1 -5 1 -19 0 rrcurveto
            -100 -70 -135 -100 -132 76 -78 104 134 86 145 135 hvcurveto
            return
          </CharString>
          <CharString index="193">
            72 -49 108 -84 vhcurveto
            -39 0 -9 -12 -17 -5 rrcurveto
            return
          </CharString>
          <CharString index="194">
            20 20 13 13 0 11 0 20 -10 10 -20 0 -12 0 -12 -10 -20 -20 rrcurveto
            -54 -54 rlineto
            -17 24 -5 20 -10 20 -10 20 -11 10 -9 0 -20 0 -10 -10 0 -20 0 -4 3 -14 5 -10 10 -20 12 -30 20 -28 rrcurveto
            -40 -40 rlineto
            -20 -20 -10 -10 0 -14 0 -20 10 -10 20 0 8 0 28 24 5 6 rrcurveto
            40 40 rlineto
            11 -11 30 -22 20 -10 10 -5 12 -2 6 0 20 0 10 10 0 20 0 11 -10 9 -20 10 -20 10 -18 14 -9 8 rrcurveto
            return
          </CharString>
          <CharString index="195">
            6 26 rlineto
            1 5 7 33 0 8 0 20 -9 10 -20 0 -20 0 -7 -8 -4 -20 -4 -20 -6 -27 -6 -27 -28 -2 -25 -8 -14 -11 rrcurveto
            return
          </CharString>
          <CharString index="196">
            -10 1 -6 1 -22 0 -130 0 -72 -210 0 -87 0 -134 40 -90 89 -32 -6 -20 -8 -28 -2 -8 -3 -11 -7 -30 0 -11 0 -20 10 -10 20 0 rrcurveto
            18 0 10 23 2 7 6 20 13 54 6 20 rrcurveto
            27 hlineto
            132 153 90 270 hvcurveto
            0 89 -41 115 -90 22 rrcurveto
            return
          </CharString>
          <CharString index="197">
            -42 -153 -59 -177 -38 -112 -60 23 -29 62 0 114 0 71 61 166 81 0 11 0 18 -1 12 -2 rrcurveto
            return
          </CharString>
          <CharString index="198">
            7 -1 8 -2 4 0 8 0 11 6 7 6 rrcurveto
            return
          </CharString>
          <CharString index="199">
            57 -12 29 -88 0 -66 0 -153 -53 -147 -178 0 45 130 62 188 38 148 rrcurveto
            return
          </CharString>
          <CharString index="200">
            20 -10 10 -20 -20 -10 -10 -20 vhcurveto
            0 -81 3 -89 20 -70 20 -70 49 -50 60 0 93 0 66 80 41 101 32 80 16 93 0 76 rrcurveto
            20 -10 10 -20 -20 -10 -10 -20 vhcurveto
            0 -74 -15 -83 -27 -69 -33 -83 -50 -61 -63 0 -30 0 -29 30 -12 44 -20 70 -1 92 0 64 rrcurveto
            return
          </CharString>
          <CharString index="201">
            15 0 8 7 8 20 rrcurveto
            89 225 rlineto
            25 60 8 41 0 31 0 20 -10 10 -20 0 -14 0 -8 -10 -9 -20 -19 -42 -55 -30 -35 0 -92 0 -44 85 -34 39 -5 6 -12 18 -14 0 rrcurveto
            -20 -9 -10 -20 hvcurveto
            0 -8 10 -19 3 -3 34 -46 62 -102 121 0 37 0 26 12 17 10 rrcurveto
            -86 -220 rlineto
            -3 -8 -4 -9 0 -7 0 -20 10 -10 20 0 rrcurveto
            return
          </CharString>
          <CharString index="202">
            0 20 7 48 73 11 20 3 39 6 61 0 rrcurveto
            79 51 -52 -64 -68 -230 -12 -20 hvcurveto
            -20 0 -37 8 -12 40 -3 10 -8 30 0 20 rrcurveto
            return
          </CharString>
          <CharString index="203">
            20 10 10 20 hvcurveto
            0 30 -32 154 -15 64 10 -3 24 -5 13 0 rrcurveto
            20 290 6 134 102 -85 74 -105 hvcurveto
            -54 0 -52 -6 -20 -3 -24 -4 -30 -9 -20 -13 rrcurveto
            107 vlineto
            20 -10 10 -20 -20 -10 -10 -20 vhcurveto
            -220 vlineto
            0 -54 80 -324 0 -30 rrcurveto
            -20 11 -10 19 vhcurveto
            return
          </CharString>
          <CharString index="204">
            20 10 15 15 hvcurveto
            0 10 0 -1 -3 9 -50 150 -17 114 0 130 rrcurveto
            185 35 211 105 20 20 -40 -36 vhcurveto
            0 -63 -21 -57 -49 -30 -12 -7 -18 -9 0 -14 0 -20 10 -10 20 0 30 0 10 20 30 0 rrcurveto
            50 50 -17 -73 -20 -9 -20 -21 hvcurveto
            -54 0 -26 9 -14 5 -10 4 -10 2 -6 0 -20 0 -10 -10 0 -20 0 -14 10 -6 20 -10 20 -10 46 -10 54 0 54 0 36 46 0 54 rrcurveto
            0 90 -56 48 -81 7 32 44 5 48 0 43 rrcurveto
            50 -29 86 -71 -166 -34 -263 -193 vhcurveto
            0 -130 20 -132 50 -150 6 -18 4 -12 20 0 rrcurveto
            return
          </CharString>
          <CharString index="205">
            0 14 -5 11 -40 80 -20 40 -12 15 -18 0 -20 0 -18 -35 -10 -20 -10 -20 -56 -55 -61 0 rrcurveto
            -24 -16 16 24 120 110 80 60 hvcurveto
            48 0 2 -30 20 0 rrcurveto
            20 10 10 20 20 -36 40 -64 -94 -136 -107 -153 -58 42 -42 58 hvcurveto
            92 0 73 80 10 20 rrcurveto
            35 -70 rlineto
            10 -20 6 -10 14 0 20 0 10 13 0 17 rrcurveto
            return
          </CharString>
          <CharString index="206">
            10 0 12 4 12 4 rrcurveto
            return
          </CharString>
          <CharString index="207">
            25 8 5 10 0 14 0 20 -10 10 -20 0 rrcurveto
            return
          </CharString>
          <CharString index="208">
            -4 0 -26 -10 -4 0 -20 0 -2 14 -20 81 -4 18 -6 11 -34 0 -14 0 -3 -20 -26 -40 rrcurveto
            return
          </CharString>
          <CharString index="209">
            -13 -20 -37 -64 -97 0 rrcurveto
            -40 -32 12 64 112 72 52 60 hvcurveto
            44 0 22 -8 20 -18 20 -18 14 -12 10 0 20 0 10 10 0 20 0 14 -11 10 -20 18 -20 18 -30 26 -79 0 rrcurveto
            -99 -93 -86 -138 -104 67 -32 65 hvcurveto
            112 0 52 62 26 40 rrcurveto
            13 -49 24 -33 49 0 rrcurveto
            return
          </CharString>
          <CharString index="210">
            -20 -4 -15 -3 -5 0 -8 0 -5 19 -4 20 -10 48 -9 13 -24 0 -20 0 -6 -24 -27 -39 -16 -23 -59 -84 -72 0 rrcurveto
            -21 -19 20 20 110 150 90 60 hvcurveto
            48 0 2 -20 20 0 rrcurveto
            20 10 10 20 20 -36 30 -64 -101 -169 -123 -137 -54 46 -46 54 hvcurveto
            97 0 80 101 15 26 3 -14 21 -43 44 0 5 0 22 3 31 6 35 -59 79 -20 68 0 64 0 66 24 12 4 25 8 5 10 0 14 rrcurveto
            20 -10 10 -20 vhcurveto
            -4 0 -14 -5 -6 -2 -18 -6 -50 -17 -50 0 -36 0 -54 6 -29 30 68 22 71 35 0 67 rrcurveto
            return
          </CharString>
          <CharString index="211">
            54 -46 46 -54 vhcurveto
            -63 -57 -65 -118 hvcurveto
            return
          </CharString>
          <CharString index="212">
            72 35 36 24 20 20 -20 -20 vhcurveto
            0 -28 -49 -24 -50 -16 rrcurveto
            return
          </CharString>
          <CharString index="213">
            -32 -17 -26 -10 -7 -3 -20 -8 -10 -7 0 -16 0 -20 10 -10 20 0 8 0 5 1 16 7 5 2 24 10 32 16 32 -46 78 -20 62 0 rrcurveto
            return
          </CharString>
          <CharString index="214">
            64 0 66 24 12 4 rrcurveto
            return
          </CharString>
          <CharString index="215">
            -18 -6 -50 -17 -50 0 -52 0 -47 15 -20 20 65 39 74 48 0 58 rrcurveto
            54 -39 46 -61 -74 -46 -88 -100 vhcurveto
            0 -11 1 -10 2 -10 rrcurveto
            return
          </CharString>
          <CharString index="216">
            71 30 56 30 25 15 -20 -20 vhcurveto
            0 -26 -51 -31 -49 -30 rrcurveto
            return
          </CharString>
          <CharString index="217">
            -88 -8 -92 -115 0 -113 0 -51 27 -45 41 -24 -19 -57 -27 -84 -3 -12 rrcurveto
            return
          </CharString>
          <CharString index="218">
            -3 -11 -7 -29 0 -12 0 -20 10 -10 20 0 20 0 9 19 1 7 2 16 29 97 27 76 5 -1 6 0 6 0 rrcurveto
            164 92 121 129 69 -43 85 -79 hvcurveto
            -9 0 -9 0 -8 -1 12 43 9 40 8 36 1 5 7 32 0 9 0 20 -9 10 -20 0 -20 0 -9 -20 -2 -8 rrcurveto
            -12 -57 -17 -66 -20 -70 rrcurveto
            return
          </CharString>
          <CharString index="219">
            14 4 13 1 17 0 40 0 22 -46 0 -48 0 -105 -75 -84 -118 -1 29 87 32 99 26 93 rrcurveto
            return
          </CharString>
          <CharString index="220">
            -17 15 -11 22 0 24 0 71 47 68 53 26 rrcurveto
            return
          </CharString>
          <CharString index="221">
            -10 -60 -10 -64 0 -40 0 -72 38 -48 72 0 90 0 49 100 20 50 2 4 5 14 4 12 2 -10 0 -7 4 -13 rrcurveto
            return
          </CharString>
          <CharString index="222">
            -6 -20 -44 -218 -92 0 -40 0 -10 20 0 40 0 40 8 50 10 60 1 6 1 4 0 4 0 20 -10 10 -20 0 rrcurveto
            -16 0 -11 -12 -3 -18 rrcurveto
            return
          </CharString>
          <CharString index="223">
            44 34 -20 -40 hvcurveto
            0 -83 -133 -10 -117 -1 rrcurveto
            33 143 40 11 99 0 rrcurveto
            return
          </CharString>
          <CharString index="224">
            -1 20 -3 14 -6 24 -5 20 -9 10 -16 0 -20 0 -10 -10 0 -20 0 -4 1 -9 1 -4 rrcurveto
            return
          </CharString>
          <CharString index="225">
            1 -20 9 -188 0 -100 rrcurveto
            -166 vlineto
            return
          </CharString>
          <CharString index="226">
            -6 -31 -14 -82 0 -63 rrcurveto
            return
          </CharString>
          <CharString index="227">
            0 -99 6 -51 14 -84 3 -18 10 -10 17 0 20 0 10 10 0 20 0 4 -1 2 -2 14 rrcurveto
            return
          </CharString>
          <CharString index="228">
            -12 72 -5 48 0 92 0 54 11 67 5 25 129 1 195 7 0 146 0 74 -64 46 -74 0 rrcurveto
            -106 0 -39 -17 -37 -61 rrcurveto
            return
          </CharString>
          <CharString index="229">
            -54 0 -20 10 -24 30 -16 20 -10 10 -8 0 -20 0 -10 -10 0 -20 0 -9 4 -12 16 -20 24 -30 35 -29 83 0 72 0 90 26 64 48 rrcurveto
            8 6 4 9 0 11 0 20 -10 10 -20 0 -6 0 -5 -2 -8 -6 -48 -36 -78 -26 -63 0 rrcurveto
            return
          </CharString>
          <CharString index="230">
            132 0 72 12 48 16 25 8 5 10 0 14 0 20 -10 10 -20 0 -4 0 -14 -5 -6 -2 -36 -12 -60 -11 -132 0 rrcurveto
            -82 -48 48 82 115 125 95 115 hvcurveto
            33 0 4 -60 23 0 rrcurveto
            20 10 10 20 50 -46 40 -44 -148 -152 -122 -148 -115 75 -75 115 hvcurveto
            return
          </CharString>
          <CharString index="231">
            -50 -50 -38 -28 -20 0 -20 0 -16 58 -4 20 -4 20 -7 10 -20 0 -20 0 -9 -10 0 -20 0 -1 0 -4 2 -7 6 -30 24 -96 68 0 rrcurveto
            48 0 52 45 50 50 18 18 12 14 0 11 0 24 -13 6 -17 0 -12 0 -10 -10 -20 -20 rrcurveto
            return
          </CharString>
          <CharString index="232">
            -4 30 -5 54 0 45 0 71 8 47 8 20 26 64 58 8 30 0 66 0 44 -66 0 -60 0 -141 -145 -62 -86 -10 rrcurveto
            return
          </CharString>
          <CharString index="233">
            110 196 87 189 95 -74 89 -96 hvcurveto
            -30 0 -97 -5 -42 -105 -12 -30 -9 -61 0 -69 0 -75 8 -65 5 -20 5 -20 15 -10 21 0 rrcurveto
            return
          </CharString>
          <CharString index="234">
            -30 -95 -60 -46 -60 0 rrcurveto
            -40 -20 20 40 55 56 75 74 hvcurveto
            17 63 -4 -45 hvcurveto
            return
          </CharString>
          <CharString index="235">
            -25 16 -33 8 -37 0 rrcurveto
            -97 -93 -92 -98 -74 46 -46 74 135 90 151 135 hvcurveto
            return
          </CharString>
          <CharString index="236">
            0 98 -35 136 0 66 0 20 3 14 6 10 6 10 5 16 0 2 0 18 -10 12 -20 0 -16 0 -6 -10 -12 -20 -12 -20 -4 -22 0 -30 rrcurveto
            0 -72 35 -138 0 -90 rrcurveto
            return
          </CharString>
          <CharString index="237">
            -20 -6 -10 -8 0 -16 0 -20 10 -10 20 0 2 0 12 1 6 2 rrcurveto
            return
          </CharString>
          <CharString index="238">
            20 6 10 11 210 0 rrcurveto
            20 10 10 20 20 -10 10 -20 hvcurveto
            -210 0 -20 -11 -30 -9 rrcurveto
            return
          </CharString>
          <CharString index="239">
            80 0 43 32 9 7 20 15 10 10 0 11 0 20 -10 10 -20 0 -20 0 -22 -45 -90 0 -30 0 2 30 -20 0 rrcurveto
            -20 -10 -10 -20 -24 24 -36 54 hvcurveto
            return
          </CharString>
          <CharString index="240">
            64 13 59 7 65 0 20 0 67 -3 3 0 20 0 10 10 0 20 0 20 -10 9 -20 1 -31 2 -29 1 -30 0 -87 0 -45 -7 -78 -16 rrcurveto
            -19 -4 -10 -10 -6 -17 -2 -7 -2 -19 -3 -20 -3 -20 -25 -165 0 -141 0 -72 48 -88 72 0 98 0 42 8 20 2 rrcurveto
            return
          </CharString>
          <CharString index="241">
            30 3 40 10 20 7 rrcurveto
            return
          </CharString>
          <CharString index="242">
            20 7 10 14 0 9 rrcurveto
            return
          </CharString>
          <CharString index="243">
            20 -10 10 -20 vhcurveto
            -8 0 -62 -19 -20 -1 rrcurveto
            return
          </CharString>
          <CharString index="244">
            -20 -2 -50 -8 -90 0 -36 0 -24 64 0 36 0 26 2 62 2 33 20 4 106 5 40 0 24 0 16 -2 20 -8 14 -6 12 -4 4 0 rrcurveto
            20 10 10 20 hvcurveto
            0 9 -8 15 -22 9 -20 8 -34 9 -36 0 -45 0 -101 -5 -15 -3 5 61 9 51 3 20 rrcurveto
            1 10 3 12 2 10 rrcurveto
            return
          </CharString>
          <CharString index="245">
            20 -10 10 -20 -52 -68 -97 -53 -52 38 -38 52 vhcurveto
            50 0 12 7 28 13 18 9 12 13 0 8 0 20 -10 10 -20 0 -20 0 -20 -20 -50 0 -20 0 -10 10 0 20 0 16 32 58 28 16 rrcurveto
            18 10 12 6 0 14 rrcurveto
            return
          </CharString>
          <CharString index="246">
            -96 -54 -24 -56 hvcurveto
            return
          </CharString>
          <CharString index="247">
            0 -38 20 -12 0 -20 rrcurveto
            -30 -25 -20 -45 -60 -50 46 74 141 119 79 91 20 10 10 20 20 -10 10 -20 -129 -141 -107 -173 -120 93 -60 77 61 69 32 78 vhcurveto
            return
          </CharString>
          <CharString index="248">
            0 38 -20 12 0 20 rrcurveto
            14 36 6 54 20 10 10 20 vhcurveto
            20 -10 10 -20 vhcurveto
            return
          </CharString>
          <CharString index="249">
            20 10 10 20 24 -59 26 -31 -94 -56 -116 -94 -72 48 -48 72 hvcurveto
            37 0 38 22 29 31 1 -32 2 -33 1 -31 rrcurveto
            return
          </CharString>
          <CharString index="250">
            -89 -28 -89 -60 0 -91 rrcurveto
            -72 49 -48 72 88 31 102 100 vhcurveto
            50 vlineto
            21 4 9 10 0 16 0 20 -10 10 -23 0 rrcurveto
            return
          </CharString>
          <CharString index="251">
            -3 83 -4 94 0 33 rrcurveto
            20 -11 10 -20 -16 -13 -8 -22 -48 -52 -72 -48 -40 -20 20 40 60 30 90 60 vhcurveto
            20 0 16 -20 24 0 rrcurveto
            return
          </CharString>
          <CharString index="252">
            -34 vlineto
            -54 -6 -88 -54 -40 -20 20 40 vhcurveto
            0 50 50 41 70 25 rrcurveto
            return
          </CharString>
          <CharString index="253">
            0 6 -10 9 -20 15 -32 24 -18 42 0 30 0 20 20 12 20 10 20 10 10 9 0 11 0 20 -10 10 -20 0 -11 0 -8 -3 -10 -5 rrcurveto
            -54 -27 -17 -29 0 -38 0 -54 30 -56 40 -30 16 -12 10 -4 14 0 20 0 10 10 0 20 rrcurveto
            return
          </CharString>
          <CharString index="254">
            2 -33 2 -30 0 -17 rrcurveto
            -20 -6 -10 -14 -14 -6 46 20 vhcurveto
            0 19 14 14 22 11 rrcurveto
            return
          </CharString>
          <CharString index="255">
            51 21 39 31 0 53 rrcurveto
            return
          </CharString>
          <CharString index="256">
            -46 -34 -36 -54 hvcurveto
            0 -7 3 -23 3 -35 -29 -8 -33 -7 -32 -9 -1 17 -1 16 0 16 0 26 7 74 2 20 rrcurveto
            return
          </CharString>
          <CharString index="257">
            1 10 rlineto
            20 -10 10 -20 vhcurveto
            -18 0 -10 -10 -2 -20 rrcurveto
            return
          </CharString>
          <CharString index="258">
            -2 -20 -8 -80 0 -30 0 -19 1 -24 1 -25 -52 -21 -40 -31 0 -54 rrcurveto
            -60 20 -66 60 vhcurveto
            return
          </CharString>
          <CharString index="259">
            46 34 36 54 hvcurveto
            0 34 -2 34 -2 33 29 8 34 7 32 9 5 -58 4 -74 0 -83 rrcurveto
            -20 10 -10 20 20 10 10 20 vhcurveto
            0 92 -5 82 -5 61 rrcurveto
            return
          </CharString>
          <CharString index="260">
            -2 23 -2 15 0 6 rrcurveto
            return
          </CharString>
          <CharString index="261">
            20 6 10 14 14 6 -10 -20 vhcurveto
            0 -19 -14 -14 -22 -11 rrcurveto
            return
          </CharString>
          <CharString index="262">
            -7 18 -9 89 0 72 rrcurveto
            return
          </CharString>
          <CharString index="263">
            0 72 10 163 0 45 rrcurveto
            20 -10 10 -20 -20 -10 -10 -20 vhcurveto
            return
          </CharString>
          <CharString index="264">
            0 -42 -10 -163 0 -75 0 -72 8 -92 12 -36 7 -21 12 -9 11 0 20 0 10 10 0 20 rrcurveto
            0 4 -1 8 -3 9 rrcurveto
            return
          </CharString>
          <CharString index="265">
            -4 0 -11 -2 -12 -12 -20 -20 -53 -26 -30 0 rrcurveto
            return
          </CharString>
          <CharString index="266">
            -20 -10 10 20 hvcurveto
            0 20 25 179 3 21 rrcurveto
            return
          </CharString>
          <CharString index="267">
            1 7 1 9 0 4 rrcurveto
            return
          </CharString>
          <CharString index="268">
            -14 0 -13 -7 -3 -21 rrcurveto
            return
          </CharString>
          <CharString index="269">
            -3 -21 -27 -201 0 -20 rrcurveto
            return
          </CharString>
          <CharString index="270">
            -54 36 -36 54 vhcurveto
            35 0 70 24 40 40 12 12 3 10 0 4 rrcurveto
            20 -10 10 -20 vhcurveto
            return
          </CharString>
          <CharString index="271">
            50 20 115 44 12 4 25 8 5 10 0 14 0 20 -10 10 -20 0 -4 0 -14 -5 -6 -2 -12 -4 -104 -39 -50 -20 -13 74 -13 76 -22 50 rrcurveto
            -16 37 -26 23 -32 0 -52 0 -26 -67 -32 -57 -25 -47 -32 -39 -33 0 rrcurveto
            -16 -4 50 30 71 -13 59 -67 hvcurveto
            -59 0 -59 -102 -30 -30 -20 -20 -44 -29 -20 -8 -20 -8 -10 -7 0 -16 rrcurveto
            return
          </CharString>
          <CharString index="272">
            -20 10 -10 20 vhcurveto
            8 0 5 1 16 7 16 7 52 30 30 30 30 30 55 85 20 0 rrcurveto
            19 1 -32 -38 hvcurveto
            return
          </CharString>
          <CharString index="273">
            -77 17 -63 63 vhcurveto
            66 0 46 60 30 55 28 50 21 45 9 0 20 0 23 -93 22 -127 -80 -25 -55 -71 0 -64 rrcurveto
            -79 74 -73 60 56 34 50 56 vhcurveto
            0 36 -11 84 -8 46 rrcurveto
            return
          </CharString>
          <CharString index="274">
            8 -40 10 -84 0 -22 rrcurveto
            -20 -10 -26 -20 -26 -48 46 46 vhcurveto
            0 49 54 41 32 10 rrcurveto
            return
          </CharString>
          <CharString index="275">
            24 -19 12 -21 -23 -17 -15 -21 -37 25 -7 15 vhcurveto
            29 11 29 15 hvcurveto
            return
          </CharString>
          <CharString index="276">
            0 -17 17 -8 28 -13 61 -28 96 -48 81 0 64 0 53 50 0 52 rrcurveto
            return
          </CharString>
          <CharString index="277">
            0 58 -24 56 0 100 0 54 10 29 4 14 rrcurveto
            return
          </CharString>
          <CharString index="278">
            0 2 2 8 0 7 0 24 -13 6 -15 0 -19 0 -13 -19 -2 -8 rrcurveto
            return
          </CharString>
          <CharString index="279">
            -5 -14 -9 -39 0 -64 rrcurveto
            return
          </CharString>
          <CharString index="280">
            0 -110 23 -47 0 -55 0 -22 -27 -22 -29 0 -64 0 -77 37 -70 32 -20 10 -14 5 -8 0 rrcurveto
            -22 -8 -13 -17 hvcurveto
            return
          </CharString>
          <CharString index="281">
            7 -108 34 -69 43 -39 28 -24 6 -4 11 0 20 0 10 10 0 20 0 11 -7 7 -28 24 -29 24 -36 69 0 119 60 38 58 28 22 11 rrcurveto
            20 10 10 5 0 14 0 20 -10 10 -20 0 -6 0 -10 -2 -12 -6 -36 -17 -153 -69 -88 -100 -2 61 -3 76 0 77 rrcurveto
            20 -10 10 -20 -20 -10 -10 -20 vhcurveto
            return
          </CharString>
          <CharString index="282">
            0 -160 10 -150 0 -40 0 -30 5 -40 5 -20 5 -20 8 -10 17 0 17 0 13 10 0 20 0 4 -1 5 -1 4 -4 16 -4 31 0 30 rrcurveto
            0 64 45 46 56 44 rrcurveto
            return
          </CharString>
          <CharString index="283">
            -20 -10 -10 -20 -20 10 -10 20 20 30 -22 -20 hvcurveto
            0 -20 -30 -45 -20 -20 -20 -20 -10 -13 0 -8 0 -20 10 -10 20 0 8 0 15 10 20 20 20 20 47 66 0 40 rrcurveto
            54 -56 48 -54 vhcurveto
            return
          </CharString>
          <CharString index="284">
            -69 -101 61 89 hvcurveto
            0 50 20 15 20 20 10 10 20 11 0 14 0 20 -10 10 -20 0 -11 0 -15 -6 -14 -14 -40 -40 -42 -37 -37 -97 -1 25 -4 95 -16 44 rrcurveto
            -7 20 -7 10 -16 0 -20 0 -10 -10 0 -20 0 -6 2 -6 4 -10 6 -20 18 -204 0 -54 0 -20 10 -10 20 0 16 0 8 9 6 20 rrcurveto
            5 18 41 98 10 20 10 -58 84 -107 130 0 rrcurveto
            20 10 10 20 20 -10 10 -20 hvcurveto
            return
          </CharString>
          <CharString index="285">
            54 0 66 24 12 4 25 8 5 10 0 14 0 20 -10 10 -20 0 -4 0 -14 -5 -6 -2 -18 -6 -50 -17 -40 0 -54 0 -16 15 -7 28 rrcurveto
            40 16 107 72 0 107 rrcurveto
            62 -7 100 -83 -107 -23 -159 -79 -190 58 -32 92 vhcurveto
            return
          </CharString>
          <CharString index="286">
            -2 18 -1 19 0 22 rrcurveto
            71 21 107 49 27 3 -68 -34 vhcurveto
            0 -68 -59 -39 -38 -28 rrcurveto
            return
          </CharString>
          <CharString index="287">
            54 0 66 24 12 4 25 8 5 10 0 14 0 20 -10 10 -20 0 -4 0 -14 -5 -6 -2 -18 -6 -50 -17 -40 0 rrcurveto
            -126 hlineto
            -28 -16 7 43 hvcurveto
            return
          </CharString>
          <CharString index="288">
            0 86 24 90 0 88 0 20 -3 30 -1 6 -2 20 -10 10 -18 0 -20 0 -10 -12 0 -19 0 -6 4 -29 0 -20 rrcurveto
            return
          </CharString>
          <CharString index="289">
            0 -83 -24 -96 0 -85 0 -79 43 -31 61 0 rrcurveto
            return
          </CharString>
          <CharString index="290">
            -72 72 -48 218 20 10 10 20 20 -10 10 -20 -72 -158 6 54 vhcurveto
            return
          </CharString>
          <CharString index="291">
            0 86 14 176 0 88 0 20 -3 30 -1 6 -2 20 -10 10 -18 0 -20 0 -10 -12 0 -19 0 -6 4 -29 0 -20 rrcurveto
            0 -83 -14 -182 0 -85 rrcurveto
            return
          </CharString>
          <CharString index="292">
            -1 40 -2 23 -6 60 -2 19 -12 11 -16 0 -20 0 -10 -10 0 -20 0 -4 1 -6 1 -10 4 -40 4 -56 0 -54 0 -42 8 -48 2 -10 rrcurveto
            5 -20 11 -10 24 0 rrcurveto
            20 10 10 20 72 58 138 72 hvcurveto
            28 0 19 -40 3 -60 4 -80 28 -60 58 0 30 0 60 24 12 4 25 8 5 10 0 14 0 20 -10 10 -20 0 -4 0 -14 -5 -6 -2 rrcurveto
            -12 -4 -46 -19 -20 0 -20 0 -8 44 -2 40 -4 80 -34 76 -72 0 -68 0 -52 -58 -31 -65 rrcurveto
            return
          </CharString>
          <CharString index="293">
            -30 0 -43 7 -20 20 -10 10 -9 5 -8 0 -20 0 -10 -10 0 -20 0 -8 6 -9 14 -14 20 -20 50 -21 60 0 90 0 64 101 25 97 rrcurveto
            21 80 10 94 0 80 rrcurveto
            90 -32 90 -72 -43 -83 -31 -119 -20 -10 -20 -20 -25 -5 54 25 20 -10 10 -20 -20 -10 -10 -20 -67 23 -72 67 54 36 46 54 67 36 23 30 30 14 -76 -44 vhcurveto
            0 -72 -10 -90 -20 -80 -17 -69 -49 -81 -54 0 rrcurveto
            return
          </CharString>
          <CharString index="294">
            -2 -7 -1 -8 0 -4 0 -20 10 -10 20 0 14 0 12 10 4 20 7 41 13 31 10 20 1 2 2 10 0 4 0 20 -10 10 -20 0 rrcurveto
            -20 0 -95 -86 -17 -16 5 20 4 22 4 20 1 5 0 2 0 3 0 20 -10 10 -20 0 -21 0 -5 -10 -4 -20 -4 -20 -18 -89 0 -17 rrcurveto
            -20 10 -10 20 vhcurveto
            20 0 31 21 20 14 20 14 9 8 10 10 rrcurveto
            return
          </CharString>
          <CharString index="295">
            20 10 10 20 hvcurveto
            0 6 -1 6 -1 3 -15 62 -7 49 0 54 rrcurveto
            100 80 90 100 48 32 -32 -48 -48 -32 -32 -48 vhcurveto
            -90 hlineto
            -20 -10 -10 -20 hvcurveto
            0 -14 10 -9 20 -15 rrcurveto
            184 -138 rlineto
            20 -15 9 -3 7 0 20 0 10 10 0 20 0 8 -10 13 -20 15 rrcurveto
            -130 98 rlineto
            82 58 58 82 82 -58 58 -82 -132 -108 -118 -132 hvcurveto
            0 -54 7 -58 17 -68 2 -6 11 -24 17 0 rrcurveto
            return
          </CharString>
          <CharString index="296">
            -54 -36 110 80 54 -35 56 -55 hvcurveto
            -40 0 -79 -8 -61 -35 -36 -20 -24 -17 0 -40 rrcurveto
            -40 24 -30 16 20 10 10 20 vhcurveto
            0 11 -10 18 0 11 0 5 9 9 16 8 42 22 47 16 67 0 rrcurveto
            20 9 -30 -20 -120 56 -130 94 hvcurveto
            64 0 66 24 12 4 25 8 5 10 0 14 0 20 -10 10 -20 0 -4 0 -14 -5 -6 -2 -18 -6 -50 -17 -50 0 rrcurveto
            return
          </CharString>
          <CharString index="297">
            30 0 43 -24 20 -10 11 -6 8 0 8 0 20 0 10 10 0 20 0 11 -16 12 -14 7 -20 10 -50 30 -50 0 -68 0 -92 -46 0 -110 rrcurveto
            0 -103 75 -31 80 -12 90 -14 95 10 0 -34 rrcurveto
            -20 -50 -40 -260 -20 -10 -10 -20 -20 10 -10 20 264 106 40 80 vhcurveto
            0 102 -137 -21 -100 16 -58 9 -45 18 0 58 0 81 70 17 30 0 rrcurveto
            return
          </CharString>
          <CharString index="298">
            38 28 -22 -32 hvcurveto
            0 -10 -3 -7 -20 -20 -19 -19 -11 -14 0 -10 0 -20 10 -10 20 0 9 0 13 9 20 20 19 19 22 29 0 33 rrcurveto
            68 -56 46 -71 -129 -109 -82 -110 vhcurveto
            return
          </CharString>
          <CharString index="299">
            20 0 100 150 120 0 rrcurveto
            20 10 10 20 20 -10 10 -20 hvcurveto
            -120 0 -95 -105 -25 -25 -8 13 -2 27 0 30 rrcurveto
            return
          </CharString>
          <CharString index="300">
            0 106 30 162 0 180 rrcurveto
            return
          </CharString>
          <CharString index="301">
            0 -180 -30 -142 0 -126 rrcurveto
            -54 16 -96 54 vhcurveto
            return
          </CharString>
          <CharString index="302">
            -162 -21 -8 -40 0 -32 rrcurveto
            return
          </CharString>
          <CharString index="303">
            0 -31 30 -42 0 -53 rrcurveto
            -144 vlineto
            return
          </CharString>
          <CharString index="304">
            20 10 10 20 hvcurveto
            144 vlineto
            return
          </CharString>
          <CharString index="305">
            0 65 -30 41 0 20 0 20 174 23 26 4 20 3 10 31 0 19 0 20 -15 14 -15 6 -50 20 -270 0 -20 0 rrcurveto
            -20 -10 -10 -20 -20 10 -10 20 hvcurveto
            20 0 210 -5 20 -2 rrcurveto
            return
          </CharString>
          <CharString index="306">
            0 86 10 140 0 45 rrcurveto
            20 -10 10 -20 -20 -10 -10 -20 vhcurveto
            return
          </CharString>
          <CharString index="307">
            0 -42 -10 -143 0 -92 -8 -1 -12 -2 0 0 -16 -2 -14 -12 0 -16 0 -20 11 -10 19 0 5 0 7 1 12 2 2 -32 2 -31 1 -10 rrcurveto
            3 -30 5 -16 12 -24 10 -20 7 -10 14 0 20 0 10 10 0 20 0 4 -3 12 -4 8 -10 20 -2 14 -2 20 -1 10 -3 31 -2 30 rrcurveto
            return
          </CharString>
          <CharString index="308">
            10 1 9 0 8 0 39 0 38 -5 20 -4 rrcurveto
            return
          </CharString>
          <CharString index="309">
            5 -1 4 0 4 0 20 0 10 11 0 20 0 20 -10 5 -20 4 rrcurveto
            return
          </CharString>
          <CharString index="310">
            -20 4 -42 6 -48 0 rrcurveto
            -8 0 -11 0 -11 -1 rrcurveto
            return
          </CharString>
          <CharString index="311">
            40 0 50 25 30 20 21 14 9 8 0 11 0 20 -10 10 -20 0 -10 0 -7 -3 -15 -10 -21 -14 -37 -21 -30 0 rrcurveto
            return
          </CharString>
          <CharString index="312">
            -30 0 -70 30 -40 0 rrcurveto
            -63 -47 -50 -20 -20 10 -10 20 hvcurveto
            30 0 1 40 49 0 rrcurveto
            30 0 70 -30 40 0 rrcurveto
            return
          </CharString>
          <CharString index="313">
            54 -46 36 -54 -54 -36 -42 -54 -54 46 -40 54 54 36 46 54 vhcurveto
            return
          </CharString>
          <CharString index="314">
            20 10 16 20 20 20 -10 -20 -20 -10 -20 -20 -20 -20 14 20 vhcurveto
            return
          </CharString>
          <CharString index="315">
            20 -10 10 -20 vhcurveto
            -18 0 -7 -10 -5 -20 -50 -185 4 -205 -20 0 -33 0 -16 120 -57 200 -6 20 -13 40 -50 0 -46 0 -14 -40 -6 -20 -20 -64 -16 -256 -23 0 rrcurveto
            -20 0 -80 213 -14 160 -2 20 -11 7 -17 0 -20 0 -10 -9 0 -21 0 -7 0 -1 1 -8 14 -154 75 -180 10 -20 12 -24 19 -36 43 0 rrcurveto
            44 0 15 40 8 20 25 62 13 258 20 0 20 0 33 -214 43 -106 8 -20 25 -40 46 0 38 0 13 24 10 22 25 55 -12 151 48 171 rrcurveto
            2 8 2 15 0 4 rrcurveto
            return
          </CharString>
          <CharString index="316">
            -20 0 -80 -10 -20 0 -20 0 -10 10 0 20 0 20 21 39 120 60 140 70 59 37 0 54 0 54 -36 36 -54 0 -170 0 -50 -15 -30 -15 rrcurveto
            -20 -10 -10 -6 0 -14 0 -20 10 -10 20 0 7 0 8 1 6 3 20 10 39 16 170 0 20 0 10 -10 0 -20 0 -20 -97 -53 -70 -35 rrcurveto
            -120 -60 -53 -50 0 -62 0 -54 36 -36 54 0 rrcurveto
            return
          </CharString>
          <CharString index="317">
            20 0 80 10 20 0 rrcurveto
            160 hlineto
            20 10 10 20 hvcurveto
            20 -10 10 -20 vhcurveto
            return
          </CharString>
          <CharString index="318">
            0 14 51 24 56 28 64 32 69 27 0 55 0 54 -36 36 -54 0 -80 0 -50 -10 -50 -10 -19 -4 -11 -12 0 -14 0 -20 10 -10 20 0 rrcurveto
            7 0 9 2 5 1 40 8 47 9 72 0 20 0 10 -10 0 -20 0 -11 -47 -23 -53 -27 -66 -33 -74 -26 0 -60 0 -54 36 -36 54 0 rrcurveto
            return
          </CharString>
          <CharString index="319">
            20 0 110 15 20 0 15 0 35 -1 20 -2 10 -1 5 -1 5 0 20 0 10 10 0 20 0 20 -10 8 -20 2 -40 4 -30 1 -20 0 rrcurveto
            return
          </CharString>
          <CharString index="320">
            -20 0 -110 -15 -20 0 rrcurveto
            -20 -10 10 20 hvcurveto
            return
          </CharString>
          <CharString index="321">
            0 191 40 237 0 20 rrcurveto
            17 -10 13 -20 -20 -10 -13 -17 vhcurveto
            return
          </CharString>
          <CharString index="322">
            9 -1 6 -1 5 0 19 0 11 13 0 17 0 20 -12 8 -18 2 rrcurveto
            return
          </CharString>
          <CharString index="323">
            -20 10 -10 20 vhcurveto
            8 0 38 11 54 0 105 0 85 -97 0 -105 0 -45 -11 -45 -21 -40 -38 -73 -68 -55 -82 0 -48 0 -18 30 -24 0 rrcurveto
            -20 -10 -10 -20 -24 66 -36 54 hvcurveto
            105 0 87 68 48 92 25 49 15 55 0 56 0 135 -115 125 -135 0 -30 0 -49 -4 -21 -7 -21 -7 -9 -9 0 -14 rrcurveto
            return
          </CharString>
          <CharString index="324">
            0 -9 10 -14 20 -7 20 -7 40 -10 30 -3 rrcurveto
            return
          </CharString>
          <CharString index="325">
            0 141 -20 148 0 47 0 54 -36 36 -54 0 rrcurveto
            return
          </CharString>
          <CharString index="326">
            -120 -88 -44 -86 hvcurveto
            0 -96 142 -16 0 -20 rrcurveto
            return
          </CharString>
          <CharString index="327">
            0 -20 -174 -40 0 -124 0 -72 78 -68 72 0 100 0 108 24 12 4 25 8 5 10 0 14 0 20 -10 10 -20 0 -4 0 -10 -3 -6 -2 rrcurveto
            -18 -6 -102 -19 -80 0 -40 0 -50 40 0 40 0 92 175 12 0 80 rrcurveto
            return
          </CharString>
          <CharString index="328">
            0 80 -143 -2 0 54 rrcurveto
            54 76 16 72 20 10 10 20 vhcurveto
            20 -11 10 -19 vhcurveto
            return
          </CharString>
          <CharString index="329">
            20 -10 10 -20 vhcurveto
            -20 0 -100 -5 -50 -5 -20 -2 -10 -12 0 -16 0 -20 10 -10 20 0 3 0 7 1 10 1 30 3 100 5 20 0 rrcurveto
            20 10 10 20 hvcurveto
            return
          </CharString>
          <CharString index="330">
            20 -10 10 -20 vhcurveto
            -4 0 -6 -1 -10 -1 rrcurveto
            return
          </CharString>
          <CharString index="331">
            -30 -3 -110 -11 -30 0 -60 0 -39 10 -11 0 -20 0 -10 -10 0 -20 0 -21 10 -39 0 -30 rrcurveto
            return
          </CharString>
          <CharString index="332">
            -120 -85 -180 -120 -100 -35 110 100 100 55 137 67 vhcurveto
            11 0 18 -1 12 -2 7 -1 8 -2 4 0 13 0 14 4 4 17 rrcurveto
            return
          </CharString>
          <CharString index="333">
            15 2 16 2 16 0 45 0 23 -52 8 -56 rrcurveto
            -26 hlineto
            -20 -10 -8 -20 -20 10 -10 20 hvcurveto
            return
          </CharString>
          <CharString index="334">
            30 3 24 5 30 5 66 12 30 39 50 50 18 18 12 14 0 11 0 24 -13 6 -17 0 -12 0 -10 -10 -20 -20 -30 -30 -36 -46 -50 -10 rrcurveto
            -16 -3 -25 -5 -35 -4 -11 80 -35 84 -90 0 -42 0 -38 -6 -20 -15 rrcurveto
            return
          </CharString>
          <CharString index="335">
            -10 1 -6 1 -22 0 rrcurveto
            -116 -66 -177 -120 -136 59 -134 136 156 109 203 160 hvcurveto
            return
          </CharString>
          <CharString index="336">
            -16 0 -16 21 -5 5 -37 35 -54 19 -60 0 rrcurveto
            -20 -10 -10 -20 -20 10 -10 20 73 67 -32 -83 -30 -32 -95 -83 hvcurveto
            -23 0 -85 9 -37 38 -6 6 -24 23 0 34 0 36 23 21 28 32 17 19 22 12 0 20 rrcurveto
            return
          </CharString>
          <CharString index="337">
            20 -10 10 -20 -20 -100 -92 -78 vhcurveto
            0 -36 20 -42 29 -28 55 -53 99 -11 32 0 126 0 49 134 0 51 0 12 -1 12 -2 11 74 2 40 30 9 7 20 15 10 10 0 11 rrcurveto
            20 -10 10 -20 vhcurveto
            -20 0 -22 -45 -90 0 rrcurveto
            return
          </CharString>
          <CharString index="338">
            -8 0 -8 0 -10 -1 3 48 3 50 0 51 rrcurveto
            return
          </CharString>
          <CharString index="339">
            19 -6 17 -6 19 0 6 0 6 1 7 1 66 12 30 36 50 50 18 18 12 14 0 11 0 24 -13 6 -17 0 -12 0 -10 -10 -20 -20 rrcurveto
            -30 -30 -32 -43 -54 -10 -2 0 -2 -1 -2 0 -15 0 -16 9 -29 7 rrcurveto
            return
          </CharString>
          <CharString index="340">
            -3 23 -5 21 -6 24 -5 20 -9 10 -19 0 -11 0 -16 -10 0 -20 0 -3 1 -6 0 -2 rrcurveto
            return
          </CharString>
          <CharString index="341">
            12 -47 5 -26 0 -48 rrcurveto
            -162 -73 -204 -115 -87 -5 135 107 vhcurveto
            0 30 0 73 17 84 rrcurveto
            return
          </CharString>
          <CharString index="342">
            -18 -93 -2 -71 0 -42 rrcurveto
            -135 13 -165 139 vhcurveto
            167 81 249 176 hvcurveto
            return
          </CharString>
          <CharString index="343">
            13 -13 16 -8 21 0 48 0 51 45 50 50 18 18 12 14 0 11 0 24 -13 6 -17 0 -12 0 -10 -10 -20 -20 -50 -50 -37 -28 -20 0 rrcurveto
            -20 -21 80 8 20 -10 10 -20 -20 -10 -10 -20 -162 -36 -110 -112 -87 -5 195 107 20 -10 10 -20 -20 -10 -10 -20 -163 12 -197 140 hvcurveto
            127 0 49 90 23 113 rrcurveto
            return
          </CharString>
          <CharString index="344">
            20 10 12 20 20 -10 8 -20 hvcurveto
            -18 0 -56 -4 -18 0 -100 0 -86 7 -54 0 rrcurveto
            -20 -10 -10 -20 -20 10 -10 20 hvcurveto
            54 0 88 -7 74 0 -56 -69 -30 -108 0 -56 rrcurveto
            -134 81 -136 134 154 201 176 154 vhcurveto
            0 47 -14 60 -30 45 rrcurveto
            return
          </CharString>
          <CharString index="345">
            20 0 104 8 20 0 rrcurveto
            20 10 12 20 20 -10 8 -20 hvcurveto
            -20 0 -104 -8 -36 0 -8 0 -75 8 -17 0 rrcurveto
            -20 -10 -10 -20 -20 10 -10 20 66 34 -89 -71 -120 -175 -150 -120 -100 -55 110 100 hvcurveto
            71 61 166 81 vhcurveto
            return
          </CharString>
          <CharString index="346">
            0 53 -7 32 -11 45 -5 20 -9 10 -19 0 -11 0 -16 -10 0 -20 0 -3 1 -6 0 -2 rrcurveto
            return
          </CharString>
          <CharString index="347">
            20 10 10 20 hvcurveto
            return
          </CharString>
          <CharString index="348">
            20 -13 10 -17 vhcurveto
            -48 0 -54 5 -47 6 rrcurveto
            7 55 rlineto
            1 8 1 8 0 4 rrcurveto
            return
          </CharString>
          <CharString index="349">
            -16 0 -11 -6 -3 -24 rrcurveto
            -9 -66 rlineto
            -23 4 -17 2 -11 2 -6 1 -10 1 -4 0 rrcurveto
            return
          </CharString>
          <CharString index="350">
            6 -66 2 -78 0 -76 rrcurveto
            return
          </CharString>
          <CharString index="351">
            0 -120 -10 -118 0 -72 rrcurveto
            return
          </CharString>
          <CharString index="352">
            0 -42 8 -48 2 -10 5 -20 11 -10 14 0 20 0 10 10 0 20 rrcurveto
            return
          </CharString>
          <CharString index="353">
            0 4 -10 54 0 42 rrcurveto
            return
          </CharString>
          <CharString index="354">
            -2 20 -17 10 -11 0 -20 0 -10 -10 0 -20 0 -4 1 -7 1 -9 rrcurveto
            return
          </CharString>
          <CharString index="355">
            0 72 10 118 0 120 rrcurveto
            0 91 -2 69 -8 80 rrcurveto
            return
          </CharString>
          <CharString index="356">
            0 -132 -10 -136 0 -72 rrcurveto
            return
          </CharString>
          <CharString index="357">
            0 72 10 148 0 120 0 200 -29 76 -18 30 -12 20 -7 10 -14 0 -20 0 -10 -10 0 -20 0 -4 3 -11 9 -15 rrcurveto
            12 -20 26 -76 0 -180 rrcurveto
            return
          </CharString>
          <CharString index="358">
            -28 -7 rlineto
            -19 -5 -11 -5 0 -20 0 -16 10 -14 20 0 6 0 5 1 5 1 248 58 76 55 0 99 0 74 -43 161 -55 68 -54 66 -64 33 -54 0 rrcurveto
            -66 -64 -36 -24 -20 10 -10 20 hvcurveto
            20 0 20 30 60 0 40 0 45 -26 41 -51 47 -58 37 -151 0 -54 0 -47 -23 -39 -171 -48 -3 14 -6 29 -7 45 -5 32 -5 138 0 100 rrcurveto
            20 -10 10 -20 -20 -10 -10 -20 vhcurveto
            0 -100 4 -142 7 -40 8 -48 6 -30 3 -13 rrcurveto
            return
          </CharString>
          <CharString index="359">
            -28 23 -29 22 -40 0 rrcurveto
            -96 -84 -101 -123 -104 57 -32 65 hvcurveto
            63 0 49 55 38 76 7 -53 22 -37 41 -21 rrcurveto
            return
          </CharString>
          <CharString index="360">
            8 -4 12 -6 8 0 20 0 10 10 0 20 0 11 -7 9 -23 12 -30 16 -10 31 0 51 0 200 46 196 30 75 2 5 2 6 0 6 rrcurveto
            20 -10 10 -20 vhcurveto
            -16 0 -7 -10 -8 -20 rrcurveto
            -30 -75 -26 -120 -16 -148 rrcurveto
            return
          </CharString>
          <CharString index="361">
            -37 -109 -49 -91 -52 0 rrcurveto
            -41 -21 12 64 101 66 63 54 hvcurveto
            20 0 17 -14 10 -8 15 -12 4 -6 14 0 rrcurveto
            return
          </CharString>
          <CharString index="362">
            -13 -17 -6 -24 -21 14 -25 24 18 24 10 20 hvcurveto
            23 -29 23 -21 vhcurveto
            return
          </CharString>
          <CharString index="363">
            -13 -17 -6 -24 -21 14 -25 24 hvcurveto
            return
          </CharString>
          <CharString index="364">
            18 24 10 20 hvcurveto
            23 -29 23 -21 vhcurveto
            return
          </CharString>
          <CharString index="365">
            8 0 13 8 9 10 28 32 45 46 35 24 10 7 12 15 0 8 0 20 -10 10 -20 0 -8 0 -10 -5 -12 -8 -34 -24 -50 -52 -30 -32 rrcurveto
            -9 -9 -7 -12 0 -8 0 -20 10 -10 20 0 rrcurveto
            return
          </CharString>
          <CharString index="366">
            -10 -2 -9 -2 -8 -2 7 10 7 11 8 10 rrcurveto
            1 -8 3 -9 1 -8 rrcurveto
            return
          </CharString>
          <CharString index="367">
            8 14 5 17 0 19 0 26 -1 28 -3 29 46 5 59 2 69 0 rrcurveto
            20 10 16 14 15 -10 15 -20 hvcurveto
            -74 0 -59 -3 -48 -5 -3 23 -5 22 -5 22 31 27 37 22 36 12 18 6 12 10 0 14 0 20 -9 10 -20 0 -10 0 -6 -2 -6 -2 rrcurveto
            -34 -11 -33 -19 -32 -24 rrcurveto
            return
          </CharString>
          <CharString index="368">
            -21 58 -18 40 -48 0 -30 0 -45 -15 -12 -60 -12 -60 -31 -157 -56 -112 -5 -9 -2 -9 0 -8 0 -20 10 -10 20 0 18 0 4 11 9 19 rrcurveto
            60 120 35 180 8 40 4 20 5 10 20 0 9 0 15 -32 13 -49 -49 -48 -37 -58 -11 -53 -2 -10 -1 -10 0 -10 rrcurveto
            return
          </CharString>
          <CharString index="369">
            -72 40 -78 120 vhcurveto
            84 0 64 25 12 4 25 8 5 9 0 14 0 20 -10 10 -20 0 -6 0 -12 -4 -6 -2 rrcurveto
            -16 -5 -42 -16 -61 -3 rrcurveto
            return
          </CharString>
          <CharString index="370">
            2 -24 1 -25 0 -25 rrcurveto
            -14 -6 -16 -14 -20 -30 50 20 vhcurveto
            0 13 18 12 49 9 rrcurveto
            return
          </CharString>
          <CharString index="371">
            9 -1 6 -1 5 0 19 0 11 10 0 20 0 16 -12 12 -18 2 rrcurveto
            return
          </CharString>
          <CharString index="372">
            17 -10 13 -20 vhcurveto
            -13 0 -7 -6 -4 -8 rrcurveto
            return
          </CharString>
          <CharString index="373">
            -2 -16 -1 -24 -2 -10 -14 -78 -55 -52 -86 0 rrcurveto
            -60 -40 40 60 102 153 68 37 hvcurveto
            47 0 14 -39 14 -20 -2 -10 -1 -5 -2 -16 rrcurveto
            return
          </CharString>
          <CharString index="374">
            -73 -93 76 94 hvcurveto
            0 50 76 94 20 20 10 10 20 12 0 14 0 20 -10 10 -20 0 -11 0 -15 -7 -14 -14 -40 -40 -100 -116 -37 -97 -4 65 -7 139 -12 40 rrcurveto
            -6 20 -8 10 -16 0 -20 0 -10 -10 0 -20 0 -6 1 -4 3 -10 6 -20 20 -306 0 -54 0 -20 10 -10 20 0 16 0 8 9 6 20 rrcurveto
            5 18 43 118 10 20 10 -58 82 -127 130 0 rrcurveto
            20 10 10 20 20 -10 10 -20 hvcurveto
            return
          </CharString>
          <CharString index="375">
            21 -17 56 -52 29 -58 10 -20 11 -10 11 0 20 0 10 10 0 20 0 6 -2 9 -5 9 -30 60 -65 65 -20 17 25 14 30 10 37 0 rrcurveto
            20 10 10 20 20 -10 10 -20 hvcurveto
            -127 0 -73 -93 -25 -55 -3 15 -2 18 0 19 0 120 16 118 3 20 rrcurveto
            return
          </CharString>
          <CharString index="376">
            1 4 0 11 0 2 0 20 -10 10 -20 0 -16 0 -12 -9 -2 -20 rrcurveto
            return
          </CharString>
          <CharString index="377">
            -5 -40 -15 -116 0 -120 0 -61 30 -123 30 0 37 0 3 43 12 45 rrcurveto
            4 14 12 28 24 27 rrcurveto
            return
          </CharString>
          <CharString index="378">
            53 32 41 53 0 56 rrcurveto
            54 -60 106 -220 -20 -10 -10 -20 -20 10 -10 20 168 52 -70 -30 -54 -76 -56 -54 -20 -10 -10 -20 -20 10 -10 20 vhcurveto
            return
          </CharString>
          <CharString index="379">
            110 70 -173 -50 -43 -34 -16 -46 hvcurveto
            -36 0 -27 9 -17 13 -14 11 -8 9 -8 0 -20 0 -10 -10 0 -20 0 -11 9 -13 12 -10 28 -23 41 -15 50 0 82 0 58 44 0 76 rrcurveto
            0 54 -50 138 -94 59 rrcurveto
            return
          </CharString>
          <CharString index="380">
            60 46 116 86 0 88 0 60 -62 30 -52 0 -82 0 -106 -17 -100 -15 -20 -3 -10 -15 0 -14 0 -20 10 -10 20 0 6 0 1 1 9 1 rrcurveto
            100 15 112 17 60 0 20 0 34 -9 0 -21 0 -54 -94 -74 -58 -45 -72 -56 -118 -73 0 -94 0 -94 142 -6 90 0 78 0 37 8 26 9 rrcurveto
            25 8 12 11 0 14 0 20 -10 10 -20 0 -4 0 -14 -4 -6 -2 -18 -6 -34 -8 -72 0 -135 0 -37 20 0 20 0 60 95 61 71 55 rrcurveto
            return
          </CharString>
          <CharString index="381">
            -25 -6 -10 -4 vhcurveto
            -20 0 -24 36 -36 72 -10 20 -6 10 -14 0 -20 0 -10 -13 0 -17 0 -11 3 -9 4 -8 60 -120 33 -20 40 0 20 0 17 9 13 17 rrcurveto
            13 -19 9 -7 8 0 20 0 10 10 0 20 0 8 -4 10 -8 14 -15 23 -5 8 -9 18 -4 31 -15 16 -7 10 -11 14 -8 16 -14 0 rrcurveto
            -20 -10 -10 -20 hvcurveto
            0 -11 3 -9 4 -8 rrcurveto
            return
          </CharString>
          <CharString index="382">
            40 0 44 -14 40 -20 12 -6 8 -2 6 0 20 0 10 10 0 20 0 12 -11 9 -21 11 -40 20 -54 20 -54 0 -66 0 -62 -20 -30 -10 rrcurveto
            -18 -6 -14 -12 -9 -12 -15 -20 -6 -13 0 -9 0 -20 10 -10 20 0 8 0 12 10 14 20 4 5 6 8 6 2 30 10 50 17 60 0 rrcurveto
            return
          </CharString>
          <CharString index="383">
            -54 0 -16 -2 -20 -8 -19 -7 -11 -9 0 -14 0 -20 10 -10 20 0 6 0 9 2 5 2 10 4 16 2 44 0 75 0 103 10 72 16 rrcurveto
            20 4 10 10 0 16 0 23 -12 7 -18 0 -3 0 -7 -1 -10 -2 -65 -13 -99 -10 -66 0 rrcurveto
            return
          </CharString>
          <CharString index="384">
            20 -10 10 -20 vhcurveto
            -16 0 -10 -13 -4 -17 -2 -7 -7 -31 -10 -60 -7 -40 -4 -142 0 -100 rrcurveto
            -20 10 -10 20 20 10 10 20 vhcurveto
            0 100 5 138 5 32 9 58 8 32 1 6 1 5 1 7 0 2 rrcurveto
            return
          </CharString>
          <CharString index="385">
            20 10 10 20 4 -1 6 0 hvcurveto
            -6 30 -3 30 0 40 0 120 -46 50 -54 0 -76 0 -30 -63 -24 -54 -17 -39 -15 -34 -38 0 -20 0 -10 69 0 45 0 133 9 67 10 100 rrcurveto
            return
          </CharString>
          <CharString index="386">
            3 30 7 14 0 8 0 20 -10 10 -20 0 -16 0 -8 -11 -6 -19 -4 -16 -3 -10 -2 -20 rrcurveto
            return
          </CharString>
          <CharString index="387">
            -10 -100 -10 -54 0 -152 0 -115 36 -59 54 0 68 0 34 53 22 51 19 44 15 42 42 0 29 0 11 -56 0 -54 0 -44 3 -30 7 -36 rrcurveto
            5 -24 9 -6 16 0 rrcurveto
            return
          </CharString>
          <CharString index="388">
            10 -6 12 -5 3 0 20 0 10 10 0 20 0 8 -10 13 -20 16 -13 10 -12 8 -13 5 -15 99 -18 90 -13 47 -6 21 -12 18 -14 10 rrcurveto
            -13 8 -13 3 -10 0 -59 0 -21 -56 -10 -31 -33 -100 -19 -63 -16 -60 -12 -1 -11 0 -7 0 rrcurveto
            -20 -10 -10 -20 -20 10 -10 20 hvcurveto
            15 0 -43 -173 rlineto
            -1 -2 -1 -5 0 -5 0 -20 10 -10 20 0 18 0 7 10 5 20 rrcurveto
            48 191 rlineto
            return
          </CharString>
          <CharString index="389">
            67 12 51 7 51 0 11 -74 24 -109 28 -57 8 -17 8 -13 14 0 20 0 10 9 0 21 0 2 -2 15 -5 10 rrcurveto
            -15 31 -21 87 -12 66 rrcurveto
            return
          </CharString>
          <CharString index="390">
            -44 -1 -45 -4 -55 -10 15 56 19 58 27 82 7 20 6 25 20 0 11 0 23 -117 16 -109 rrcurveto
            return
          </CharString>
          <CharString index="391">
            0 72 80 408 18 72 1 5 1 7 0 8 0 24 -13 6 -17 0 -12 0 -10 -10 -20 -20 -50 -50 -38 -30 -20 0 -20 0 -16 58 -4 20 rrcurveto
            -4 20 -7 10 -20 0 -20 0 -9 -10 0 -20 0 -1 0 -4 2 -7 6 -30 24 -96 68 0 34 0 34 23 35 31 -38 -193 -45 -213 0 -80 rrcurveto
            -20 10 -10 20 16 14 13 17 vhcurveto
            return
          </CharString>
          <CharString index="392">
            20 38 24 28 22 0 rrcurveto
            20 10 -10 -20 -30 -40 -10 -30 hvcurveto
            -10 0 -9 1 -7 3 rrcurveto
            return
          </CharString>
          <CharString index="393">
            -37 -109 -49 -91 -52 0 rrcurveto
            -41 -21 12 64 101 66 63 54 hvcurveto
            20 0 17 -14 10 -8 rrcurveto
            15 -12 4 -6 14 0 rrcurveto
            return
          </CharString>
          <CharString index="394">
            -20 -10 -10 -20 hvcurveto
            0 -9 10 -16 20 -5 rrcurveto
            return
          </CharString>
          <CharString index="395">
            -29 14 -20 22 0 36 0 72 60 78 72 0 54 0 24 -20 20 0 rrcurveto
            20 10 10 20 20 -56 30 -72 -105 -87 -105 -105 hvcurveto
            0 -68 40 -41 57 -22 -5 -36 -2 -35 0 -28 rrcurveto
            -20 10 -10 20 20 10 10 20 vhcurveto
            0 18 2 31 4 35 18 -3 19 -1 19 0 rrcurveto
            72 86 28 72 63 -65 57 -63 hvcurveto
            -75 0 -38 -66 -20 -76 rrcurveto
            return
          </CharString>
          <CharString index="396">
            13 52 23 45 40 0 rrcurveto
            30 38 -30 -30 -30 -68 -10 -30 hvcurveto
            -15 0 -16 1 -15 2 rrcurveto
            return
          </CharString>
          <CharString index="397">
            20 8 10 11 0 11 0 20 -15 10 -15 0 -6 0 -9 -3 -10 -4 -20 -8 -97 -25 -58 0 rrcurveto
            -30 -30 22 20 34 52 24 20 hvcurveto
            48 hlineto
            20 10 10 20 20 -10 10 -20 hvcurveto
            -38 hlineto
            return
          </CharString>
          <CharString index="398">
            -50 -12 20 20 hvcurveto
            0 44 100 21 20 5 20 5 10 11 0 14 0 20 -10 10 -20 0 -4 0 -8 -1 -8 -2 -20 -5 -140 -26 0 -96 0 -20 10 -34 20 -16 rrcurveto
            return
          </CharString>
          <CharString index="399">
            -20 -14 -30 -28 0 -48 0 -54 59 -46 61 0 rrcurveto
            73 0 97 28 30 12 rrcurveto
            return
          </CharString>
          <CharString index="400">
            16 -36 9 -42 0 -49 rrcurveto
            -20 -10 -10 -20 -20 -30 20 30 vhcurveto
            0 30 29 42 26 35 rrcurveto
            return
          </CharString>
          <CharString index="401">
            42 48 45 49 21 31 10 15 5 9 0 11 0 20 -10 10 -20 0 -8 0 -11 -9 -14 -21 -20 -30 -37 -39 -38 -42 -54 68 -74 42 -62 25 rrcurveto
            -10 4 -3 2 -9 0 -20 0 -10 -10 0 -20 0 -14 10 -8 20 -8 59 -25 67 -39 47 -63 -40 -49 -43 -67 0 -47 rrcurveto
            -62 56 -48 54 54 36 36 54 vhcurveto
            0 70 -17 59 -26 48 rrcurveto
            return
          </CharString>
          <CharString index="402">
            -123 vlineto
            -100 9 -89 0 vhcurveto
            -11 5 -15 8 -13 15 -13 15 -3 6 -14 0 -20 0 -10 -10 0 -20 0 -11 7 -7 13 -15 26 -30 33 -27 113 0 90 0 64 31 40 32 rrcurveto
            20 16 4 9 0 9 0 17 -10 8 -20 0 -4 0 -12 -1 -8 -7 -40 -32 -56 -22 -68 0 -16 0 -9 1 -7 0 rrcurveto
            0 -10 98 101 hvcurveto
            135 vlineto
            25 3 26 2 29 0 57 0 45 -20 20 -10 12 -6 9 -4 7 0 20 0 10 10 0 20 0 11 -10 12 -20 10 -20 10 -55 27 -75 0 rrcurveto
            -101 0 -50 -17 -79 -22 -20 -6 -10 -11 0 -14 0 -20 10 -10 20 0 4 0 8 3 4 1 26 7 24 7 24 5 rrcurveto
            return
          </CharString>
          <CharString index="403">
            39 -52 26 -50 0 -50 rrcurveto
            -43 -34 -16 -46 -66 -34 30 30 vhcurveto
            0 63 56 50 59 38 rrcurveto
            return
          </CharString>
          <CharString index="404">
            56 42 119 68 vhcurveto
            10 0 14 -1 10 -2 rrcurveto
            return
          </CharString>
          <CharString index="405">
            14 5 17 5 22 0 42 0 31 -64 0 -56 0 -92 -14 -110 -111 -18 2 61 3 69 0 60 rrcurveto
            0 55 -2 46 -4 39 rrcurveto
            return
          </CharString>
          <CharString index="406">
            4 -37 2 -45 0 -53 0 -65 -3 -66 -2 -59 -69 6 -26 38 0 106 0 56 26 119 68 0 rrcurveto
            return
          </CharString>
          <CharString index="407">
            -113 -8 -32 -161 0 -66 0 -134 47 -67 106 -9 rrcurveto
            return
          </CharString>
          <CharString index="408">
            0 4 -10 54 0 42 0 24 2 30 1 36 171 19 16 164 0 97 0 69 -40 111 -93 0 -25 0 -20 -5 -16 -5 -11 62 -15 35 -10 17 rrcurveto
            -9 15 -10 7 -11 0 -20 0 -10 -10 0 -20 0 -6 5 -9 3 -5 7 -10 11 -29 9 -52 rrcurveto
            return
          </CharString>
          <CharString index="409">
            1 3 1 6 0 6 rrcurveto
            20 -10 10 -20 vhcurveto
            return
          </CharString>
          <CharString index="410">
            20 10 -10 -20 hvcurveto
            0 -20 -27 -12 -40 -5 rrcurveto
            return
          </CharString>
          <CharString index="411">
            -3 hlineto
            -40 -40 20 40 hvcurveto
            0 30 109 44 60 20 rrcurveto
            return
          </CharString>
          <CharString index="412">
            60 20 11 38 0 28 0 54 -36 36 -54 0 -54 0 -105 -24 -21 -6 -21 -7 -9 -9 0 -14 0 -20 10 -10 20 0 7 0 8 2 6 2 rrcurveto
            21 7 88 19 50 0 20 0 10 -10 0 -20 0 -4 -9 -18 -21 -7 -90 -30 -120 -48 0 -73 0 -74 66 -46 74 0 rrcurveto
            -20 vlineto
            -17 17 -13 13 8 22 13 17 vhcurveto
            23 vlineto
            return
          </CharString>
          <CharString index="413">
            54 -36 36 -54 vhcurveto
            -52 0 -37 -38 -8 -92 rrcurveto
            return
          </CharString>
          <CharString index="414">
            -49 0 -30 40 -21 0 rrcurveto
            -20 -10 -10 -20 -20 62 -50 68 139 121 68 82 71 -62 29 -68 -45 -35 11 9 hvcurveto
            return
          </CharString>
          <CharString index="415">
            0 20 50 4 0 66 rrcurveto
            63 -37 37 -63 -97 -43 -124 -66 vhcurveto
            0 -61 4 -21 4 -20 4 -20 9 -10 19 0 20 0 10 10 0 20 0 5 -1 4 -1 3 -4 20 -4 19 0 51 rrcurveto
            65 39 65 41 30 10 -10 -30 vhcurveto
            return
          </CharString>
          <CharString index="416">
            0 -29 -50 -6 0 -55 rrcurveto
            -60 64 -20 76 41 29 -11 -29 vhcurveto
            -40 -96 -50 -104 vhcurveto
            return
          </CharString>
          <CharString index="417">
            -3 -13 -6 -21 0 0 -5 -18 -19 -37 -34 0 -20 0 -20 10 0 20 0 17 51 32 56 10 rrcurveto
            return
          </CharString>
          <CharString index="418">
            0 64 -77 16 -48 9 -49 9 -46 17 0 17 0 28 30 20 30 0 20 0 14 -2 20 -10 11 -6 7 -2 8 0 20 0 10 10 0 20 rrcurveto
            0 11 -10 11 -20 10 -20 10 -30 8 -30 0 -62 0 -58 -44 0 -62 0 -72 90 -20 52 -11 42 -9 36 -10 0 -12 rrcurveto
            -20 -42 -40 -108 -20 -10 -10 -20 -20 10 -10 20 120 90 48 72 vhcurveto
            return
          </CharString>
          <CharString index="419">
            -80 0 -37 0 -9 -1 3 48 3 52 0 51 rrcurveto
            return
          </CharString>
          <CharString index="420">
            -18 -12 -13 -17 hvcurveto
            0 -53 -2 -53 -4 -49 -15 -2 -13 -2 -7 -1 -17 -3 -12 -13 0 -14 0 -20 10 -10 20 0 6 0 17 2 5 1 rrcurveto
            return
          </CharString>
          <CharString index="421">
            -8 -90 -10 -61 0 -72 rrcurveto
            return
          </CharString>
          <CharString index="422">
            -144 34 -58 56 vhcurveto
            return
          </CharString>
          <CharString index="423">
            20 0 20 4 12 4 25 8 5 10 0 14 0 20 -10 10 -20 0 -4 0 -14 -5 -6 -2 rrcurveto
            return
          </CharString>
          <CharString index="424">
            -6 -2 -14 -1 -8 0 rrcurveto
            return
          </CharString>
          <CharString index="425">
            -21 -9 70 72 hvcurveto
            0 63 10 68 9 98 13 1 38 0 80 0 rrcurveto
            17 13 10 20 hvcurveto
            20 -10 10 -20 vhcurveto
            return
          </CharString>
          <CharString index="426">
            40 7 45 5 51 0 rrcurveto
            19 11 10 20 20 -13 10 -17 hvcurveto
            -47 0 -44 -4 -39 -6 7 69 8 69 6 63 9 104 23 28 10 15 3 5 4 9 0 6 0 20 -10 10 -20 0 -11 0 -10 -7 -9 -15 rrcurveto
            -14 -24 -25 -28 -10 -118 -6 -68 -9 -75 -8 -75 -94 -22 -57 -33 -13 -6 -54 -26 -20 -48 0 -43 0 -150 75 -122 50 -80 rrcurveto
            return
          </CharString>
          <CharString index="427">
            54 36 36 54 hvcurveto
            0 24 -4 28 -6 20 rrcurveto
            return
          </CharString>
          <CharString index="428">
            -12 40 -8 56 0 54 rrcurveto
            0 67 6 80 8 81 rrcurveto
            return
          </CharString>
          <CharString index="429">
            -7 -76 -5 -74 0 -64 0 -72 10 -50 12 -40 rrcurveto
            return
          </CharString>
          <CharString index="430">
            -20 -10 -10 -20 vhcurveto
            -20 0 -8 7 -15 24 -51 80 -66 109 0 132 0 20 9 27 29 15 12 6 45 26 77 20 rrcurveto
            return
          </CharString>
          <CharString index="431">
            0 8 -15 15 -15 15 -15 15 -25 31 0 76 0 200 36 171 40 100 2 5 2 6 0 6 0 20 -10 10 -20 0 -16 0 -7 -10 -8 -20 rrcurveto
            -40 -100 -39 -177 0 -211 0 -76 20 -50 40 -40 15 -15 11 -9 14 0 20 0 10 10 0 20 rrcurveto
            return
          </CharString>
          <CharString index="432">
            36 0 35 38 34 35 30 30 24 27 11 0 20 0 10 -10 0 -20 0 -44 3 -20 7 -36 5 -24 9 -6 16 0 rrcurveto
            20 10 10 20 4 -1 6 0 hvcurveto
            -6 30 -3 20 0 40 0 54 -36 36 -54 0 -36 0 -36 -38 -34 -35 -29 -30 -24 -27 -11 0 -20 0 -10 10 0 20 0 40 13 95 5 30 rrcurveto
            1 6 0 3 0 4 0 20 -10 10 -20 0 -16 0 -11 -10 -3 -20 -5 -30 -14 -107 0 -41 0 -54 36 -36 54 0 rrcurveto
            return
          </CharString>
          <CharString index="433">
            0 -54 71 -82 0 -94 rrcurveto
            -24 -36 -26 -24 -24 -16 16 24 vhcurveto
            0 20 30 6 0 24 rrcurveto
            18 -10 12 -20 -24 -36 -46 -34 -56 44 -44 56 56 64 54 56 vhcurveto
            0 105 -70 88 0 37 rrcurveto
            20 -11 10 -20 vhcurveto
            -20 -10 -10 -20 hvcurveto
            return
          </CharString>
          <CharString index="434">
            -2 19 0 11 0 11 rrcurveto
            30 -17 40 -24 -20 -10 -10 -20 vhcurveto
            0 -4 10 -26 0 -10 0 -30 2 -34 24 -96 6 -24 8 -6 20 0 16 0 12 21 2 9 20 80 30 90 20 0 40 0 45 -36 15 -44 rrcurveto
            5 -16 9 -14 16 0 20 0 10 13 0 17 0 8 -2 5 -2 6 -21 64 -67 57 -68 0 -47 0 -29 -52 -21 -59 rrcurveto
            return
          </CharString>
          <CharString index="435">
            11 0 8 7 14 23 36 60 17 32 50 50 9 9 5 5 0 12 0 20 -10 10 -20 0 -14 0 -5 -6 -8 -8 -60 -60 -13 -30 -36 -60 rrcurveto
            -12 -20 -2 -8 0 -6 0 -20 10 -10 20 0 rrcurveto
            return
          </CharString>
          <CharString index="436">
            -26 -110 -23 -28 -20 -20 -20 -20 -10 -9 0 -11 0 -20 16 -10 14 0 11 0 11 8 20 20 20 20 35 38 30 126 2 8 1 3 0 5 rrcurveto
            20 -10 10 -20 vhcurveto
            -15 0 -11 -9 -5 -21 rrcurveto
            return
          </CharString>
          <CharString index="437">
            24 0 34 30 32 0 30 0 30 -12 0 -30 0 -30 -60 -33 -40 -20 -30 -15 -20 -22 0 -16 0 -20 10 -10 20 0 16 0 11 20 20 10 rrcurveto
            40 20 93 49 0 67 rrcurveto
            65 -55 37 -65 -37 -83 -36 -24 -20 10 -10 20 vhcurveto
            return
          </CharString>
          <CharString index="438">
            30 44 88 68 28 28 19 19 11 9 0 12 0 20 -10 10 -20 0 -14 0 -8 -7 -19 -19 -46 -46 -93 -65 -24 -60 -4 -10 -2 -7 0 -14 rrcurveto
            0 -14 10 -8 20 -10 59 -30 53 -58 16 -20 16 -20 10 -10 11 0 17 0 14 10 0 20 0 10 -14 19 -16 19 -15 19 -60 59 -57 32 rrcurveto
            return
          </CharString>
          <CharString index="439">
            -57 -32 -60 -59 -15 -19 -16 -19 -14 -19 0 -10 0 -20 14 -10 17 0 11 0 10 10 16 20 16 20 53 58 59 30 20 10 10 8 0 14 rrcurveto
            0 14 -2 7 -4 10 -24 60 -93 65 -46 46 -19 19 -8 7 -14 0 -20 0 -10 -10 0 -20 0 -12 11 -9 19 -19 28 -28 88 -68 30 -44 rrcurveto
            return
          </CharString>
          <CharString index="440">
            -48 22 -66 66 -28 28 -19 19 -9 11 -12 0 -20 0 -10 -10 0 -20 0 -14 7 -8 19 -19 46 -46 67 -65 60 -24 rrcurveto
            return
          </CharString>
          <CharString index="441">
            10 -4 7 0 14 0 14 0 8 10 10 20 30 59 58 53 20 16 20 16 10 10 0 11 0 17 -10 14 -20 0 -10 0 -19 -14 -19 -16 rrcurveto
            -19 -15 -59 -60 -32 -57 rrcurveto
            return
          </CharString>
          <CharString index="442">
            0 20 10 150 0 20 rrcurveto
            20 -10 10 -20 -20 -10 -10 -20 vhcurveto
            0 -19 -10 -151 0 -20 rrcurveto
            return
          </CharString>
          <CharString index="443">
            0 11 -8 9 -24 24 -33 33 -5 10 0 33 0 30 6 51 20 50 rrcurveto
            return
          </CharString>
          <CharString index="444">
            2 5 2 6 0 6 rrcurveto
            return
          </CharString>
          <CharString index="445">
            -16 0 -7 -10 -8 -20 rrcurveto
            return
          </CharString>
          <CharString index="446">
            -20 -50 -9 -64 0 -34 0 -50 15 -27 43 -43 24 -24 7 -6 11 0 rrcurveto
            20 10 10 20 hvcurveto
            return
          </CharString>
          <CharString index="447">
            -20 0 -17 -20 -11 -11 -20 -20 -92 -71 -50 -25 -20 -10 -10 -7 0 -16 0 -20 10 -10 20 0 8 0 5 2 10 5 52 26 86 66 34 29 rrcurveto
            15 -28 20 -23 0 -19 rrcurveto
            return
          </CharString>
          <CharString index="448">
            -28 -10 -20 -30 vhcurveto
            -8 0 -6 2 -20 10 -11 6 -7 2 -8 0 rrcurveto
            return
          </CharString>
          <CharString index="449">
            -20 -10 -10 -20 hvcurveto
            0 -14 10 -8 20 -10 rrcurveto
            return
          </CharString>
          <CharString index="450">
            20 -10 20 -8 20 0 62 0 38 44 0 62 0 54 -50 40 0 30 rrcurveto
            20 -10 10 -20 vhcurveto
            return
          </CharString>
          <CharString index="451">
            480 hlineto
            20 10 10 20 20 -10 10 -20 hvcurveto
            -480 hlineto
            -20 -10 -10 -20 -20 10 -10 20 hvcurveto
            return
          </CharString>
          <CharString index="452">
            20 -10 10 -20 -20 -10 -10 -20 vhcurveto
            0 -81 -8 -46 0 -81 rrcurveto
            return
          </CharString>
          <CharString index="453">
            0 -29 -2 -25 0 -20 rrcurveto
            -20 10 -10 20 20 10 10 20 vhcurveto
            0 20 2 25 0 29 rrcurveto
            0 81 8 64 0 63 rrcurveto
            return
          </CharString>
          <CharString index="454">
            -20 -10 -10 -20 -74 30 -68 60 hvcurveto
            30 0 38 16 12 4 25 8 5 10 0 14 0 20 -10 10 -20 0 -4 0 -14 -5 -6 -2 -12 -4 -24 -11 -20 0 rrcurveto
            -20 -10 52 30 20 -10 10 -20 hvcurveto
            return
          </CharString>
          <CharString index="455">
            20 -10 10 -20 vhcurveto
            -8 0 -12 -7 -12 -8 -105 -70 -108 -43 -105 0 -115 0 -154 44 -144 72 -4 2 -7 2 -6 0 -20 0 -10 -10 0 -20 0 -14 10 -9 20 -10 rrcurveto
            144 -72 171 -45 115 0 120 0 125 53 105 70 18 12 12 9 0 14 rrcurveto
            return
          </CharString>
          <CharString index="456">
            -20 -4 -10 -6 0 -20 rrcurveto
            -20 10 -10 20 vhcurveto
            10 hlineto
            return
          </CharString>
          <CharString index="457">
            20 4 340 16 210 0 rrcurveto
            20 10 10 20 20 -10 10 -20 hvcurveto
            -210 0 -350 -16 -20 -4 rrcurveto
            return
          </CharString>
          <CharString index="458">
            20 -10 10 -20 vhcurveto
            -6 0 -8 -1 -10 -6 rrcurveto
            return
          </CharString>
          <CharString index="459">
            -10 -5 -8 -8 -20 0 -14 0 -13 23 -11 9 rrcurveto
            return
          </CharString>
          <CharString index="460">
            -12 10 -16 8 -22 0 -31 0 -29 -24 -20 -20 -15 -15 -9 -11 -16 0 -14 0 -24 70 -31 26 rrcurveto
            return
          </CharString>
          <CharString index="461">
            -10 9 -19 5 -12 0 -31 0 -20 -20 -20 -24 -24 -28 -41 -68 -14 0 -24 0 -21 100 -39 33 rrcurveto
            return
          </CharString>
          <CharString index="462">
            -12 10 -15 7 -19 0 -64 0 -36 -18 -20 -10 -11 -6 -9 -4 -5 -6 -4 -4 -1 -6 0 -6 0 -11 3 -8 6 -5 5 -4 7 -2 9 0 rrcurveto
            8 0 7 2 14 7 20 10 17 11 54 0 24 0 21 -100 39 -33 12 -10 15 -7 19 0 30 0 21 20 20 24 rrcurveto
            return
          </CharString>
          <CharString index="463">
            22 27 43 69 14 0 14 0 25 -71 30 -25 10 -9 19 -5 12 0 33 0 24 19 20 20 rrcurveto
            return
          </CharString>
          <CharString index="464">
            16 16 17 15 10 0 14 0 12 -22 11 -9 rrcurveto
            return
          </CharString>
          <CharString index="465">
            12 -10 17 -9 22 0 30 0 12 6 20 12 rrcurveto
            11 7 19 14 0 11 rrcurveto
            return
          </CharString>
          <CharString index="466">
            -20 0 -333 -9 -113 0 -40 0 -92 7 -40 10 -10 2 -4 1 -4 0 -20 0 -10 -10 0 -20 0 -16 10 -10 20 -5 40 -10 110 -9 40 0 rrcurveto
            return
          </CharString>
          <CharString index="467">
            148 0 298 11 148 0 -43 -26 -38 -39 -13 -13 -24 -24 -6 -8 0 -11 0 -20 13 -10 17 0 11 0 7 6 24 24 24 24 45 44 59 30 rrcurveto
            20 10 10 8 0 22 0 14 -9 10 -21 7 -60 20 -126 46 -50 20 -10 4 -8 2 -6 0 -20 0 -10 -11 0 -20 0 -14 10 -8 20 -8 rrcurveto
            return
          </CharString>
          <CharString index="468">
            0 -120 -10 -38 0 -72 rrcurveto
            return
          </CharString>
          <CharString index="469">
            54 -36 36 -54 vhcurveto
            return
          </CharString>
          <CharString index="470">
            80 70 49 91 119 -68 81 -102 hvcurveto
            -28 0 -30 -10 -22 -13 -18 -11 -12 -12 0 -14 0 -20 10 -10 20 0 20 0 18 30 42 0 rrcurveto
            70 40 -58 -82 -56 -55 -24 -35 hvcurveto
            -30 0 -43 10 -7 0 -20 0 -10 -10 0 -20 0 -18 10 -8 20 -4 6 -1 44 -9 30 0 rrcurveto
            return
          </CharString>
          <CharString index="471">
            -13 -17 -6 -24 -21 14 -21 24 18 20 10 20 23 -25 19 -21 hvcurveto
            return
          </CharString>
          <CharString index="472">
            30 0 44 9 6 1 20 4 10 8 0 18 0 20 -10 10 -20 0 -7 0 -43 -10 -30 0 rrcurveto
            -35 -55 24 56 82 40 58 70 hvcurveto
            42 0 18 -30 20 0 20 0 10 10 0 20 0 14 -12 12 -18 11 -22 13 -30 10 -28 0 rrcurveto
            -102 -68 -81 -119 -91 70 -49 80 hvcurveto
            return
          </CharString>
          <CharString index="473">
            -18 0 -9 -10 -8 -20 -20 -50 -31 -72 -20 -54 -60 -162 -22 -100 -37 -55 -10 -15 -5 -10 0 -8 0 -20 10 -10 20 0 11 0 9 9 14 21 rrcurveto
            37 55 29 113 60 162 13 35 16 41 16 38 26 -94 16 -114 16 -80 -33 27 -34 23 -22 9 -10 4 -10 1 -4 0 -20 0 -10 -10 0 -20 rrcurveto
            0 -14 10 -9 20 -8 50 -20 86 -79 20 -30 14 -21 9 -9 11 0 20 0 10 10 0 20 0 8 -4 10 -10 15 -10 15 -15 41 -9 45 rrcurveto
            -20 100 -19 156 -42 106 -8 20 -7 10 -16 0 rrcurveto
            return
          </CharString>
          <CharString index="474">
            30 20 -20 -30 hvcurveto
            0 -20 -20 -10 0 -20 rrcurveto
            -20 10 -10 20 24 26 50 30 62 -48 48 -62 -104 -106 -115 -105 vhcurveto
            0 -58 38 -56 52 -19 rrcurveto
            return
          </CharString>
          <CharString index="475">
            -41 -38 -29 -49 0 -60 0 -80 50 -60 80 0 105 0 75 36 40 30 20 15 10 9 0 10 0 20 -10 10 -20 0 -8 0 -13 -6 -12 -9 rrcurveto
            -40 -30 -57 -25 -90 0 -47 0 -23 34 0 46 0 72 60 58 90 30 21 7 9 9 0 14 0 20 -10 10 -20 0 -6 0 -6 -1 -9 -3 rrcurveto
            -27 -9 -23 -7 -29 0 rrcurveto
            return
          </CharString>
          <CharString index="476">
            -40 -30 40 40 hvcurveto
            72 78 88 72 vhcurveto
            return
          </CharString>
          <CharString index="477">
            14 -11 16 -6 4 0 20 0 10 10 0 20 0 8 -10 13 -20 16 -10 8 -10 6 -10 5 -1 156 -31 82 -18 30 -9 15 -10 7 -11 0 rrcurveto
            -20 -10 -10 -20 hvcurveto
            0 -4 2 -6 6 -10 11 -19 28 -79 3 -128 -54 0 -54 -5 -83 -17 1 20 0 24 0 28 rrcurveto
            return
          </CharString>
          <CharString index="478">
            0 91 -2 -11 -8 80 -2 20 -17 10 -11 0 -20 0 -10 -10 0 -20 0 -6 1 -5 1 -9 rrcurveto
            return
          </CharString>
          <CharString index="479">
            6 -66 2 2 0 -76 0 -29 -1 -25 -1 -21 -19 0 -9 -11 0 -19 0 -18 8 -10 17 -2 rrcurveto
            return
          </CharString>
          <CharString index="480">
            0 4 -10 54 0 42 0 36 2 28 3 34 5 1 5 0 5 1 71 14 54 6 53 0 -3 -40 -5 -48 0 -32 rrcurveto
            return
          </CharString>
          <CharString index="481">
            0 4 -10 54 0 42 rrcurveto
            0 27 3 36 3 34 rrcurveto
            return
          </CharString>
          <CharString index="482">
            -13 -17 -6 -24 -21 14 -21 24 18 20 10 20 hvcurveto
            23 -25 19 -21 vhcurveto
            return
          </CharString>
          <CharString index="483">
            20 0 3 10 40 0 rrcurveto
            42 31 -64 -56 -100 -60 -128 -100 -72 -48 78 72 hvcurveto
            return
          </CharString>
          <CharString index="484">
            72 42 119 68 vhcurveto
            10 0 14 -1 10 -2 rrcurveto
            return
          </CharString>
          <CharString index="485">
            -8 1 -5 1 -19 0 rrcurveto
            -109 -61 -146 -105 -105 75 -105 105 135 85 153 135 hvcurveto
            return
          </CharString>
          <CharString index="486">
            69 -40 111 -93 vhcurveto
            -39 0 -9 -4 -17 -5 rrcurveto
            return
          </CharString>
          <CharString index="487">
            -10 147 -22 137 -13 22 -9 15 -10 7 -11 0 -20 0 -10 -10 0 -20 0 -4 2 -6 6 -10 12 -19 28 -223 2 -168 0 -42 8 -44 2 -10 rrcurveto
            5 -20 11 -10 14 0 20 0 10 10 0 20 0 4 -10 50 0 42 0 74 63 58 199 139 20 14 8 8 0 11 0 20 -10 10 -20 0 rrcurveto
            -11 0 -4 -1 -20 -14 -115 -80 -72 -57 -43 -50 rrcurveto
            return
          </CharString>
          <CharString index="488">
            -70 -72 135 72 100 55 110 100 120 95 -170 -120 hvcurveto
            return
          </CharString>
          <CharString index="489">
            -71 -34 -89 -66 -20 -10 -10 -20 -20 10 -10 20 vhcurveto
            return
          </CharString>
          <CharString index="490">
            17 0 75 8 8 0 rrcurveto
            return
          </CharString>
          <CharString index="491">
            36 0 64 -8 20 0 rrcurveto
            20 10 8 20 20 -10 12 -20 hvcurveto
            return
          </CharString>
          <CharString index="492">
            -20 0 -64 8 -20 0 30 45 14 60 0 47 rrcurveto
            154 -121 196 -154 -134 -81 -136 -134 vhcurveto
            0 -66 30 -68 56 -69 -20 0 -26 -2 -50 -5 rrcurveto
            return
          </CharString>
          <CharString index="493">
            -20 -2 -10 -12 0 -16 0 -20 10 -10 20 0 rrcurveto
            return
          </CharString>
          <CharString index="494">
            20 0 8 7 92 0 18 0 56 -4 18 0 rrcurveto
            20 10 8 20 hvcurveto
            20 -10 12 -20 vhcurveto
            return
          </CharString>
          <CharString index="495">
            -54 0 -122 -4 -72 -10 33 62 38 95 47 127 rrcurveto
            38 108 rlineto
            28 -95 22 -114 16 -79 7 -34 8 -31 11 -25 rrcurveto
            return
          </CharString>
          <CharString index="496">
            20 11 10 20 hvcurveto
            0 8 -5 10 -10 15 -10 15 -14 41 -9 45 -20 100 -29 156 -42 106 -8 20 -7 10 -16 0 -20 0 -8 -10 -7 -20 -21 -62 -20 -60 -20 -54 rrcurveto
            -60 -162 -42 -100 -37 -55 -10 -15 -5 -10 0 -8 0 -20 10 -10 20 0 4 0 9 1 10 4 60 24 203 1 73 0 rrcurveto
            return
          </CharString>
          <CharString index="497">
            86 -40 151 -80 vhcurveto
            -42 0 -28 -6 -20 -15 rrcurveto
            return
          </CharString>
          <CharString index="498">
            -10 1 -9 1 -11 0 rrcurveto
            -107 -33 -211 -86 -126 47 -144 98 hvcurveto
            111 0 98 122 22 168 16 2 8 10 0 18 rrcurveto
            0 16 -7 10 -13 3 rrcurveto
            return
          </CharString>
          <CharString index="499">
            65 12 86 7 65 0 8 0 15 0 16 -1 -18 -124 -67 -108 -85 0 -50 0 -35 110 0 104 rrcurveto
            return
          </CharString>
          <CharString index="500">
            -15 0 -15 1 -14 0 -76 0 -67 -5 -68 -12 12 82 30 89 33 0 11 0 10 -1 12 -2 7 -1 8 -2 4 0 13 0 14 4 4 17 rrcurveto
            return
          </CharString>
          <CharString index="501">
            6 4 15 0 16 0 20 0 40 -94 0 -80 rrcurveto
            return
          </CharString>
          <CharString index="502">
            -20 -10 -10 -20 hvcurveto
            0 -47 -2 -40 -2 -34 -22 25 -25 16 -29 0 rrcurveto
            -79 -31 -96 -74 -69 40 -61 70 hvcurveto
            28 0 36 13 29 58 rrcurveto
            return
          </CharString>
          <CharString index="503">
            10 -47 7 -54 0 -40 rrcurveto
            -20 11 -10 20 20 9 10 20 vhcurveto
            0 63 -15 99 -31 80 rrcurveto
            return
          </CharString>
          <CharString index="504">
            -20 -91 -30 -16 -13 0 rrcurveto
            -40 -10 43 27 50 19 60 31 hvcurveto
            20 0 24 -30 19 -43 rrcurveto
            return
          </CharString>
          <CharString index="505">
            0 11 -13 11 -20 20 -20 20 -27 35 0 75 rrcurveto
            320 vlineto
            63 -36 57 -54 vhcurveto
            -117 0 31 -200 -54 0 rrcurveto
            -17 -13 77 93 17 -12 13 -18 -19 -11 -12 -18 -194 45 -36 45 hvcurveto
            117 0 -31 200 54 0 20 0 10 -39 0 -21 rrcurveto
            -320 vlineto
            0 -94 36 -48 30 -30 20 -20 13 -10 11 0 20 0 10 10 0 20 rrcurveto
            return
          </CharString>
          <CharString index="506">
            20 0 10 20 20 0 rrcurveto
            20 10 -20 -60 -90 -60 -30 -80 -80 -20 150 120 20 -10 10 -20 -20 -10 -10 -20 -120 20 -210 140 120 80 61 119 80 -22 60 -68 -38 -42 -30 -20 -20 8 -10 22 hvcurveto
            return
          </CharString>
          <CharString index="507">
            -108 80 -52 120 vhcurveto
            108 0 59 46 30 54 rrcurveto
            return
          </CharString>
          <CharString index="508">
            25 -26 44 -24 54 0 rrcurveto
            110 100 80 110 72 -60 48 -80 -20 -10 -10 -20 -20 10 -10 20 44 36 -20 -40 -76 -73 -54 -77 hvcurveto
            -40 0 -42 20 -22 48 -12 35 -10 31 -4 36 -4 25 -9 5 -17 0 -17 0 -13 -12 0 -18 0 -20 20 -53 0 -47 rrcurveto
            return
          </CharString>
          <CharString index="509">
            -66 -73 -34 -77 -48 -92 16 84 70 32 70 68 20 10 10 20 20 -10 10 -20 vhcurveto
            -80 -80 -71 -129 hvcurveto
            return
          </CharString>
          <CharString index="510">
            2 -43 3 -44 0 -41 0 -42 8 -44 2 -10 5 -20 11 -10 14 0 20 0 10 10 0 20 0 4 -10 50 0 42 0 80 109 84 101 70 rrcurveto
            20 14 34 17 21 7 24 8 11 13 0 11 0 20 -10 10 -20 0 -6 0 -11 -3 -15 -5 -21 -7 -39 -20 -20 -14 -76 -54 -70 -56 -37 -43 rrcurveto
            -6 102 -1 78 -17 54 -20 62 -38 32 -53 0 rrcurveto
            -71 -29 -86 -50 -20 10 -10 20 20 10 10 20 36 20 40 20 hvcurveto
            28 0 16 -21 10 -33 16 -52 1 -84 4 -82 rrcurveto
            return
          </CharString>
          <CharString index="511">
            9 37 22 34 29 30 3 -15 2 -16 0 -18 0 -19 -34 -22 -31 -11 rrcurveto
            return
          </CharString>
          <CharString index="512">
            53.5933837891 5.04765319824 85.0713195801 5.10456848145 122.504852295 0 rrcurveto
            20 10 10 20 20 -10 10 -20 hvcurveto
            -114.781524658 0 -84.9066925049 -4.77996826172 -56.6647644043 -4.98783874512 25.5916900635 95.1307525635 108.203643799 72.6370544434 100.557647705 0 33 0 4 -60 23 0 rrcurveto
            20 10 10 20 50 -46 40 -44 hvcurveto
            -136.031814575 0 -139.411026001 -103.066467285 -21.6577148438 -131.589797974 -10.1938781738 -1.41484069824 -6.94432067871 -1.17665100098 -3.76124572754 -0.752243041992 -20 -4 -10 -10 0 -16 rrcurveto
            -20 10 -10 20 2 8 1 0 vhcurveto
            2.15139770508 0.430297851562 3.07710266113 0.557556152344 4.04014587402 0.652481079102 10.2897338867 -100.542602539 72.1280822754 -64.0977325439 106.313537598 0 132 0 72 12 48 16 25 8 5 10 0 14 0 20 -10 10 -20 0 -4 0 -14 -5 -6 -2 rrcurveto
            -36 -12 -60 -11 -132 0 -75.7496490479 0 -46.7353210449 40.9613952637 -6.6845703125 70.8863830566 rrcurveto
            return
          </CharString>
          <CharString index="513">
            -72 0 -180 -16 -17 -4 -20 -4 -10 -10 0 -16 rrcurveto
            -20 10 -10 20 vhcurveto
            10 hlineto
            return
          </CharString>
          <CharString index="514">
            17 4 167 16 72 0 -21 -96 -94 -74 -101 0 -48 0 -18 30 -24 0 rrcurveto
            -20 -10 -10 -20 -24 66 -36 54 149 131 123 149 132 -118 56 -132 hvcurveto
            -30 0 -49 -4 -21 -7 -21 -7 -9 -9 0 -14 0 -20 10 -10 20 0 8 0 38 11 54 0 rrcurveto
            90 0 87 -28 12 -82 rrcurveto
            return
          </CharString>
          <CharString index="515">
            0 100 -10 155 -21 55 -7 20 -15 40 -47 0 -41 0 -17 -31 -10 -29 -19 -52 -23 -198 -20 0 rrcurveto
            return
          </CharString>
          <CharString index="516">
            -30 0 -23 192 -30 88 -6 16 -15 44 -46 0 -46 0 -14 -38 -6 -22 -16 -64 -8 -215 0 -92 rrcurveto
            -10 6 -19 24 21 9 14 15 78 10 293 20 vhcurveto
            20 0 22 -196 35 -84 12 -29 21 -31 40 0 52 0 9 45 7 15 rrcurveto
            return
          </CharString>
          <CharString index="517">
            20 46 22 204 20 0 rrcurveto
            30 10 -254 -56 -20 10 -10 20 hvcurveto
            20 10 10 20 hvcurveto
            return
          </CharString>
          <CharString index="518">
            0 -110 33 -122 17 -62 5 -19 5 -11 20 0 20 0 10 13 0 17 0 5 -1 6 -2 6 -17 60 -30 116 0 100 rrcurveto
            30 38 47 148 72 22 -22 -54 vhcurveto
            0 -67 -93 -20 -77 -18 -20 -5 -10 -5 0 -20 0 -20 10 -10 20 0 3 0 8 2 5 1 76 17 138 27 0 118 rrcurveto
            95 -55 41 -99 -179 -67 -67 -69 vhcurveto
            return
          </CharString>
          <CharString index="519">
            -30 0 -72 148 -18 162 -2 20 -8 10 -20 0 -20 0 -10 -9 0 -20 0 -3 1 -8 1 -6 17 -147 46 -87 31 -60 10 -19 34 -41 40 0 rrcurveto
            43 0 18 38 10 22 29 60 25 131 88 156 4 7 3 11 0 5 0 20 -10 10 -20 0 -11 0 -7 -5 -11 -19 -88 -156 -53 -220 -20 0 rrcurveto
            return
          </CharString>
          <CharString index="520">
            60 -50 50 -60 vhcurveto
            -20 0 -18 -1 -22 -13 -18 -11 -12 -11 0 -14 0 -20 10 -10 20 0 24 0 -6 20 42 0 rrcurveto
            28 22 -22 -28 -60 -50 -30 -60 -30 -20 20 30 hvcurveto
            0 30 10 -4 0 24 rrcurveto
            20 -10 10 -20 -24 -16 -44 -36 -62 48 -48 62 93 77 57 93 vhcurveto
            return
          </CharString>
          <CharString index="521">
            23 -5 11 -13 0 -30 rrcurveto
            -20 10 -10 20 20 10 10 20 72 -48 38 -72 -20 -10 -10 -20 -30 -20 -40 -30 -22 -18 8 22 54 56 54 54 20 11 12 20 20 -11 10 -20 -87 -83 -83 -87 vhcurveto
            -54 46 -36 54 vhcurveto
            54 0 41 51 11 47 rrcurveto
            return
          </CharString>
          <CharString index="522">
            11 -3 11 -2 12 0 rrcurveto
            72 48 48 72 65 -65 35 -65 hvcurveto
            -28 0 -26 -15 -18 -22 rrcurveto
            return
          </CharString>
          <CharString index="523">
            28 -10 18 -16 0 -27 rrcurveto
            -30 -20 -40 -30 -20 -40 10 20 vhcurveto
            0 12 29 45 35 36 rrcurveto
            return
          </CharString>
          <CharString index="524">
            -19 -30 -22 -21 -26 0 rrcurveto
            -20 -10 10 20 40 20 30 40 20 10 -10 -20 hvcurveto
            0 -8 3 -6 4 -5 rrcurveto
            return
          </CharString>
          <CharString index="525">
            1 7 1 4 0 6 0 20 -10 10 -20 0 -16 0 -12 -9 -2 -21 -2 -18 -8 -51 -7 -44 -15 21 -24 14 -34 0 rrcurveto
            -72 -48 -58 -72 -52 38 -38 52 hvcurveto
            46 0 35 28 28 40 13 -28 25 -17 25 -13 rrcurveto
            return
          </CharString>
          <CharString index="526">
            8 -4 12 -6 8 0 20 0 10 10 0 20 0 11 -7 9 -23 12 -30 16 -11 12 0 20 0 54 9 47 10 70 rrcurveto
            return
          </CharString>
          <CharString index="527">
            -20 3 -13 15 0 21 rrcurveto
            36 24 64 36 20 10 -10 -20 vhcurveto
            0 -27 -33 -53 -24 -29 rrcurveto
            return
          </CharString>
          <CharString index="528">
            -1 0 -9 -1 -6 -2 -18 -6 -30 -5 -16 -2 20 32 20 42 0 30 rrcurveto
            54 -36 36 -54 -72 -48 -88 -72 vhcurveto
            return
          </CharString>
          <CharString index="529">
            54 0 72 14 24 8 17 5 13 11 0 14 rrcurveto
            20 -10 10 -20 vhcurveto
            return
          </CharString>
          <CharString index="530">
            -33 -40 -23 -43 0 -24 rrcurveto
            -56 64 -34 56 64 46 66 64 118 -152 12 -118 -20 -10 -10 -20 -20 10 -10 20 vhcurveto
            26 0 36 0 34 -3 rrcurveto
            return
          </CharString>
          <CharString index="531">
            17 15 14 13 5 5 24 24 6 7 0 11 0 20 -10 10 -20 0 -11 0 -9 -7 -24 -24 -17 -17 -62 -57 -49 -29 -5 73 -12 110 -11 39 rrcurveto
            -6 21 -8 9 -16 0 -20 0 -10 -10 0 -20 0 -4 0 -4 2 -7 14 -49 14 -150 0 -54 0 -20 10 -10 20 0 26 0 49 33 43 34 rrcurveto
            return
          </CharString>
          <CharString index="532">
            27 -40 51 -27 74 0 rrcurveto
            20 10 10 20 20 -10 10 -20 hvcurveto
            -29 0 -53 3 -24 42 rrcurveto
            return
          </CharString>
          <CharString index="533">
            61 vlineto
            20 -10 10 -20 -20 -10 -10 -20 vhcurveto
            -70 vlineto
            0 -35 3 -34 7 -21 7 -21 7 -9 16 0 24 0 8 10 8 20 rrcurveto
            return
          </CharString>
          <CharString index="534">
            20 50 56 120 54 0 20 0 22 -50 8 -80 2 -20 8 -10 20 0 24 0 8 14 10 16 rrcurveto
            return
          </CharString>
          <CharString index="535">
            25 40 27 50 36 0 24 0 15 -8 10 -70 1 -7 2 -13 6 -12 10 -20 6 -10 16 0 20 0 10 10 0 20 0 4 -2 9 -6 12 rrcurveto
            -2 4 -1 4 -1 7 -10 70 -21 60 -77 0 -51 0 -32 -36 -28 -41 rrcurveto
            return
          </CharString>
          <CharString index="536">
            -15 59 -28 58 -56 0 rrcurveto
            -68 0 -49 -70 -33 -61 rrcurveto
            return
          </CharString>
          <CharString index="537">
            -20 -6 -10 -8 0 -16 0 -20 10 -10 20 0 4 0 3 0 10 3 60 18 53 53 0 56 0 63 -57 47 -63 0 -54 0 -32 -29 -20 -50 rrcurveto
            -20 -50 -12 -86 -20 -100 -2 -10 0 -1 0 -4 0 -20 10 -10 20 0 16 0 11 12 4 20 20 100 9 78 20 50 10 25 10 15 30 0 rrcurveto
            30 30 -20 -30 hvcurveto
            0 -24 -30 -34 -40 -12 rrcurveto
            return
          </CharString>
          <CharString index="538">
            17 -28 21 -21 12 0 rrcurveto
            return
          </CharString>
          <CharString index="539">
            20 10 10 20 hvcurveto
            0 24 -50 32 0 54 rrcurveto
            20 -10 10 -20 -20 -10 -10 -20 -54 -56 -56 -54 -40 -20 80 40 20 -10 10 -20 -20 -10 -10 -20 -78 42 -102 78 vhcurveto
            55 0 53 33 32 46 rrcurveto
            return
          </CharString>
          <CharString index="540">
            72 0 38 100 24 50 6 12 10 18 20 0 rrcurveto
            20 10 10 20 20 -10 10 -20 hvcurveto
            -34 0 -34 -20 -22 -44 -10 -20 -40 -96 -30 0 -20 0 -24 46 -16 125 -3 21 -7 8 -20 0 -20 0 -10 -10 0 -20 0 -8 1 0 0 -2 rrcurveto
            23 -172 42 -48 54 0 rrcurveto
            return
          </CharString>
          <CharString index="541">
            -20 -10 -10 -20 -116 42 -54 58 hvcurveto
            30 0 48 14 12 4 25 8 5 10 0 14 0 20 -10 10 -20 0 -4 0 -14 -5 -6 -2 -12 -4 -30 -9 -24 0 rrcurveto
            -30 -10 50 60 20 -10 10 -20 hvcurveto
            return
          </CharString>
          <CharString index="542">
            20 -10 10 -20 vhcurveto
            -24 0 -16 -10 -30 0 rrcurveto
            -30 -40 20 30 54 66 36 54 hvcurveto
            20 0 10 -38 20 0 rrcurveto
            20 10 10 20 20 -30 48 -50 -87 -93 -63 -87 -64 66 -46 64 40 60 16 24 hvcurveto
            return
          </CharString>
          <CharString index="543">
            -16 -1 -15 0 -13 0 rrcurveto
            -20 -10 -10 -20 -20 10 -10 20 hvcurveto
            12 0 13 0 15 1 rrcurveto
            -31 vlineto
            0 -36 4 -42 6 -42 3 -21 11 -9 16 0 rrcurveto
            20 10 10 20 4 -1 4 0 hvcurveto
            -6 42 -3 37 0 33 rrcurveto
            34 vlineto
            65 5 68 7 27 4 21 3 9 11 0 16 rrcurveto
            20 -10 10 -20 -4 -4 -1 0 vhcurveto
            -26 -4 -61 -6 -61 -4 14 148 47 55 45 0 30 0 -4 -38 24 0 rrcurveto
            20 10 10 20 24 -26 44 -54 hvcurveto
            -83 0 -67 -80 -16 -187 rrcurveto
            return
          </CharString>
          <CharString index="544">
            30 -15 25 -4 30 -2 30 -2 62 -4 83 0 rrcurveto
            20 10 10 20 20 -10 10 -20 hvcurveto
            -81 0 -59 3 -30 2 -30 2 -16 5 -24 12 -12 6 -4 2 -4 0 -20 0 -10 -10 0 -20 0 -14 10 -11 20 -10 rrcurveto
            return
          </CharString>
          <CharString index="545">
            0 -20 -40 -229 0 -199 0 -54 36 -36 54 0 49 0 31 63 40 48 24 28 20 31 36 0 rrcurveto
            30 20 -40 -30 -90 -74 -70 -26 hvcurveto
            -13 0 -15 4 -12 3 -8 2 -5 1 -7 0 -20 0 -10 -10 0 -20 0 -9 10 -16 20 -5 20 -5 20 -5 20 0 rrcurveto
            64 96 100 120 64 -46 66 -64 hvcurveto
            -53 0 -27 -27 -46 -54 rrcurveto
            -38 -45 -25 -44 -11 0 rrcurveto
            return
          </CharString>
          <CharString index="546">
            -122 135 -20 65 vhcurveto
            84 0 66 24 12 4 25 8 5 10 0 14 0 20 -10 10 -20 0 -4 0 -14 -5 -6 -2 -18 -6 -50 -17 -70 0 -60 0 -31 13 -18 13 rrcurveto
            54 145 66 108 63 -48 37 -62 -90 -90 -108 -110 hvcurveto
            return
          </CharString>
          <CharString index="547">
            80 66 78 54 30 20 -10 -30 -56 -90 -62 -80 vhcurveto
            return
          </CharString>
          <CharString index="548">
            105 105 41 105 vhcurveto
            20 0 44 -3 10 -5 10 -5 12 -3 4 0 20 0 10 9 0 21 0 14 -10 8 -20 10 -20 10 -56 4 -24 0 -140 0 -130 -66 0 -140 rrcurveto
            return
          </CharString>
          <CharString index="549">
            0 -72 24 -178 25 -100 4 -18 7 -12 20 0 20 0 10 10 0 20 0 6 -1 4 -1 6 -17 70 -17 99 -8 78 17 -14 45 -12 22 0 rrcurveto
            45 0 66 1 20 2 20 2 9 12 0 16 0 20 -10 10 -20 0 -8 0 -80 -3 -42 0 rrcurveto
            -18 -72 23 30 hvcurveto
            return
          </CharString>
          <CharString index="550">
            4 0 4 0 6 1 18 3 17 2 21 2 rrcurveto
            -38 vlineto
            0 -90 30 -70 20 -80 4 -16 6 -14 20 0 20 0 10 10 0 20 0 4 -1 10 -2 8 -20 80 -27 58 0 80 rrcurveto
            42 vlineto
            60 6 50 2 20 0 rrcurveto
            20 10 10 20 20 -10 10 -20 hvcurveto
            -20 0 -48 -2 -60 -6 rrcurveto
            return
          </CharString>
          <CharString index="551">
            8 122 20 72 0 200 rrcurveto
            return
          </CharString>
          <CharString index="552">
            -24 -6 -12 -18 hvcurveto
            0 -203 -21 -69 -7 -126 -26 -2 -22 -2 -24 -4 -18 -3 -12 -11 0 -16 rrcurveto
            -20 10 -10 20 vhcurveto
            return
          </CharString>
          <CharString index="553">
            0 -35 50 -5 0 -48 rrcurveto
            -48 -32 -34 -48 -72 -48 48 72 160 80 186 160 27 13 -13 -27 vhcurveto
            0 -20 -10 -16 -12 -20 -3 -5 -5 -9 0 -6 0 -20 10 -10 20 0 8 0 15 11 12 19 12 20 13 26 0 30 rrcurveto
            58 -42 42 -58 -195 -105 -212 -194 -105 75 -75 105 80 60 62 80 vhcurveto
            0 24 -8 21 -10 18 15 0 11 -1 22 -2 9 -1 6 -1 5 0 19 0 11 10 0 20 0 16 -12 12 -18 2 -45 5 -15 0 -20 0 rrcurveto
            -20 0 -21 -2 -9 -3 -21 -7 -9 -9 0 -14 rrcurveto
            return
          </CharString>
          <CharString index="554">
            11 -1 9 0 1 0 20 0 10 10 0 20 0 20 -10 9 -20 1 -9 1 -8 0 -7 0 -5 97 -10 110 -2 10 -4 20 -11 12 -14 0 rrcurveto
            -20 -10 -10 -20 hvcurveto
            0 -2 1 -12 1 -5 2 -9 7 -101 5 -88 rrcurveto
            return
          </CharString>
          <CharString index="555">
            -76 0 -67 -6 -68 -12 -6 108 -8 104 -2 11 -4 20 -11 12 -14 0 -20 0 -10 -10 0 -20 0 -2 1 -12 1 -5 4 -20 20 -381 4 -20 rrcurveto
            4 -20 10 -10 16 0 20 0 10 10 0 20 0 4 -1 8 -2 10 -1 7 -3 57 -4 69 64 12 83 6 63 0 1 -16 0 -15 0 -12 rrcurveto
            0 -94 6 -76 4 -20 4 -19 15 -11 11 0 20 0 10 10 0 20 0 4 -1 4 -1 5 -4 20 -4 77 0 80 rrcurveto
            0 12 -1 14 0 15 rrcurveto
            return
          </CharString>
          <CharString index="556">
            4 9 3 9 0 6 0 20 -10 10 -20 0 -11 0 -13 -10 -8 -20 -15 -36 -19 -84 -9 -74 rrcurveto
            -27 -7 -102 -9 -76 0 rrcurveto
            return
          </CharString>
          <CharString index="557">
            -100 58 -70 92 vhcurveto
            20 0 4 2 6 2 24 8 6 7 0 16 0 20 -10 10 -20 0 -4 0 -15 -5 -11 0 -54 0 -36 38 0 72 0 100 62 196 33 69 rrcurveto
            3 6 2 9 0 6 0 20 -10 10 -20 0 -16 0 -12 -19 -10 -23 -24 -53 -68 -211 0 -110 rrcurveto
            return
          </CharString>
          <CharString index="558">
            20 11 10 20 hvcurveto
            0 5 -4 12 -2 5 -5 11 -4 17 0 20 0 40 64 130 40 0 40 0 33 -110 5 -100 1 -20 6 -24 12 -16 12 -16 13 -14 8 0 rrcurveto
            20 10 10 20 hvcurveto
            0 11 -3 9 -12 16 -6 8 -1 19 0 0 -7 140 -49 127 -82 0 -52 0 -59 -74 -31 -70 -4 19 -2 17 -5 18 rrcurveto
            return
          </CharString>
          <CharString index="559">
            -8 29 -15 51 -54 0 -68 0 -74 -44 -42 -60 rrcurveto
            return
          </CharString>
          <CharString index="560">
            -27 58 -43 36 -26 0 -85 0 -84 -125 -70 -100 -7 -10 -4 -7 0 -8 0 -20 10 -10 20 0 11 0 7 6 14 20 70 100 66 94 54 0 rrcurveto
            10 48 -81 -59 hvcurveto
            0 -40 4 -46 6 -24 5 -20 9 -10 16 0 20 0 10 10 0 20 0 4 -1 5 -1 4 -5 20 -3 47 0 30 rrcurveto
            return
          </CharString>
          <CharString index="561">
            112 118 38 42 vhcurveto
            20 0 10 -108 28 -70 rrcurveto
            24 -60 8 -22 20 0 rrcurveto
            return
          </CharString>
          <CharString index="562">
            0 -30 5 -50 5 -40 3 -24 15 -36 22 0 20 0 10 10 0 20 0 8 -10 24 -1 8 rrcurveto
            return
          </CharString>
          <CharString index="563">
            -5 40 -4 40 0 30 rrcurveto
            return
          </CharString>
          <CharString index="564">
            0 105 10 171 0 54 rrcurveto
            20 -10 10 -20 -20 -10 -10 -20 vhcurveto
            0 -54 -10 -171 0 -105 rrcurveto
            return
          </CharString>
          <CharString index="565">
            -20 0 -13 -23 -4 -7 -16 -32 -85 -174 -72 0 -30 0 -30 60 -20 80 -5 20 -11 10 -14 0 -20 0 -10 -10 0 -20 0 -4 1 -5 1 -4 rrcurveto
            20 -80 42 -107 76 0 83 0 71 104 40 73 rrcurveto
            return
          </CharString>
          <CharString index="566">
            3 -24 3 -25 0 -18 rrcurveto
            return
          </CharString>
          <CharString index="567">
            0 -75 -10 -55 0 -60 rrcurveto
            return
          </CharString>
          <CharString index="568">
            0 -20 5 -50 5 -40 3 -24 13 -36 24 0 20 0 10 10 0 20 0 8 -10 24 -1 8 rrcurveto
            return
          </CharString>
          <CharString index="569">
            -5 40 -4 40 0 20 rrcurveto
            return
          </CharString>
          <CharString index="570">
            0 63 10 63 0 64 0 54 -16 82 -4 20 -4 20 -12 10 -14 0 rrcurveto
            return
          </CharString>
          <CharString index="571">
            -15 93 -15 130 0 113 rrcurveto
            72 46 38 54 54 46 -50 -60 -60 -70 -40 -30 -20 -10 -10 -20 -20 10 -10 20 54 106 58 102 100 -77 70 -83 -87 -73 -64 -106 vhcurveto
            return
          </CharString>
          <CharString index="572">
            0 -210 47 -232 8 -30 4 -15 7 -15 24 0 15 0 15 13 0 17 0 84 53 85 14 21 10 15 3 6 0 11 0 21 -10 9 -20 0 rrcurveto
            -14 0 -6 -9 -14 -21 rrcurveto
            -10 -15 -19 -31 -17 -40 rrcurveto
            return
          </CharString>
          <CharString index="573">
            -20 -10 -10 -20 hvcurveto
            0 -4 9 -16 1 -10 4 -72 2 -106 22 -92 6 -24 6 -6 20 0 20 0 11 10 7 20 21 60 51 210 20 0 40 0 45 -36 15 -44 rrcurveto
            5 -16 5 -14 20 0 20 0 10 13 0 17 0 8 -2 5 -2 6 -21 64 -67 57 -68 0 -66 0 -12 -77 -42 -135 -7 52 1 43 -3 57 rrcurveto
            9 -7 51 -34 vhcurveto
            return
          </CharString>
          <CharString index="574">
            1 63 4 73 0 59 31 7 31 5 38 0 54 0 66 -12 0 -54 rrcurveto
            0 -54 -159 -71 -66 -16 rrcurveto
            return
          </CharString>
          <CharString index="575">
            -1 -69 -4 -83 0 -65 rrcurveto
            return
          </CharString>
          <CharString index="576">
            0 -47 -5 -26 0 -47 rrcurveto
            return
          </CharString>
          <CharString index="577">
            0 -20 6 -50 4 -40 2 -20 12 -10 16 0 rrcurveto
            20 10 10 20 4 -1 6 0 hvcurveto
            return
          </CharString>
          <CharString index="578">
            -4 40 -5 40 0 20 0 38 3 24 1 32 156 -93 43 -42 54 -54 8 -8 6 -7 0 -20 rrcurveto
            -20 9 -10 20 20 10 10 20 vhcurveto
            0 40 -14 20 -16 16 -50 50 -48 47 -125 77 rrcurveto
            return
          </CharString>
          <CharString index="579">
            82 31 131 64 0 85 0 92 -88 34 -92 0 -72 0 -58 -18 -60 -18 -19 -6 -11 -8 0 -16 0 -20 10 -10 20 0 2 0 6 1 22 6 rrcurveto
            return
          </CharString>
          <CharString index="580">
            -20 -10 -14 -16 hvcurveto
            0 -8 3 -8 2 -5 40 -100 33 -149 20 -100 10 -50 14 -43 18 -27 14 -21 9 -9 17 0 16 0 10 10 4 20 40 200 54 173 80 120 rrcurveto
            10 15 6 10 0 8 0 20 -10 10 -20 0 -11 0 -9 -9 -14 -21 -90 -135 -51 -178 -28 -125 -4 14 -4 16 -3 16 -15 77 -39 179 -40 100 rrcurveto
            -8 20 -12 10 -12 0 rrcurveto
            return
          </CharString>
          <CharString index="581">
            12 -6 9 -3 6 0 20 0 10 10 0 20 0 14 -10 8 -20 10 -61 29 -151 87 -115 23 -5 1 -4 0 -4 0 -20 0 -10 -10 0 -20 rrcurveto
            0 -17 10 -9 20 -4 100 -20 153 -83 60 -30 rrcurveto
            return
          </CharString>
          <CharString index="582">
            38 45 32 29 38 33 24 21 10 9 0 11 0 20 -10 10 -20 0 -11 0 -11 -7 -24 -21 -36 -31 -31 -30 -37 -42 -18 22 -21 21 -23 18 rrcurveto
            -30 24 -10 6 -8 0 -20 0 -10 -13 0 -17 0 -8 9 -13 30 -24 23 -18 20 -22 19 -23 -25 -32 -29 -38 -33 -48 -7 -10 -7 -13 0 -11 rrcurveto
            -20 10 -10 20 vhcurveto
            14 0 8 14 11 16 29 42 25 33 22 29 rrcurveto
            return
          </CharString>
          <CharString index="583">
            47 -60 43 -54 61 0 30 0 30 6 20 4 20 4 10 10 0 16 0 18 -10 12 -20 0 -11 0 -39 -10 -30 0 rrcurveto
            -38 0 -32 47 -42 55 rrcurveto
            return
          </CharString>
          <CharString index="584">
            20 10 10 20 20 -10 10 -20 -20 -10 42 48 54 -36 36 -54 hvcurveto
            -66 0 -47 -113 -27 -34 -27 -34 -35 -30 -20 -8 -20 -8 -10 -7 0 -16 0 -20 10 -10 20 0 8 0 5 1 16 7 32 14 35 36 32 38 rrcurveto
            28 34 46 90 20 0 rrcurveto
            20 10 -10 -20 -100 36 -50 54 hvcurveto
            return
          </CharString>
          <CharString index="585">
            -21 10 -10 20 vhcurveto
            20 0 18 30 42 0 rrcurveto
            60 40 -48 -72 -72 -80 -18 -40 -72 -58 50 60 hvcurveto
            0 41 20 33 20 27 rrcurveto
            return
          </CharString>
          <CharString index="586">
            9 12 7 10 0 5 0 20 -10 10 -20 0 -14 0 -14 -14 -12 -16 -24 -32 -46 -56 0 -72 rrcurveto
            -84 76 -86 114 80 100 45 105 105 -70 75 -90 vhcurveto
            -28 0 -30 -10 -28 -17 rrcurveto
            return
          </CharString>
          <CharString index="587">
            -120 -90 -60 -100 -72 -58 78 72 72 30 98 72 vhcurveto
            11 0 18 -1 12 -2 7 -1 8 -2 4 0 13 0 14 4 4 17 rrcurveto
            return
          </CharString>
          <CharString index="588">
            15 2 16 3 16 0 45 0 23 -46 8 -56 rrcurveto
            -26 hlineto
            -20 -10 -8 -20 -20 10 -10 20 hvcurveto
            return
          </CharString>
          <CharString index="589">
            30 3 24 5 30 5 66 12 30 39 50 50 18 18 12 14 0 11 0 24 -13 6 -17 0 -12 0 -10 -10 -20 -20 -30 -30 -36 -46 -50 -10 rrcurveto
            -16 -3 -25 -5 -35 -4 -11 80 -35 78 -90 0 -42 0 -38 -7 -20 -15 rrcurveto
            return
          </CharString>
          <CharString index="590">
            -10 1 -6 1 -22 0 rrcurveto
            -108 -54 -122 -108 -104 86 -106 104 127 123 83 160 hvcurveto
            return
          </CharString>
          <CharString index="591">
            8 43 4 43 0 38 rrcurveto
            20 -10 10 -20 -20 -10 -10 -20 vhcurveto
            0 -41 -4 -43 -9 -43 -17 3 -17 4 -3 0 -20 0 -10 -8 0 -20 0 -16 10 -6 20 -8 5 -2 7 -3 10 -2 -31 -103 -56 -84 -73 0 rrcurveto
            -87 -5 195 107 20 -10 10 -20 -20 -10 -10 -20 -163 12 -197 140 hvcurveto
            114 0 73 115 35 127 74 11 77 59 45 45 18 18 12 14 0 11 0 24 -13 6 -17 0 -12 0 -10 -10 -20 -20 -25 -25 -56 -51 -59 -18 rrcurveto
            return
          </CharString>
          <CharString index="592">
            0 72 70 306 18 72 1 5 1 7 0 8 0 24 -13 6 -17 0 -12 0 -10 -10 -20 -20 -50 -50 -38 -30 -20 0 -20 0 -16 58 -4 20 rrcurveto
            -4 20 -7 10 -20 0 -20 0 -9 -10 0 -20 0 -1 0 -4 2 -7 6 -30 24 -96 68 0 34 0 34 23 35 31 -38 -193 -35 -111 0 -80 rrcurveto
            -20 10 -10 20 16 14 13 17 vhcurveto
            return
          </CharString>
          <CharString index="593">
            20 4 220 16 210 0 rrcurveto
            20 10 10 20 20 -10 10 -20 hvcurveto
            -210 0 -230 -16 -20 -4 rrcurveto
            return
          </CharString>
          <CharString index="594">
            7 41 13 19 38 120 2 7 0 5 0 4 0 20 -10 10 -20 0 -20 0 -95 -87 -17 -16 3 20 16 95 2 20 1 5 0 2 0 3 rrcurveto
            20 -10 10 -20 vhcurveto
            -21 0 -6 -10 -3 -20 -20 -140 -10 -41 0 -17 0 -20 10 -10 20 0 20 0 32 20 20 14 20 14 8 9 10 10 -14 -37 -10 -37 -4 -21 rrcurveto
            -1 -4 -1 -4 0 -4 0 -20 10 -10 20 0 14 0 12 10 4 20 rrcurveto
            return
          </CharString>
          <CharString index="595">
            -15 6 -11 2 -14 0 -20 0 -10 -10 0 -20 0 -16 9 -10 20 -12 20 -12 17 -8 14 0 20 0 20 10 0 20 0 20 -10 14 -40 16 rrcurveto
            return
          </CharString>
          <CharString index="596">
            0 7 -6 9 -7 6 -7 6 -2 2 -5 4 rrcurveto
            26 hlineto
            24 6 15 15 24 -15 6 -15 hvcurveto
            -16 0 33 33 rlineto
            5 5 10 11 0 11 0 20 -10 10 -20 0 -11 0 -6 -3 -13 -13 rrcurveto
            -63 -63 rlineto
            -18 24 -10 21 -16 29 -7 12 -12 3 -9 0 -19 0 -11 -10 0 -20 0 -5 2 -4 1 -3 9 -19 10 -19 14 -20 rrcurveto
            -83 hlineto
            -24 -6 -15 -15 -24 15 -6 15 hvcurveto
            77 0 -39 -39 rlineto
            -7 -6 -1 -9 0 -5 0 -20 9 -12 20 0 5 0 8 1 7 7 rrcurveto
            62 62 rlineto
            9 -9 17 -13 18 -11 11 -7 6 -3 9 0 11 0 19 9 0 21 rrcurveto
            return
          </CharString>
          <CharString index="597">
            -68 -42 -56 -72 -49 49 -51 61 88 32 48 52 68 -58 60 -62 hvcurveto
            return
          </CharString>
          <CharString index="598">
            0 11 -10 10 -20 16 -20 16 -62 60 -26 52 -10 20 -11 10 -11 0 -20 0 -10 -10 0 -20 0 -6 2 -9 5 -9 30 -60 65 -66 20 -16 rrcurveto
            19 -16 19 -14 10 0 20 0 10 14 0 17 rrcurveto
            return
          </CharString>
          <CharString index="599">
            0 16 -11 7 -19 7 rrcurveto
            -170 67 rlineto
            -10 4 -10 7 0 12 0 13 9 6 11 11 40 40 40 41 6 20 2 6 2 7 0 6 0 20 -10 10 -20 0 -14 0 -12 -15 -4 -15 rrcurveto
            -3 -10 -27 -26 -40 -40 -16 -16 -24 -19 0 -39 0 -54 61 -24 19 -8 rrcurveto
            151 -61 rlineto
            4 -2 9 -1 6 0 20 0 10 10 0 20 rrcurveto
            return
          </CharString>
          <CharString index="600">
            -10 -12 -5 -12 0 -10 0 -20 10 -10 20 0 9 0 16 18 9 12 24 30 46 22 20 4 20 4 96 23 0 57 0 54 -139 80 -20 10 rrcurveto
            -20 10 -33 17 -16 10 -7 5 -11 4 -4 0 -20 0 -10 -10 0 -20 0 -10 14 -14 16 -10 18 -11 34 -17 20 -10 20 -10 98 -58 0 -20 rrcurveto
            0 -11 -56 -12 -20 -4 -30 -6 -57 -33 -32 -40 rrcurveto
            return
          </CharString>
          <CharString index="601">
            0 -2 1 -12 1 -5 1 -6 8 -36 10 -54 rrcurveto
            return
          </CharString>
          <CharString index="602">
            0 -76 -23 -24 0 -77 rrcurveto
            -24 15 -6 15 23 7 16 14 vhcurveto
            return
          </CharString>
          <CharString index="603">
            0 77 23 23 0 77 0 31 -4 39 -10 54 -10 54 -9 40 -1 7 -5 22 -8 5 -20 0 -23 0 -3 -16 0 -9 rrcurveto
            return
          </CharString>
          <CharString index="604">
            0 -20 19 -20 14 -20 rrcurveto
            -43 hlineto
            -20 -10 -10 -20 -20 10 -10 20 hvcurveto
            37 0 -29 -29 rlineto
            -6 -6 -2 -6 0 -8 0 -20 9 -12 21 0 8 0 4 1 7 7 rrcurveto
            52 52 rlineto
            9 -9 17 -13 18 -11 11 -7 6 -3 9 0 11 0 19 9 0 21 0 7 -6 9 -7 6 -7 6 -2 2 -5 4 rrcurveto
            26 hlineto
            20 10 10 20 20 -12 10 -18 hvcurveto
            -16 0 23 23 rlineto
            5 5 10 11 0 11 0 20 -10 10 -20 0 -11 0 -6 -3 -13 -13 rrcurveto
            -53 -53 rlineto
            -18 24 -15 29 -8 11 -7 9 -13 6 -8 0 -20 0 -10 -10 0 -20 rrcurveto
            return
          </CharString>
          <CharString index="605">
            -20 10 -10 20 20 10 10 20 vhcurveto
            0 40 29 100 11 30 10 29 30 47 0 54 rrcurveto
            72 -46 44 -100 -100 -34 -76 -40 vhcurveto
            0 -30 15 -28 15 -25 8 -13 14 -12 8 0 rrcurveto
            20 10 11 19 8 -7 15 0 hvcurveto
            -15 25 -8 10 0 20 rrcurveto
            20 20 36 54 54 32 -21 -35 vhcurveto
            0 -53 -28 -47 -12 -30 rrcurveto
            -11 -30 -29 -68 0 -72 rrcurveto
            return
          </CharString>
          <CharString index="606">
            -20 10 -10 20 vhcurveto
            8 0 13 6 7 9 8 11 24 37 9 14 rrcurveto
            56 -52 rlineto
            11 -11 11 -4 5 0 20 0 10 10 0 20 0 6 -4 10 -11 11 rrcurveto
            -23 23 16 0 rlineto
            18 12 10 20 20 -10 10 -20 hvcurveto
            -26 hlineto
            5 4 3 2 6 7 7 7 6 8 0 7 0 21 -19 9 -11 0 -9 0 -6 -3 -11 -7 -18 -11 -17 -14 -9 -9 rrcurveto
            -62 61 rlineto
            -6 6 -7 1 -6 0 -20 0 -10 -12 0 -20 0 -6 2 -7 6 -6 rrcurveto
            39 -38 -37 0 rlineto
            -20 -10 -10 -20 -20 10 -10 20 hvcurveto
            43 hlineto
            -14 -20 -19 -20 0 -20 rrcurveto
            return
          </CharString>
          <CharString index="607">
            -38 -39 -102 -31 -30 -20 30 50 60 20 68 30 33 37 -39 -29 vhcurveto
            return
          </CharString>
          <CharString index="608">
            -79 -31 -109 -79 -75 40 -65 70 83 47 148 52 66 -69 62 -61 hvcurveto
            return
          </CharString>
          <CharString index="609">
            -80 -40 -36 -54 -20 10 -10 20 20 10 10 20 20 20 10 40 20 10 10 20 hvcurveto
            20 -10 10 -20 vhcurveto
            return
          </CharString>
          <CharString index="610">
            -14 10 -7 0 -11 0 -20 0 -10 -10 0 -20 0 -14 22 -11 8 -5 30 -20 40 -46 0 -60 rrcurveto
            -20 -10 -10 -20 -20 -10 -10 -20 -20 10 -10 20 54 36 36 54 vhcurveto
            0 84 -52 62 -46 30 rrcurveto
            return
          </CharString>
          <CharString index="611">
            26 99 59 40 23 16 16 11 14 11 0 11 0 20 -10 10 -20 0 -10 0 -13 -6 -9 -6 -30 -20 -118 -98 0 -188 rrcurveto
            -56 34 -34 56 55 35 58 32 54 -36 46 -54 vhcurveto
            return
          </CharString>
          <CharString index="612">
            28 hlineto
            20 10 -20 -20 -16 -10 -14 -20 -20 -10 10 20 hvcurveto
            0 14 1 13 1 13 rrcurveto
            return
          </CharString>
          <CharString index="613">
            55 hlineto
            20 10 10 20 20 -10 10 -20 hvcurveto
            -44 hlineto
            24 133 0 11 0 34 rrcurveto
            54 -49 36 -71 -62 -58 -58 -54 -20 13 -10 17 20 10 10 20 20 30 32 30 30 30 -10 -20 vhcurveto
            0 -33 -1 -12 -24 -133 rrcurveto
            -75 hlineto
            -20 -10 -10 -20 -20 10 -10 20 hvcurveto
            65 hlineto
            -2 -8 -2 -12 0 0 rrcurveto
            0 -1 -7 -3 -20 10 -10 20 hvcurveto
            18 0 9 13 3 17 rrcurveto
            return
          </CharString>
          <CharString index="614">
            36 -23 30 -19 0 -18 rrcurveto
            -20 -29 -10 -21 -20 -20 10 20 vhcurveto
            0 22 10 19 14 19 rrcurveto
            return
          </CharString>
          <CharString index="615">
            24 28 23 29 0 37 rrcurveto
            64 -34 26 -58 -48 -32 -37 -13 vhcurveto
            return
          </CharString>
          <CharString index="616">
            -17 -13 -18 -12 hvcurveto
            0 -50 30 -36 35 -29 rrcurveto
            return
          </CharString>
          <CharString index="617">
            -19 -28 -16 -31 0 -36 rrcurveto
            -54 47 -36 51 68 44 43 47 vhcurveto
            0 46 -42 31 -43 29 rrcurveto
            return
          </CharString>
          <CharString index="618">
            -25 20 -19 23 0 26 20 0 10 20 20 0 20 0 12 -10 0 -20 0 -16 -17 -20 -21 -23 rrcurveto
            return
          </CharString>
          <CharString index="619">
            20 -14 7 -16 vhcurveto
            -40 0 -20 -90 -20 0 rrcurveto
            -20 -10 10 20 76 61 44 49 20 9 10 20 20 -9 10 -20 -70 -100 -60 -120 -54 36 -36 54 hvcurveto
            20 0 12 8 12 9 0 -20 -15 -70 -6 -20 -2 -5 -1 -8 0 -4 0 -20 10 -10 20 0 14 0 10 9 6 21 9 30 21 83 0 120 rrcurveto
            return
          </CharString>
          <CharString index="620">
            20 9 6 20 hvcurveto
            0 10 -4 7 -1 1 -20 30 -35 54 0 52 0 83 26 58 20 40 1 3 3 6 0 12 0 20 -9 6 -20 0 -20 0 -16 -34 -2 -4 rrcurveto
            -20 -40 -23 -70 0 -80 0 -54 31 -63 20 -30 4 -7 16 -26 20 0 rrcurveto
            return
          </CharString>
          <CharString index="621">
            20 80 10 64 0 30 0 54 -23 85 -53 41 -12 10 -21 10 -21 0 -19 0 -11 -11 0 -20 0 -16 24 -10 8 -3 41 -14 27 -72 0 -54 rrcurveto
            0 -20 -7 -59 -20 -80 rrcurveto
            return
          </CharString>
          <CharString index="622">
            -2 -8 -1 -5 0 -6 rrcurveto
            -20 10 -10 20 vhcurveto
            return
          </CharString>
          <CharString index="623">
            24 0 8 10 8 20 20 50 46 120 54 0 24 0 25 -48 10 -70 1 -7 2 -13 6 -12 10 -20 6 -10 16 0 20 0 10 10 0 20 rrcurveto
            0 4 -2 9 -6 12 -2 4 -1 4 -1 7 -10 70 -31 100 -77 0 -70 0 -50 -83 -30 -64 rrcurveto
            77 vlineto
            return
          </CharString>
          <CharString index="624">
            20 -10 10 -20 -20 -10 -10 -20 vhcurveto
            -80 vlineto
            0 -31 3 -28 7 -21 rrcurveto
            7 -21 6 -9 27 0 rrcurveto
            return
          </CharString>
          <CharString index="625">
            0 16 -10 6 -20 10 -20 10 -82 28 -78 0 -62 0 -44 -12 -20 -20 -24 -24 -40 -44 0 -106 0 -31 20 -216 17 -103 3 -18 8 -12 20 0 rrcurveto
            20 10 10 20 hvcurveto
            0 6 -1 4 -1 6 -12 66 -10 104 -4 40 21 -16 23 -4 20 0 45 0 75 4 33 4 21 2 8 9 0 19 0 20 -10 10 -20 0 rrcurveto
            -7 0 -103 -8 -42 0 -49 0 -25 64 0 20 0 76 22 30 20 20 20 20 48 0 20 0 52 0 82 -22 20 -10 10 -5 8 -3 8 0 rrcurveto
            20 10 10 20 hvcurveto
            return
          </CharString>
          <CharString index="626">
            0 24 -70 18 0 94 rrcurveto
            220 165 192 220 276 139 -226 -276 -220 -110 -158 -220 vhcurveto
            -150 0 -127 108 -65 88 -24 32 -13 14 -11 0 -20 0 -10 -10 0 -20 0 -11 6 -9 24 -32 64 -88 146 -132 180 0 rrcurveto
            253 137 185 253 308 -167 254 -308 -253 -192 -219 -253 -105 76 -61 24 20 10 10 20 hvcurveto
            return
          </CharString>
          <CharString index="627">
            0 -20 -8 -160 0 -88 0 -72 8 -68 0 -72 -72 0 -96 16 -72 0 -72 0 -139 -15 -20 0 rrcurveto
            return
          </CharString>
          <CharString index="628">
            0 20 -9 159 0 72 rrcurveto
            228 vlineto
            24 0 62 -8 54 0 rrcurveto
            72 0 168 8 100 0 rrcurveto
            return
          </CharString>
          <CharString index="629">
            -130 0 -168 -8 -72 0 -54 0 -62 8 -54 0 -20 0 -10 -10 0 -20 rrcurveto
            -258 vlineto
            return
          </CharString>
          <CharString index="630">
            0 -72 10 -159 0 -51 0 -20 10 -10 20 0 rrcurveto
            return
          </CharString>
          <CharString index="631">
            49 0 139 16 72 0 rrcurveto
            return
          </CharString>
          <CharString index="632">
            72 0 96 -16 102 0 20 0 10 10 0 20 0 102 -8 68 0 72 0 88 8 162 0 48 0 20 -13 10 -17 0 rrcurveto
            return
          </CharString>
          <CharString index="633">
            86 0 70 34 24 12 24 12 6 6 0 16 0 20 -10 10 -20 0 -4 0 -8 -3 -12 -6 -24 -12 -60 -29 -72 0 rrcurveto
            -85 -45 96 84 132 58 154 132 hvcurveto
            30 0 10 -20 20 0 20 0 10 10 0 20 0 10 -12 15 -18 10 -17 9 -22 6 -21 0 rrcurveto
            -168 -82 -178 -168 -120 70 -120 120 hvcurveto
            return
          </CharString>
          <CharString index="634">
            -54 36 -36 54 vhcurveto
            30 0 79 23 21 7 21 7 9 9 0 14 0 20 -10 10 -20 0 -8 0 -7 -1 -3 -1 -21 -7 -74 -21 -17 0 rrcurveto
            return
          </CharString>
          <CharString index="635">
            0 -130 -10 -180 0 -20 rrcurveto
            return
          </CharString>
          <CharString index="636">
            0 -44 4 -62 6 -24 5 -20 9 -10 16 0 20 0 10 10 0 20 0 4 -2 8 -1 4 rrcurveto
            return
          </CharString>
          <CharString index="637">
            -12 36 -48 298 -34 102 -16 48 -24 22 -32 0 -46 0 -34 -36 0 -54 rrcurveto
            return
          </CharString>
          <CharString index="638">
            0 -30 10 -256 0 -180 rrcurveto
            -20 10 -10 20 20 10 10 20 vhcurveto
            return
          </CharString>
          <CharString index="639">
            0 180 -10 256 0 30 0 20 6 10 14 0 26 0 70 -412 12 -50 5 -24 18 -40 54 0 16 0 9 10 5 20 40 160 -2 -7 7 70 rrcurveto
            10 100 22 103 5 14 4 12 6 13 5 10 3 6 5 15 0 4 rrcurveto
            return
          </CharString>
          <CharString index="640">
            20 -10 10 -20 vhcurveto
            -14 0 -8 -10 -10 -20 -6 -12 -6 -13 -5 -15 -5 -15 -26 -115 -10 -100 rrcurveto
            -6 -64 3 7 -31 -123 rrcurveto
            return
          </CharString>
          <CharString index="641">
            0 84 -50 104 0 72 0 54 60 32 0 24 rrcurveto
            20 -10 10 -20 -24 -66 -73 -67 vhcurveto
            return
          </CharString>
          <CharString index="642">
            0 -84 50 -104 0 -72 0 -54 -30 -12 0 -24 rrcurveto
            -20 10 -10 20 vhcurveto
            return
          </CharString>
          <CharString index="643">
            1 -10 rlineto
            2 -20 24 -300 3 -30 2 -20 12 -10 16 0 20 0 10 10 0 20 0 1 -1 4 0 5 -2 20 -24 300 -3 30 -2 20 -12 10 -16 0 rrcurveto
            -20 -10 -10 -20 hvcurveto
            return
          </CharString>
          <CharString index="644">
            -1 -7 0 -1 0 0 rrcurveto
            -20 10 -10 20 vhcurveto
            return
          </CharString>
          <CharString index="645">
            -12 16 -11 17 -9 18 -10 20 -11 10 -11 0 -20 0 -10 -10 0 -20 0 -6 2 -9 5 -9 12 -23 16 -24 18 -22 -35 -26 -44 -17 -54 0 rrcurveto
            -87 -53 32 118 85 55 90 75 hvcurveto
            10 0 14 -1 10 -2 rrcurveto
            return
          </CharString>
          <CharString index="646">
            20 0 23 18 40 0 62 0 51 -52 0 -68 rrcurveto
            0 -45 -16 -49 -30 -41 rrcurveto
            return
          </CharString>
          <CharString index="647">
            13 -13 11 -10 6 -5 19 -16 19 -14 10 0 20 0 10 14 0 17 0 11 -10 10 -20 16 -8 6 -12 11 -15 15 42 52 23 66 0 62 rrcurveto
            103 -80 77 -93 vhcurveto
            -39 0 -29 -12 -17 -5 rrcurveto
            return
          </CharString>
          <CharString index="648">
            -8 1 -5 1 -19 0 rrcurveto
            -120 -70 -133 -102 -145 74 -65 126 hvcurveto
            70 0 58 23 44 35 rrcurveto
            return
          </CharString>
          <CharString index="649">
            -100 0 -220 -30 -20 0 rrcurveto
            return
          </CharString>
          <CharString index="650">
            -30 -9 -43 -9 -60 0 -45 0 -28 6 -19 9 28 54 41 67 34 55 rrcurveto
            11 -17 79 -109 32 -47 rrcurveto
            return
          </CharString>
          <CharString index="651">
            -100 -160 rlineto
            -9 14 -54 75 -37 53 55 6 77 7 68 5 rrcurveto
            return
          </CharString>
          <CharString index="652">
            -26 -397 rlineto
            -13 20 -100 139 -13 20 rrcurveto
            116 186 rlineto
            4 6 11 15 1 11 rrcurveto
            return
          </CharString>
          <CharString index="653">
            -32 -5 -48 -2 -60 0 -45 0 -28 6 -19 9 28 54 41 67 34 55 11 -17 86 -120 32 -47 rrcurveto
            return
          </CharString>
          <CharString index="654">
            -23 12 rlineto
            60 22 88 30 47 16 21 7 9 9 0 14 0 20 -10 10 -20 0 -4 0 -7 -1 -9 -3 -57 -18 -140 -51 -43 -17 -20 -8 -10 -8 0 -14 rrcurveto
            0 -24 10 -8 20 -10 rrcurveto
            150 -78 rlineto
            12 -6 8 -6 0 -8 0 -11 -3 -9 -6 -10 -8 -13 -3 -6 0 -11 0 -20 10 -10 20 0 11 0 10 11 12 19 12 20 5 20 0 20 rrcurveto
            0 17 -9 27 -28 20 155 8 204 18 118 0 40 0 92 -17 40 -10 10 -2 4 -1 4 0 20 0 10 10 0 20 0 16 -10 10 -20 5 rrcurveto
            -40 10 -96 19 -54 0 -147 0 -283 -29 -152 -1 rrcurveto
            return
          </CharString>
          <CharString index="655">
            0 70 10 90 0 20 rrcurveto
            return
          </CharString>
          <CharString index="656">
            0 148 -10 184 0 152 26 -43 38 -38 13 -13 24 -24 8 -6 11 0 20 0 10 13 0 17 0 11 -6 7 -24 24 -24 24 -44 45 -30 59 rrcurveto
            -10 20 -8 10 -22 0 -14 0 -9 -9 -7 -21 -20 -60 -46 -126 -20 -50 -4 -10 -2 -8 0 -6 0 -20 10 -10 20 0 14 0 8 10 8 20 rrcurveto
            22 56 rlineto
            return
          </CharString>
          <CharString index="657">
            3 -155 5 -88 0 -113 rrcurveto
            return
          </CharString>
          <CharString index="658">
            0 -21 -10 -89 0 -70 0 -47 12 -53 5 -20 5 -20 10 -10 16 0 20 0 10 10 0 20 0 4 -1 4 -2 10 rrcurveto
            -5 19 -10 43 0 40 rrcurveto
            return
          </CharString>
          <CharString index="659">
            -4 43 -4 72 0 74 rrcurveto
            return
          </CharString>
          <CharString index="660">
            0 133 10 127 0 80 0 75 -19 75 -10 40 -5 20 -10 10 -16 0 -20 0 -10 -10 0 -20 0 -4 1 -4 2 -10 10 -40 17 -92 0 -40 rrcurveto
            return
          </CharString>
          <CharString index="661">
            0 -72 -10 -135 0 -133 rrcurveto
            return
          </CharString>
          <CharString index="662">
            0 -82 6 -88 4 -40 1 -13 6 -8 8 -5 rrcurveto
            -21 -28 rlineto
            -23 60 -31 87 -16 47 -7 21 -9 9 -14 0 -20 0 -10 -10 0 -20 0 -4 1 -7 3 -9 18 -57 53 -140 17 -43 rrcurveto
            return
          </CharString>
          <CharString index="663">
            8 -20 8 -10 18 0 16 0 8 10 10 20 30 60 52 44 24 24 24 24 6 7 0 11 0 17 -10 13 -20 0 -11 0 -8 -6 -24 -24 rrcurveto
            return
          </CharString>
          <CharString index="664">
            55 -55 66 -68 61 -71 41 -48 43 -48 40 -40 40 -40 39 -36 50 -40 15 -12 10 -7 11 0 20 0 10 10 0 20 0 11 -15 14 -15 12 rrcurveto
            -45 36 -36 33 -40 40 -40 40 -41 46 -41 48 -77 90 -90 89 -59 59 -8 8 -7 8 -6 5 rrcurveto
            4 vlineto
            51 -7 76 -29 35 -9 12 -3 16 0 20 0 rrcurveto
            20 10 10 20 20 -10 10 -20 hvcurveto
            -12 0 -14 0 -4 1 -40 10 -106 39 -54 0 -20 0 -10 -10 0 -20 rrcurveto
            -5 vlineto
            -7 -5 -3 -8 0 -12 0 -30 5 -30 5 -20 rrcurveto
            40 -158 rlineto
            7 -28 3 -24 0 -20 rrcurveto
            -20 10 -10 20 20 10 10 20 vhcurveto
            0 40 -4 12 -9 38 -10 44 -9 30 -9 36 rrcurveto
            return
          </CharString>
          <CharString index="665">
            0 -10 -15 -13 -7 -7 -58 -58 -7 3 -93 -124 -9 -12 -3 -7 0 -8 0 -20 10 -10 20 0 11 0 7 6 12 16 90 120 7 -3 60 60 rrcurveto
            15 14 20 25 0 28 0 104 -204 36 -120 30 -4 1 -3 1 -11 0 -20 0 -10 -14 0 -16 0 -17 14 -7 16 -4 120 -30 162 -36 0 -48 rrcurveto
            return
          </CharString>
          <CharString index="666">
            13 -8 6 -4 11 0 20 0 10 10 0 20 0 11 -11 11 -19 12 155 8 204 18 118 0 rrcurveto
            20 10 10 20 20 -10 10 -20 hvcurveto
            -150 0 -280 -29 -152 -1 rrcurveto
            -23 12 rlineto
            60 22 88 30 47 16 21 7 9 9 0 14 0 20 -10 10 -20 0 -4 0 -7 -1 -9 -3 -57 -18 -140 -51 -43 -17 -20 -8 -10 -8 0 -14 rrcurveto
            0 -24 10 -8 20 -10 40 -20 97 -50 26 -16 rrcurveto
            return
          </CharString>
          <CharString index="667">
            0 -10 -15 -13 -7 -7 -58 -58 -7 3 -93 -124 -9 -12 -3 -7 0 -8 0 -20 10 -10 20 0 11 0 7 6 12 16 90 120 7 -3 60 60 rrcurveto
            15 14 20 25 0 28 0 66 -83 48 -91 34 -52 19 -54 16 -44 11 -4 1 -3 1 -11 0 -20 0 -10 -14 0 -16 0 -17 14 -7 16 -4 rrcurveto
            47 -12 53 -16 47 -18 rrcurveto
            74 -29 61 -34 0 -29 rrcurveto
            return
          </CharString>
          <CharString index="668">
            -30 0 -44 42 -60 240 -4 16 -7 14 -17 0 -16 0 -14 -10 0 -20 0 -4 0 -6 2 -8 60 -240 50 -84 80 0 28 0 25 20 14 15 rrcurveto
            60 60 -3 7 120 90 16 12 6 7 0 11 0 20 -10 10 -20 0 -8 0 -7 -3 -12 -9 -124 -93 3 -7 -58 -58 rrcurveto
            -7 -7 -13 -15 -10 0 rrcurveto
            return
          </CharString>
          <CharString index="669">
            8 -20 8 -10 18 0 16 0 8 10 10 20 30 60 52 44 24 24 24 24 6 7 0 11 0 17 -10 13 -20 0 -11 0 -8 -6 -24 -24 rrcurveto
            -29 -29 rlineto
            -4 43 -4 72 0 74 rrcurveto
            0 133 10 127 0 80 rrcurveto
            return
          </CharString>
          <CharString index="670">
            0 -90 8 -34 12 -36 7 -21 8 -9 16 0 20 0 9 10 0 20 0 3 -1 11 -2 6 -7 20 -10 40 0 80 0 25 -5 44 -5 41 rrcurveto
            -2 16 -12 14 -16 0 -20 0 -10 -11 0 -19 0 -5 1 -7 1 -8 4 -27 4 -38 0 -25 rrcurveto
            return
          </CharString>
          <CharString index="671">
            21 3 9 11 0 16 rrcurveto
            20 -10 10 -20 -4 -4 -1 0 vhcurveto
            return
          </CharString>
          <CharString index="672">
            -42 -6 -138 -13 -72 0 rrcurveto
            -20 -10 -10 -20 -20 10 -10 20 hvcurveto
            72 0 146 14 42 6 rrcurveto
            return
          </CharString>
          <CharString index="673">
            0 -90 8 -34 12 -36 7 -21 8 -9 16 0 20 0 9 10 0 20 0 3 -1 12 -2 6 -7 20 -10 39 0 80 0 25 -5 44 -5 41 rrcurveto
            -2 16 -12 14 -16 0 -20 0 -10 -11 0 -19 0 -5 1 -7 1 -8 rrcurveto
            4 -27 4 -38 0 -25 rrcurveto
            return
          </CharString>
          <CharString index="674">
            -20 -10 -10 -20 -16 10 -14 20 hvcurveto
            return
          </CharString>
          <CharString index="675">
            148 0 288 11 148 0 -43 -26 -38 -39 -13 -13 -24 -24 -6 -8 0 -11 0 -20 13 -10 17 0 11 0 7 6 24 24 24 24 45 44 59 30 rrcurveto
            20 10 10 8 0 22 0 14 -9 10 -21 7 -60 20 -126 46 -50 20 -10 4 -8 2 -6 0 -20 0 -10 -11 0 -20 0 -14 10 -8 20 -8 rrcurveto
            56 -21 rlineto
            -20 0 -323 -9 -113 0 rrcurveto
            return
          </CharString>
          <CharString index="676">
            148 0 284 10 152 0 -43 -26 -38 -38 -13 -13 -24 -24 -6 -8 0 -11 0 -20 13 -10 17 0 11 0 7 6 24 24 24 24 45 44 59 30 rrcurveto
            20 10 10 8 0 22 0 14 -9 9 -21 7 -60 20 -126 46 -50 20 -10 4 -8 2 -6 0 -20 0 -10 -10 0 -20 0 -14 10 -8 20 -8 rrcurveto
            56 -21 rlineto
            -155 -3 -188 -6 -113 0 rrcurveto
            return
          </CharString>
          <CharString index="677">
            150 0 300 10 150 0 40 0 92 -17 40 -10 10 -2 4 -1 4 0 20 0 10 10 0 20 0 16 -10 10 -20 5 -40 10 -96 19 -54 0 rrcurveto
            return
          </CharString>
          <CharString index="678">
            -127 0 -235 -7 -160 -2 42 15 42 15 28 9 21 7 9 9 0 14 0 20 -10 10 -20 0 -4 0 -7 -1 -9 -3 -57 -18 -140 -53 -43 -17 rrcurveto
            -20 -8 -10 -8 0 -14 0 -20 10 -10 20 0 rrcurveto
            6 0 8 2 27 11 rrcurveto
            return
          </CharString>
          <CharString index="679">
            159 7 226 20 123 0 rrcurveto
            return
          </CharString>
          <CharString index="680">
            40 0 92 -17 40 -10 10 -2 4 -1 4 0 rrcurveto
            return
          </CharString>
          <CharString index="681">
            20 10 10 20 hvcurveto
            0 16 -10 10 -20 5 -40 10 -96 19 -54 0 rrcurveto
            return
          </CharString>
          <CharString index="682">
            -150 0 -300 -30 -150 0 rrcurveto
            return
          </CharString>
          <CharString index="683">
            -20 -10 -10 -20 hvcurveto
            0 -7 1 -6 3 -5 -18 1 -16 1 -10 0 rrcurveto
            -20 -10 -10 -20 -20 13 -10 17 hvcurveto
            36 0 135 -12 39 -4 20 -2 20 -16 20 -16 10 -8 12 -6 8 0 20 0 10 10 0 20 0 11 -10 10 -20 16 -30 24 -30 14 -30 3 rrcurveto
            -11 1 -17 2 -20 2 rrcurveto
            return
          </CharString>
          <CharString index="684">
            23 -25 21 -19 5 -5 24 -24 8 -6 11 0 20 0 10 13 0 17 0 11 -6 7 -24 24 -24 24 -52 44 -30 60 -4 7 -10 23 -20 0 rrcurveto
            -20 -10 -10 -20 hvcurveto
            0 -4 1 -4 2 -10 rrcurveto
            return
          </CharString>
          <CharString index="685">
            30 -150 17 -362 0 -240 rrcurveto
            -17 14 -13 16 20 10 10 20 vhcurveto
            0 190 -12 277 -20 182 rrcurveto
            return
          </CharString>
          <CharString index="686">
            0 -105 -10 -121 0 -144 rrcurveto
            return
          </CharString>
          <CharString index="687">
            0 -82 6 -88 4 -40 2 -20 12 -10 16 0 20 0 10 10 0 20 0 2 -1 3 0 3 rrcurveto
            return
          </CharString>
          <CharString index="688">
            10 -3 15 -5 0 0 9 -3 7 -1 4 0 20 0 10 10 0 20 0 14 -9 10 -21 7 -60 20 -126 46 -50 20 -10 4 -8 2 -6 0 rrcurveto
            -20 -10 -11 -20 hvcurveto
            0 -14 10 -8 20 -8 rrcurveto
            81 -31 rlineto
            return
          </CharString>
          <CharString index="689">
            -158 -3 -214 -6 -119 0 -40 0 -92 17 -40 10 -10 2 -4 1 -4 0 -20 0 -10 -10 0 -20 0 -16 10 -10 20 -5 40 -10 96 -19 54 0 rrcurveto
            return
          </CharString>
          <CharString index="690">
            150 0 300 10 150 0 rrcurveto
            12 0 8 3 5 7 rrcurveto
            return
          </CharString>
          <CharString index="691">
            -159 0 -260 -10 -150 0 -40 0 -92 17 -40 10 -10 2 -4 1 -4 0 -20 0 -10 -10 0 -20 0 -16 10 -10 20 -5 40 -10 96 -19 54 0 rrcurveto
            return
          </CharString>
          <CharString index="692">
            129 0 201 7 160 2 -13 -11 -11 -9 -6 -6 -24 -24 -6 -8 0 -11 0 -20 13 -10 17 0 11 0 7 6 24 24 24 24 45 44 59 30 rrcurveto
            20 10 10 8 0 14 0 14 -11 16 -19 0 rrcurveto
            -13 0 -22 -12 -26 -18 rrcurveto
            return
          </CharString>
          <CharString index="693">
            0 -82 6 -88 4 -40 1 -13 6 -8 8 -5 rrcurveto
            -21 -28 rlineto
            -23 60 -31 87 -16 47 -7.13360595703 20.9549865723 -8.86639404297 9.04501342773 -14 0 -20 0 -10 -10 0 -20 0 -4 1 -7 3 -9 18 -57 53 -140 17 -43 rrcurveto
            return
          </CharString>
          <CharString index="694">
            -20 10 -10 20 vhcurveto
            4 0 16 6 10 8 rrcurveto
            return
          </CharString>
          <CharString index="695">
            -240 60 -40 40 0 30 0 10 8 8 7 7 58 58 12 -4 93 124 9 12 3 7 0 8 0 20 -10 10 -20 0 -11 0 -7 -6 -12 -16 rrcurveto
            -90 -120 -7 9 -60 -60 -15 -14 -18 -25 0 -28 0 -80 82 -47 240 -60 8 -2 6 -1 4 0 20 0 10 14 0 16 0 12 -10 13 -20 5 rrcurveto
            return
          </CharString>
          <CharString index="696">
            20 16 16 10 24 0 54 0 64 -6 72 -14 rrcurveto
            return
          </CharString>
          <CharString index="697">
            21 0 21 -10 24 -56 12 -28 21 -29 19 -27 14 -20 9 -10 11 0 16 0 14 10 0 20 0 11 -11 15 -6 10 -18 28 -22 31 -6 14 rrcurveto
            -30 69 -31 32 -58 0 -36 0 -27 -20 -14 -15 -60 -60 1 -5 -120 -90 -16 -12 -6 -7 0 -11 0 -20 10 -10 20 0 8 0 7 3 12 9 rrcurveto
            124 93 -1 5 58 58 7 7 13 15 20 0 rrcurveto
            return
          </CharString>
          <CharString index="698">
            20 -10 10 -20 -20 -10 -10 -20 vhcurveto
            return
          </CharString>
          <CharString index="699">
            100 0 40 8 100 0 rrcurveto
            20 10 10 20 20 -10 10 -20 hvcurveto
            return
          </CharString>
          <CharString index="700">
            -12.0447998047 9.94573974609 -15.9552001953 8.05426025391 -22 0 -31 0 -29 -24 -20 -20 -15 -15 -9 -11 -16 0 -14 0 -24 70 -31 26 rrcurveto
            return
          </CharString>
          <CharString index="701">
            20 10 10 20 20 -10 10 -20 hvcurveto
            return
          </CharString>
          <CharString index="702">
            54 -56 26 -24 -20 -10 -10 -20 vhcurveto
            0 -16 16 -7 14 -7 11 -5 9 -6 0 -9 0 -20 -10 -50 -20 0 rrcurveto
            -290 hlineto
            -20 -10 12 18 hvcurveto
            0 30 3 37 8 10 rrcurveto
            return
          </CharString>
          <CharString index="703">
            8 10 21 3 0 20 0 20 -10 10 -20 0 -20 0 -11 -7 -16 -20 -16 -20 -7 -45 0 -48 0 -54 36 -36 54 0 rrcurveto
            290 hlineto
            54 36 65 65 hvcurveto
            return
          </CharString>
          <CharString index="704">
            5 -19 9 -11 16 0 rrcurveto
            return
          </CharString>
          <CharString index="705">
            104 0 66 24 12 4 25 8 5 10 0 14 0 20 -10 10 -20 0 -4 0 -14 -5 -6 -2 -18 -6 -50 -17 -90 0 rrcurveto
            -60 hlineto
            -110 -30 83 67 hvcurveto
            0 7.38291931152 0.248764038086 7.28047180176 0.482971191406 7.1750793457 53.5876159668 5.05068969727 85.1005706787 5.11083984375 122.580078125 0 rrcurveto
            20 10 10 20 20 -10 10 -20 hvcurveto
            -111.358612061 3.0517578125e-05 -83.2390136719 -4.49914550781 -56.6105499268 -4.82312011719 38.6301879883 144.753234863 132.692276001 88.5690002441 67.8857116699 0 30 0 10 -20 20 0 20 0 10 10 0 20 0 10 -12 15 -18 10 -17 9 -22 6 -21 0 rrcurveto
            -101.565704346 0 -163.966278076 -117.001037598 -36.9230041504 -183.024505615 -12.7559814453 -1.69494628906 -8.4817199707 -1.41806030273 -4.30731201172 -0.861450195312 -20 -4 -10 -10 0 -16 rrcurveto
            -20 10 -10 20 2 8 1 0 vhcurveto
            1.97015380859 0.394027709961 2.74639892578 0.500762939453 3.55133056641 0.582641601562 -0.177673339844 -4.79016113281 -0.0902099609375 -4.82604980469 0 -4.86122131348 0 -76 41 -134 159 0 rrcurveto
            return
          </CharString>
          <CharString index="706">
            -3.0517578125e-05 -21.2730102539 -2.90859985352 -25.0370788574 -5.4690246582 -26.6806335449 -3.49053955078 1.49765014648 -3.90008544922 1.02288818359 -4.2317199707 0.470184326172 rrcurveto
            return
          </CharString>
          <CharString index="707">
            -5 50 -15 33 -21 49 16 -2 16 -1 19 0 rrcurveto
            return
          </CharString>
          <CharString index="708">
            20 10 -10 -20 hvcurveto
            0 -20 -43 -78 -11 -82 -7 -50 -4 -41 -3 -41 -81 -3 -104 -6 -87 -9 rrcurveto
            return
          </CharString>
          <CharString index="709">
            -30 -3 -26 -3 -20 -6 rrcurveto
            -2 78 -6 59 -6 76 rrcurveto
            return
          </CharString>
          <CharString index="710">
            -17 10 -13 20 20 10 10 20 vhcurveto
            31 vlineto
            13 3 7 10 0 16 0 16 -6 10 -12 3 3 40 4 40 6 43 10 78 45 70 0 40 rrcurveto
            return
          </CharString>
          <CharString index="711">
            -23 0 -214 -30 -153 0 -26 0 -34 5 -18 3 rrcurveto
            return
          </CharString>
          <CharString index="712">
            -6 8 -7 4 -9 0 -20 0 -10 -10 0 -20 0 -4 1 -8 2 -6 3 -9 6 -15 7 -16 21 -48 16 -35 4 -45 7 -94 8 -73 0 -107 rrcurveto
            -17 10 -13 20 20 10 10 20 vhcurveto
            4 vlineto
            35 14 20 0 20 2 rrcurveto
            return
          </CharString>
          <CharString index="713">
            0.790740966797 15.8149719238 1.41603088379 24.7252807617 1.546875 26.5897674561 53.5705413818 4.37440490723 50.6452026367 5.34834289551 22.0306091309 3.14723205566 rrcurveto
            return
          </CharString>
          <CharString index="714">
            21 3 9 11 0 16 rrcurveto
            20 -10 10 -20 -4 -4 -1 0 vhcurveto
            -20.9995117188 -2.99993896484 -44.9985046387 -4.7498626709 -48.7487792969 -3.99993896484 rrcurveto
            return
          </CharString>
          <CharString index="715">
            20 -10 10 -20 vhcurveto
            -16 0 -10 -14 -4 -16 rrcurveto
            return
          </CharString>
          <CharString index="716">
            -5 -20 -13.9744262695 -50.0012969971 -1.02557373047 -19.9987030029 -0.694961547852 -13.551940918 -1.17796325684 -20.6759796143 -1.32528686523 -22.8909606934 -28.571975708 -1.74954223633 -26.9873809814 -1.13157653809 -21.2424316406 0 rrcurveto
            return
          </CharString>
          <CharString index="717">
            -20 -10 -10 -20 -20 10 -10 20 hvcurveto
            19.9993591309 0 25.7088623047 1.08016967773 27.6035766602 1.68887329102 rrcurveto
            return
          </CharString>
          <CharString index="718">
            -1.37138366699 -23.7705383301 -1.22564697266 -21.7032012939 -0.714767456055 -14.2953033447 rrcurveto
            -3 vlineto
            -20 10 -10 20 vhcurveto
            16 0 13 10 1 20 rrcurveto
            return
          </CharString>
          <CharString index="719">
            0 -11 12 -10 20 -20 59 -59 89 -90 90 -77 94 -81 87 -87 55 -55 14 -14 16 -16 14 0 20 0 10 10 0 20 0 10 -12 13 -20 20 rrcurveto
            -60 60 -87 87 -92 79 -90 77 -85 86 -60 60 -15 15 -15 13 -14 0 -20 0 -10 -10 0 -20 rrcurveto
            return
          </CharString>
          <CharString index="720">
            -101 -73 -84 -86 -85 77 -55 93 112 118 40 120 hvcurveto
            return
          </CharString>
          <CharString index="721">
            72 -81 36 -60 vhcurveto
            -7 15 -22 27 -56 0 rrcurveto
            return
          </CharString>
          <CharString index="722">
            -16 7 -17 28 40 65 -9 -40 -89 -109 -11 -61 -53 -57 32 48 vhcurveto
            51 44 59 70 vhcurveto
            return
          </CharString>
          <CharString index="723">
            -101 -73 -84 -86 -85 77 -55 93 112 118 40 120 72 -81 36 -60 hvcurveto
            -7 15 -22 27 -56 0 rrcurveto
            return
          </CharString>
          <CharString index="724">
            -72 vlineto
            0 -239 -142 -266 -37 -172 -5 -26 -8 -59 0 -16 -12 22 -9 30 -3 15 -15 75 -9 163 0 105 rrcurveto
            20 -10 10 -20 -20 -10 -10 -20 vhcurveto
            0 -105 11 -178 15 -75 10 -50 34 -62 20 -30 12 -18 8 -12 20 0 17 0 10 10 4 20 4 20 2 103 12 54 35 161 146 274 0 256 rrcurveto
            72 vlineto
            17 -8 13 -22 -20 -10 -10 -20 vhcurveto
            return
          </CharString>
          <CharString index="725">
            -71 -53 -74 -51 -64 0 rrcurveto
            -32 -56 19 20 54 98 36 72 hvcurveto
            53 0 39 -9 35 -16 rrcurveto
            return
          </CharString>
          <CharString index="726">
            20 11 10 20 hvcurveto
            0 4 -2 7 -2 6 -10 30 -15 42 -9 45 -20 100 -29 156 -42 106 -8 20 -7 10 -16 0 -20 0 -8 -10 -7 -20 -21 -62 -20 -60 -20 -54 rrcurveto
            -60 -162 -29 -95 -40 -60 -10 -15 -5 -10 0 -8 0 -20 10 -10 20 0 10 0 11 9 14 21 40 60 48 143 47 127 rrcurveto
            38 108 rlineto
            28 -95 22 -113 16 -80 12 -60 13 -30 10 -30 7 -21 12 -9 11 0 rrcurveto
            return
          </CharString>
          <CharString index="727">
            -19 0 -9 -10 -5 -20 rrcurveto
            return
          </CharString>
          <CharString index="728">
            1 4 0 4 0 3 rrcurveto
            20 -16 10 -11 vhcurveto
            return
          </CharString>
          <CharString index="729">
            0 114 -16 76 -16 68 -18 78 -20 74 0 120 0 31 3 35 8 28 10 37 16 27 23 0 32 0 -12 -38 30 0 rrcurveto
            14 16 8 22 29 -22 39 -58 hvcurveto
            -52 0 -37 -44 -18 -64 -9 -32 -4 -38 0 -40 0 -130 20 -76 19 -80 16 -68 15 -70 0 -106 0 -30 -6 -46 -12 -36 -13 -39 -25 -41 -24 0 rrcurveto
            -30 0 -13 8 -10 15 -10 15 -11 4 -6 0 -20 0 -10 -10 0 -20 0 -6 2 -8 8 -12 18 -26 33 -20 49 0 51 0 45 48 24 72 rrcurveto
            13 39 7 63 0 30 rrcurveto
            return
          </CharString>
          <CharString index="730">
            11 0 12 10 12 20 24 40 21 89 0 81 0 64 -16 117 -14 108 rrcurveto
            return
          </CharString>
          <CharString index="731">
            -11 85 -9 80 0 46 0 31 3 35 8 28 10 37 16 29 23 0 rrcurveto
            20 10 10 20 20 -10 10 -20 hvcurveto
            -52 0 -37 -46 -18 -64 -9 -32 -4 -38 0 -40 0 -51 10 -82 11 -86 rrcurveto
            return
          </CharString>
          <CharString index="732">
            14 -109 15 -113 0 -59 0 -89 -18 -58 -24 -40 rrcurveto
            return
          </CharString>
          <CharString index="733">
            -6 -10 -2 -8 0 -5 rrcurveto
            -20 10 -10 20 vhcurveto
            return
          </CharString>
          <CharString index="734">
            16 -97 6 -96 0 -55 0 -30 -6 -46 -12 -36 -13 -39 -25 -29 -24 0 -20 0 -6 10 -24 0 rrcurveto
            -20 -10 -10 -20 -24 50 -16 30 hvcurveto
            51 0 45 36 24 72 13 39 7 63 0 30 0 61 -7 101 -16 97 rrcurveto
            return
          </CharString>
          <CharString index="735">
            -14 87 -13 84 0 50 0 31 3 35 8 28 10 37 16 29 23 0 rrcurveto
            20 10 10 20 20 -10 10 -20 hvcurveto
            -52 0 -37 -46 -18 -64 rrcurveto
            -9 -32 -4 -38 0 -40 rrcurveto
            return
          </CharString>
          <CharString index="736">
            -6 -10 -2 -8 0 -5 0 -20 10 -10 20 0 11 0 12 10 12 20 rrcurveto
            return
          </CharString>
          <CharString index="737">
            10 37 16 29 23 0 rrcurveto
            20 10 10 20 20 -10 10 -20 hvcurveto
            -52 0 -37 -46 -18 -64 rrcurveto
            -9 -32 -4 -38 0 -40 rrcurveto
            return
          </CharString>
          <CharString index="738">
            150 -119 76 -81 vhcurveto
            -40 0 -40 -6 -20 -15 rrcurveto
            return
          </CharString>
          <CharString index="739">
            20 10 11 20 20 -10 9 -20 hvcurveto
            -25 0 -35 -3 -40 -7 -20 -4 -10 -10 0 -16 0 -20 11 -10 19 0 6 0 9 1 5 1 30 6 25 2 25 0 rrcurveto
            return
          </CharString>
          <CharString index="740">
            -40 0 -83 -50 -27 0 -40 0 -26 60 -24 0 rrcurveto
            -20 -10 -10 -20 -24 66 -66 54 hvcurveto
            return
          </CharString>
          <CharString index="741">
            40 0 83 50 27 0 30 0 17 -13 21 -14 15 -10 7 -3 10 0 20 0 10 10 0 20 0 11 -9 8 -21 14 rrcurveto
            -30 20 -30 17 -40 0 rrcurveto
            return
          </CharString>
          <CharString index="742">
            20 0 67 -3 3 0 20 0 10 10 0 20 0 20 -10 9 -20 1 -31 2 -29 1 -30 0 -87 0 -85 -7 -78 -16 -20 -4 -10 -10 0 -16 rrcurveto
            -23 12 -7 18 vhcurveto
            3 0 7 1 10 2 65 13 99 7 66 0 rrcurveto
            return
          </CharString>
          <CharString index="743">
            18 18 2 4 0 11 0 20 -10 10 -20 0 -11 0 -12 -11 -12 -12 -105 -105 -122 -45 -72 -72 -18 -18 -18 -26 0 -27 0 -39 26 -27 28 -9 rrcurveto
            100 -33 83 -14 66 -66 10 -10 15 -2 2 0 22 0 8 11 0 19 0 5 -4 10 -12 12 -72 72 -97 20 -95 31 -10 3 -10 7 0 10 rrcurveto
            0 10 10 9 10 10 60 60 148 72 92 92 rrcurveto
            return
          </CharString>
          <CharString index="744">
            -20 -8 -10 -9 0 -16 0 -20 10 -10 20 0 6 0 10 4 5 2 65 26 95 87 20 20 24 24 5 6 0 11 0 20 -10 10 -20 0 rrcurveto
            -11 0 -8 -6 -24 -24 -20 -20 -87 -77 -50 -20 rrcurveto
            return
          </CharString>
          <CharString index="745">
            27 20 19 21 0 33 0 28 -17 25 -20 20 -43 43 -45 28 -47 31 -52 34 -49 32 -39 52 -15 20 -12 13 -11 0 -20 0 -10 -10 0 -20 rrcurveto
            0 -11 5 -8 15 -20 45 -60 54 -35 56 -37 44 -29 41 -24 40 -40 8 -8 12 -14 0 -10 0 -7 -9 -9 -11 -8 -72 -54 -98 -60 -80 -30 rrcurveto
            -16 -6 -14 -9 0 -17 0 -16 8 -14 20 0 11 0 5 3 8 3 80 30 110 66 72 54 rrcurveto
            return
          </CharString>
          <CharString index="746">
            -20 -10 -10 -20 hvcurveto
            0 -16 9 -12 21 -3 99 -13 73 -42 43 -70 24 -39 15 -48 6 -57 rrcurveto
            return
          </CharString>
          <CharString index="747">
            2 -20 12 -10 16 0 rrcurveto
            20 10 10 20 4 -1 5 0 hvcurveto
            -6 62 -18 56 -29 47 -29 47 -40 38 -50 27 86 43 80 96 45 75 6 10 6 12 0 11 0 20 -10 10 -20 0 -11 0 -9 -10 -12 -20 rrcurveto
            -48 -80 -110 -130 -90 0 rrcurveto
            -20 0 -29 7 -11 0 rrcurveto
            return
          </CharString>
          <CharString index="748">
            -8 -5 -7 -5 -8 -6 -132 -99 -53 -87 -36 -60 -6 -10 -7 -13 0 -11 0 -20 10 -10 20 0 11 0 8 10 12 20 36 60 54 84 120 90 rrcurveto
            40 30 29 6 30 0 rrcurveto
            17 13 10 20 20 -13 10 -17 hvcurveto
            -115 0 -120 120 -15 60 -6 23 -13 7 -11 0 -20 0 -10 -10 0 -20 0 -4 1 -5 2 -8 12 -48 77 -101 105 -48 rrcurveto
            return
          </CharString>
          <CharString index="749">
            -20 -10 -10 -20 hvcurveto
            0 -16 9 -12 21 -3 99 -13 72.9720916748 -42.0171508789 43.0279083252 -69.9828491211 23.9844360352 -39.0095672607 15.0155639648 -47.9904327393 6 -57 rrcurveto
            return
          </CharString>
          <CharString index="750">
            2.10412597656 -19.9893188477 11.8958740234 -10.0106811523 16 0 rrcurveto
            20 10 10 20 4 -1 5 0 hvcurveto
            -6 62 -18 56 -29 47 -29 47 -40 38 -50 27 86 43 80 96 45 75 6 10 6 12 0 11 0 20 -10 10 -20 0 -11 0 -9 -10 -12 -20 rrcurveto
            -48 -80 -110 -130 -90 0 rrcurveto
            -20 0 -29 7 -11 0 rrcurveto
            return
          </CharString>
          <CharString index="751">
            -40 0 -47 -13 -49 -37 -132 -99 -53 -87 -36 -60 -6 -10 -7 -13 0 -11 0 -20 10 -10 20 0 11 0 8 10 12 20 36 60 54 84 120 90 rrcurveto
            40 30 29 6 30 0 rrcurveto
            20 10 10 20 20 -10 10 -20 hvcurveto
            return
          </CharString>
          <CharString index="752">
            -48 0 -107 1 -102 11 -121 13 -114 28 0 57 0 63 62 45 76 28 62 23 70 11 52 0 50 0 69 -4 20 -5 4 -1 4 0 3 0 rrcurveto
            20 10 16 11 hvcurveto
            0 19 -10 9 -20 5 -20 5 -76 5 -54 0 -62 0 -75 -13 -66 -25 -97 -37 -80 -63 0 -92 0 -106 140 -35 146 -16 97 -11 100 -2 67 0 rrcurveto
            20 10 10 20 20 -10 10 -20 hvcurveto
            return
          </CharString>
          <CharString index="753">
            -20 -10 -10 -20 -20 10 -10 20 hvcurveto
            68 0 117 3 100 10 160 16 145 36 0 105 0 90 -61 64 -91 37 -64 26 -79 13 -85 0 -54 0 -106 -5 -20 -5 -20 -5 -10 -9 0 -19 rrcurveto
            -11 10 -16 20 vhcurveto
            3 0 4 0 4 1 20 5 99 4 50 0 75 0 74 -11 57 -23 70 -28 46 -46 0 -62 0 -56 -122 -28 -130 -13 -120 -12 -111 -1 -49 0 rrcurveto
            return
          </CharString>
          <CharString index="754">
            -5 -20 -5 -58 0 -54 rrcurveto
            -175 85 -249 175 149 71 151 149 vhcurveto
            0 42 -2 71 -18 93 -4 21 -16 9 -10 0 -20 0 -10 -10 0 -20 0 -6 3 -9 0 -4 17 -84 0 -73 0 -30 rrcurveto
            -105 -55 -137 -105 -129 -71 237 129 vhcurveto
            0 50 4 51 5 20 rrcurveto
            return
          </CharString>
          <CharString index="755">
            0 -96 12 -94 11 -53 -9 -4 -4 -10 0 -13 0 -14 9 -14 21 -7 30 -10 86 -15 54 0 30 0 166 10 84 10 20 2 10 8 0 20 rrcurveto
            20 -10 10 -20 -4 -5 -1 0 vhcurveto
            -80 -9 -162 -10 -29 0 -40 0 -44 6 -38 8 -20 80 -8 98 0 54 47 4 154 10 49 0 80 0 39 -10 20 -7 rrcurveto
            return
          </CharString>
          <CharString index="756">
            6 -2 12 -1 3 0 20 0 10 9 0 20 0 16 -9 8 -21 7 rrcurveto
            return
          </CharString>
          <CharString index="757">
            -36 12 -34 8 -90 0 -54 0 -181 -12 -45 -5 rrcurveto
            -18 -2 -12 -12 0 -19 rrcurveto
            return
          </CharString>
          <CharString index="758">
            -20 2 -216 13 -172 0 rrcurveto
            -20 -10 -10 -20 -20 10 -10 20 hvcurveto
            200 0 186 -13 40 -4 rrcurveto
            return
          </CharString>
          <CharString index="759">
            0 12 -1 2 20 10 10 20 vhcurveto
            0 30 -20 155 0 115 0 20 -10 10 -20 0 -72 0 -75 0 -28 -2 rrcurveto
            return
          </CharString>
          <CharString index="760">
            -57 -3 -188 -5 -20 0 rrcurveto
            -20 -10 -10 -20 -23 12 -7 18 hvcurveto
            20 0 198 4 50 3 rrcurveto
            return
          </CharString>
          <CharString index="761">
            24 1 63 2 55 0 rrcurveto
            0 -60 13 -125 5 -52 rrcurveto
            return
          </CharString>
          <CharString index="762">
            0 72 10 79 0 105 rrcurveto
            20 -10 10 -20 -20 -10 -10 -20 vhcurveto
            return
          </CharString>
          <CharString index="763">
            0 -105 -10 -79 0 -72 rrcurveto
            return
          </CharString>
          <CharString index="764">
            -10 1 -6 1 -22 0 rrcurveto
            -130 -112 -159 -138 -173 116 -97 139 hvcurveto
            210 115 151 209 hvcurveto
            return
          </CharString>
          <CharString index="765">
            -10 1 -6 1 -22 0 rrcurveto
            -130 -112 -159 -138 -173 116 -97 139 210 115 151 209 hvcurveto
            return
          </CharString>
          <CharString index="766">
            -100 -95 60 150 119 101 118 81 hvcurveto
            11 0 18 -1 12 -2 7 -1 8 -2 4 0 13 0 14 4 4 17 rrcurveto
            return
          </CharString>
          <CharString index="767">
            15 2 16 2 16 0 rrcurveto
            66 74 -63 -103 hvcurveto
            -182 -96 -118 -169 vhcurveto
            return
          </CharString>
          <CharString index="768">
            72 0 96 -16 102 0 20 0 10 10 0 20 0 102 -8 68 0 72 0 88 8 162 0 48 rrcurveto
            20 -13 10 -17 vhcurveto
            return
          </CharString>
          <CharString index="769">
            0 -42 -10 -163 0 -75 0 -72 8 -92 12 -36 7 -21 12 -9 11 0 20 0 10 10 0 20 0 4 -1 8 -3 9 -5.16439819336 13.2799377441 -6.25305175781 51.926071167 -2.92428588867 55.2332000732 rrcurveto
            return
          </CharString>
          <CharString index="770">
            0 -42 -10 -163 0 -75 0 -72 8 -92 12 -36 7 -21 12 -9 11 0 20 0 10 10 0 20 0 4 -1 8 -3 9 rrcurveto
            return
          </CharString>
          <CharString index="771">
            0 -42 -10 -163 0 -75 0 -72 8 -92 12 -36 7 -21 12 -9 11 0 20 0 10 10 0 20 0 4 -1 8 -3 9 -5.16439819336 13.2799377441 -6.25305175781 51.926071167 -2.92430114746 55.2332000732 rrcurveto
            return
          </CharString>
          <CharString index="772">
            -22 8 -27 9 -41 8 -80 16 -107 25 -95 28 rrcurveto
            108 38 rlineto
            return
          </CharString>
          <CharString index="773">
            106 39 99 41 65 35 rrcurveto
            -3 -60 -2 -100 -1 -87 rrcurveto
            return
          </CharString>
          <CharString index="774">
            0 124 6 171 1 10 1 10 2 24 0 4 0 20 -10 7 -20 0 -8 0 -10 -5 -15 -10 -60 -40 -69 -26 -162 -60 -54 -20 -60 -20 -62 -21 rrcurveto
            -20 -7 -10 -8 0 -20 0 -16 10 -7 20 -8 106 -42 150 -32 100 -20 45 -9 42 -15 30 -10 6 -2 7 -2 4 0 rrcurveto
            20 10 10 20 hvcurveto
            return
          </CharString>
          <CharString index="775">
            22 -8 27 -9 41 -8 80 -16 107 -25 95 -28 rrcurveto
            -108 -38 rlineto
            return
          </CharString>
          <CharString index="776">
            -106 -39 -99 -41 -65 -35 rrcurveto
            3 60 2 100 1 87 rrcurveto
            return
          </CharString>
          <CharString index="777">
            0 -124 -6 -171 -1 -10 -1 -10 -2 -24 0 -4 0 -20 10 -7 20 0 8 0 10 5 15 10 60 40 69 26 162 60 54 20 60 20 62 21 rrcurveto
            20 7 10 8 0 20 0 16 -10 7 -20 8 -106 42 -150 32 -100 20 -45 9 -42 15 -30 10 -6 2 -7 2 -4 0 rrcurveto
            -20 -10 -10 -20 hvcurveto
            return
          </CharString>
          <CharString index="778">
            90 0 34 8 36 12 21 7 9 8 0 16 0 20 -10 9 -20 0 -3 0 -12 -1 -6 -2 -20 -7 -39 -10 -80 0 -25 0 -44 -5 -41 -5 rrcurveto
            -16 -2 -14 -12 0 -16 0 -20 11 -10 19 0 5 0 7 1 8 1 27 4 38 4 25 0 rrcurveto
            return
          </CharString>
          <CharString index="779">
            0 -93 -5 -146 -31 -117 -27 -101 -47 -79 -80 0 -83 0 -61 56 -41 77 -45 84 -20 109 0 90 0 50 4 89 5 20 rrcurveto
            return
          </CharString>
          <CharString index="780">
            1 4 0 4 0 3 0 20 -16 10 -11 0 -19 0 -9 -10 -5 -20 rrcurveto
            return
          </CharString>
          <CharString index="781">
            -5 -20 -5 -96 0 -54 0 -103 23 -116 48 -91 51 -96 79 -70 109 0 115 0 63 100 34 126 32 119 6 146 0 105 rrcurveto
            20 -10 10 -20 vhcurveto
            -20 -10 -10 -20 hvcurveto
            return
          </CharString>
          <CharString index="782">
            -93 0 -146 5 -117 31 -101 27 -79 105 0 80 0 85 56 59 77 41 84 45 109 18 90 0 50 0 93 -4 20 -5 rrcurveto
            return
          </CharString>
          <CharString index="783">
            4 -1 4 0 3 0 20 0 10 16 0 11 0 19 -10 9 -20 5 rrcurveto
            return
          </CharString>
          <CharString index="784">
            -20 5 -100 5 -54 0 -103 0 -116 -21 -91 -48 -96 -51 -70 -79 0 -109 0 -115 100 -121 126 -34 119 -32 146 -6 105 0 rrcurveto
            20 10 10 20 hvcurveto
            20 -10 10 -20 vhcurveto
            return
          </CharString>
          <CharString index="785">
            93 0 142 -19 120 -40 99 -33 82 -90 0 -90 0 -85 -36 -79 -77 -41 -84 -45 -109 -18 -90 0 -50 0 -93 4 -20 5 rrcurveto
            return
          </CharString>
          <CharString index="786">
            -4 1 -4 0 -3 0 -20 0 -10 -16 0 -11 0 -19 10 -9 20 -5 rrcurveto
            return
          </CharString>
          <CharString index="787">
            20 -5 100 -5 54 0 103 0 116 21 91 48 96 51 50 99 0 109 0 114 -96 113 -126 42 -120 40 -149 23 -105 0 rrcurveto
            -20 -10 -10 -20 hvcurveto
            -20 10 -10 20 vhcurveto
            return
          </CharString>
          <CharString index="788">
            60 60 17 25 24 40 6 10 5 12 0 11 0 20 -10 10 -20 0 -11 0 -8 -10 -12 -20 -24 -40 -19 -26 -54 -54 -54 -54 -65 -36 -93 0 rrcurveto
            -11 0 -22 3 -21 3 rrcurveto
            0 -4 1 -2 -20 -10 -10 -20 vhcurveto
            0 -16 9 -12 21 -3 28 -4 16 -2 16 0 111 0 80 45 67 67 rrcurveto
            return
          </CharString>
          <CharString index="789">
            62.5131225586 2.37030029297 68.4243774414 1.64788818359 67.3944702148 0 rrcurveto
            20 10 10 20 20 -10 10 -20 hvcurveto
            -43.1094970703 3.0517578125e-05 -43.9523010254 -0.674270629883 -42.8054199219 -1.10629272461 16.1891174316 16.589630127 3.67810058594 5.75640869141 0 9.43449401855 rrcurveto
            return
          </CharString>
          <CharString index="790">
            20 -10 10 -20 vhcurveto
            -11 0 -8 -6 -24 -24 -6.67303466797 -6.67301940918 -14.1316833496 -13.0184631348 -17.7274780273 -15.1295623779 rrcurveto
            return
          </CharString>
</ttFont>
